<svg width="22" height="22" viewBox="0 0 22 22" fill="none" xmlns="http://www.w3.org/2000/svg">
<path d="M17.3198 4.68026C15.6437 3.00414 13.3704 2.0625 11 2.0625C8.62959 2.0625 6.35627 3.00414 4.68014 4.68027C3.00402 6.35639 2.06238 8.62971 2.06238 11.0001C2.06238 13.3705 3.00402 15.6438 4.68014 17.32C6.35627 18.9961 8.62959 19.9377 11 19.9377C13.3704 19.9377 15.6437 18.9961 17.3198 17.32C18.996 15.6438 19.9376 13.3705 19.9376 11.0001C19.9376 8.62971 18.996 6.35639 17.3198 4.68026ZM16.3479 16.348C15.2902 17.4055 13.9427 18.1257 12.4757 18.4174C11.0088 18.7091 9.48828 18.5593 8.10648 17.9868C6.72467 17.4144 5.54364 16.4451 4.71271 15.2015C3.88178 13.9579 3.43828 12.4958 3.43828 11.0001C3.43828 9.50444 3.88178 8.04235 4.71271 6.79873C5.54364 5.5551 6.72467 4.5858 8.10648 4.01338C9.48828 3.44096 11.0088 3.29113 12.4757 3.58284C13.9427 3.87455 15.2902 4.5947 16.3479 5.65222C17.7641 7.07172 18.5594 8.99498 18.5594 11.0001C18.5594 13.0052 17.7641 14.9285 16.3479 16.348ZM14.9239 8.73652L12.6594 11.0001L14.9239 13.2637C14.9878 13.3276 15.0384 13.4034 15.073 13.4869C15.1076 13.5703 15.1254 13.6598 15.1254 13.7501C15.1254 13.8404 15.1076 13.9299 15.073 14.0134C15.0384 14.0968 14.9878 14.1726 14.9239 14.2365C14.86 14.3004 14.7842 14.3511 14.7007 14.3856C14.6173 14.4202 14.5278 14.438 14.4375 14.438C14.3472 14.438 14.2577 14.4202 14.1742 14.3856C14.0908 14.3511 14.015 14.3004 13.9511 14.2365L11.2011 11.4865C11.1372 11.4227 11.0864 11.3468 11.0519 11.2634C11.0173 11.1799 10.9994 11.0905 10.9994 11.0001C10.9994 10.9098 11.0173 10.8203 11.0519 10.7368C11.0864 10.6534 11.1372 10.5776 11.2011 10.5137L13.9511 7.7637C14.015 7.69983 14.0908 7.64916 14.1742 7.61459C14.2577 7.58002 14.3472 7.56223 14.4375 7.56223C14.5278 7.56223 14.6173 7.58002 14.7007 7.61459C14.7842 7.64916 14.86 7.69983 14.9239 7.7637C14.9878 7.82758 15.0384 7.90341 15.073 7.98687C15.1076 8.07033 15.1254 8.15977 15.1254 8.25011C15.1254 8.34044 15.1076 8.42989 15.073 8.51335C15.0384 8.59681 14.9878 8.67264 14.9239 8.73652ZM10.1114 8.73652L7.84694 11.0001L10.1114 13.2637C10.1753 13.3276 10.2259 13.4034 10.2605 13.4869C10.2951 13.5703 10.3129 13.6598 10.3129 13.7501C10.3129 13.8404 10.2951 13.9299 10.2605 14.0134C10.2259 14.0968 10.1753 14.1726 10.1114 14.2365C10.0475 14.3004 9.97169 14.3511 9.88823 14.3856C9.80477 14.4202 9.71532 14.438 9.62499 14.438C9.53465 14.438 9.4452 14.4202 9.36175 14.3856C9.27829 14.3511 9.20246 14.3004 9.13858 14.2365L6.38858 11.4865C6.32466 11.4227 6.27395 11.3468 6.23935 11.2634C6.20475 11.1799 6.18695 11.0905 6.18695 11.0001C6.18695 10.9098 6.20475 10.8203 6.23935 10.7368C6.27395 10.6534 6.32466 10.5776 6.38858 10.5137L9.13858 7.7637C9.26758 7.6347 9.44255 7.56223 9.62499 7.56223C9.80742 7.56223 9.98239 7.6347 10.1114 7.7637C10.2404 7.89271 10.3129 8.06767 10.3129 8.25011C10.3129 8.43255 10.2404 8.60751 10.1114 8.73652Z" fill="white"/>
</svg>
