<svg width="22" height="22" viewBox="0 0 22 22" fill="none" xmlns="http://www.w3.org/2000/svg">
<path d="M16.5 10.2188C16.5 10.4227 16.4395 10.6221 16.3262 10.7917C16.2129 10.9613 16.0518 11.0934 15.8634 11.1715C15.675 11.2496 15.4676 11.27 15.2676 11.2302C15.0675 11.1904 14.8838 11.0922 14.7395 10.948C14.5953 10.8037 14.4971 10.62 14.4573 10.4199C14.4175 10.2199 14.4379 10.0125 14.516 9.82411C14.5941 9.63567 14.7262 9.47461 14.8958 9.3613C15.0654 9.24798 15.2648 9.1875 15.4688 9.1875C15.7423 9.1875 16.0046 9.29615 16.198 9.48955C16.3913 9.68294 16.5 9.94525 16.5 10.2188ZM13.0625 5.75H9.625C9.44266 5.75 9.2678 5.82243 9.13886 5.95136C9.00993 6.0803 8.9375 6.25516 8.9375 6.4375C8.9375 6.61984 9.00993 6.7947 9.13886 6.92364C9.2678 7.05257 9.44266 7.125 9.625 7.125H13.0625C13.2448 7.125 13.4197 7.05257 13.5486 6.92364C13.6776 6.7947 13.75 6.61984 13.75 6.4375C13.75 6.25516 13.6776 6.0803 13.5486 5.95136C13.4197 5.82243 13.2448 5.75 13.0625 5.75ZM21.3125 9.875V12.625C21.3125 13.172 21.0952 13.6966 20.7084 14.0834C20.3216 14.4702 19.797 14.6875 19.25 14.6875H19.0472L17.6541 18.5873C17.5588 18.8545 17.3831 19.0856 17.1513 19.249C16.9194 19.4123 16.6427 19.5 16.3591 19.5H15.2659C14.9823 19.5 14.7056 19.4123 14.4737 19.249C14.2419 19.0856 14.0662 18.8545 13.9709 18.5873L13.8059 18.125H8.88164L8.71664 18.5873C8.62127 18.8545 8.44562 19.0856 8.21376 19.249C7.98191 19.4123 7.7052 19.5 7.42156 19.5H6.32844C6.0448 19.5 5.76809 19.4123 5.53624 19.249C5.30438 19.0856 5.12873 18.8545 5.03336 18.5873L3.95312 15.5658C2.92547 14.4027 2.28199 12.9507 2.11063 11.4081C1.88875 11.5247 1.70295 11.6996 1.5733 11.9141C1.44365 12.1286 1.37508 12.3744 1.375 12.625C1.375 12.8073 1.30257 12.9822 1.17364 13.1111C1.0447 13.2401 0.869836 13.3125 0.6875 13.3125C0.505164 13.3125 0.330295 13.2401 0.201364 13.1111C0.0724328 12.9822 0 12.8073 0 12.625C0.00105048 12.0119 0.206957 11.4167 0.585006 10.934C0.963055 10.4514 1.49156 10.1088 2.08656 9.96094C2.24015 8.0663 3.10064 6.2987 4.49718 5.00915C5.89372 3.7196 7.72415 3.00241 9.625 3H18.5625C18.7448 3 18.9197 3.07243 19.0486 3.20136C19.1776 3.3303 19.25 3.50516 19.25 3.6875C19.25 3.86984 19.1776 4.0447 19.0486 4.17364C18.9197 4.30257 18.7448 4.375 18.5625 4.375H16.7243C17.8652 5.1755 18.7626 6.27597 19.317 7.55469C19.354 7.64062 19.3901 7.72656 19.4245 7.8125C19.9407 7.85632 20.4215 8.09281 20.7713 8.47496C21.1212 8.85711 21.3144 9.35692 21.3125 9.875ZM19.9375 9.875C19.9375 9.69266 19.8651 9.5178 19.7361 9.38886C19.6072 9.25993 19.4323 9.1875 19.25 9.1875H18.9355C18.789 9.18766 18.6464 9.14106 18.5283 9.0545C18.4102 8.96793 18.3228 8.84593 18.2789 8.70625C17.885 7.44927 17.0997 6.35107 16.0376 5.57189C14.9755 4.79272 13.6922 4.37336 12.375 4.375H9.625C8.42421 4.37494 7.24935 4.72428 6.24367 5.38042C5.238 6.03656 4.44498 6.97115 3.96131 8.07022C3.47764 9.1693 3.32423 10.3854 3.51977 11.5701C3.71532 12.7549 4.25138 13.8571 5.06258 14.7425C5.12461 14.81 5.17253 14.8891 5.20352 14.9754L6.32844 18.125H7.42156L7.74984 17.2063C7.79751 17.0728 7.88527 16.9573 8.00111 16.8756C8.11695 16.794 8.25521 16.7501 8.39695 16.75H14.2905C14.4323 16.7501 14.5706 16.794 14.6864 16.8756C14.8022 16.9573 14.89 17.0728 14.9377 17.2063L15.2659 18.125H16.3591L17.9154 13.7688C17.9631 13.6353 18.0508 13.5198 18.1667 13.4381C18.2825 13.3565 18.4208 13.3126 18.5625 13.3125H19.25C19.4323 13.3125 19.6072 13.2401 19.7361 13.1111C19.8651 12.9822 19.9375 12.8073 19.9375 12.625V9.875Z" fill="white"/>
</svg>
