<svg width="22" height="22" viewBox="0 0 22 22" fill="none" xmlns="http://www.w3.org/2000/svg">
<path d="M19.9375 5.50008C19.9372 4.9858 19.7928 4.48189 19.5205 4.04559C19.2482 3.60929 18.8591 3.25808 18.3972 3.03184C17.9354 2.80561 17.4194 2.71341 16.9077 2.76573C16.3961 2.81805 15.9094 3.01279 15.5029 3.32782C15.0964 3.64286 14.7864 4.06557 14.6081 4.54795C14.4298 5.03033 14.3903 5.55305 14.4941 6.05674C14.598 6.56043 14.841 7.02491 15.1956 7.39743C15.5501 7.76994 16.0021 8.03557 16.5 8.16414V9.62508C16.5 9.80742 16.4276 9.98228 16.2986 10.1112C16.1697 10.2401 15.9948 10.3126 15.8125 10.3126H8.25001C8.01575 10.3125 7.78321 10.3526 7.56251 10.4312V8.16414C8.21058 7.99681 8.77539 7.59886 9.15105 7.04489C9.5267 6.49091 9.68743 5.81895 9.60309 5.15495C9.51875 4.49096 9.19514 3.88051 8.69292 3.43805C8.19069 2.99558 7.54434 2.75147 6.87501 2.75147C6.20567 2.75147 5.55932 2.99558 5.0571 3.43805C4.55487 3.88051 4.23126 4.49096 4.14693 5.15495C4.06259 5.81895 4.22331 6.49091 4.59897 7.04489C4.97463 7.59886 5.53943 7.99681 6.18751 8.16414V13.836C5.53943 14.0034 4.97463 14.4013 4.59897 14.9553C4.22331 15.5092 4.06259 16.1812 4.14693 16.8452C4.23126 17.5092 4.55487 18.1196 5.0571 18.5621C5.55932 19.0046 6.20567 19.2487 6.87501 19.2487C7.54434 19.2487 8.19069 19.0046 8.69292 18.5621C9.19514 18.1196 9.51875 17.5092 9.60309 16.8452C9.68743 16.1812 9.5267 15.5092 9.15105 14.9553C8.77539 14.4013 8.21058 14.0034 7.56251 13.836V12.3751C7.56251 12.1927 7.63494 12.0179 7.76387 11.8889C7.8928 11.76 8.06767 11.6876 8.25001 11.6876H15.8125C16.3595 11.6876 16.8841 11.4703 17.2709 11.0835C17.6577 10.6967 17.875 10.1721 17.875 9.62508V8.16414C18.4651 8.01087 18.9877 7.66619 19.3609 7.18411C19.7341 6.70202 19.9369 6.10976 19.9375 5.50008ZM5.50001 5.50008C5.50001 5.22813 5.58065 4.96229 5.73174 4.73617C5.88282 4.51005 6.09757 4.33382 6.34882 4.22975C6.60007 4.12567 6.87653 4.09845 7.14326 4.1515C7.40998 4.20455 7.65498 4.33551 7.84728 4.52781C8.03958 4.72011 8.17053 4.96511 8.22359 5.23183C8.27664 5.49855 8.24941 5.77502 8.14534 6.02627C8.04127 6.27752 7.86503 6.49226 7.63892 6.64335C7.4128 6.79444 7.14696 6.87508 6.87501 6.87508C6.51033 6.87508 6.1606 6.73021 5.90273 6.47235C5.64487 6.21449 5.50001 5.86475 5.50001 5.50008ZM8.25001 16.5001C8.25001 16.772 8.16936 17.0379 8.01828 17.264C7.86719 17.4901 7.65244 17.6663 7.4012 17.7704C7.14995 17.8745 6.87348 17.9017 6.60676 17.8487C6.34003 17.7956 6.09503 17.6646 5.90273 17.4724C5.71044 17.2801 5.57948 17.0351 5.52643 16.7683C5.47337 16.5016 5.5006 16.2251 5.60467 15.9739C5.70874 15.7226 5.88498 15.5079 6.1111 15.3568C6.33722 15.2057 6.60306 15.1251 6.87501 15.1251C7.23968 15.1251 7.58942 15.2699 7.84728 15.5278C8.10514 15.7857 8.25001 16.1354 8.25001 16.5001ZM17.1875 6.87508C16.9156 6.87508 16.6497 6.79444 16.4236 6.64335C16.1975 6.49226 16.0212 6.27752 15.9172 6.02627C15.8131 5.77502 15.7859 5.49855 15.8389 5.23183C15.892 4.96511 16.0229 4.72011 16.2152 4.52781C16.4075 4.33551 16.6525 4.20455 16.9193 4.1515C17.186 4.09845 17.4624 4.12567 17.7137 4.22975C17.9649 4.33382 18.1797 4.51005 18.3308 4.73617C18.4819 4.96229 18.5625 5.22813 18.5625 5.50008C18.5625 5.86475 18.4176 6.21449 18.1598 6.47235C17.9019 6.73021 17.5522 6.87508 17.1875 6.87508Z" fill="white"/>
</svg>
