<svg width="22" height="22" viewBox="0 0 22 22" fill="none" xmlns="http://www.w3.org/2000/svg">
<path d="M17.2575 4.61776C15.5813 2.94164 13.308 2 10.9376 2C8.56721 2 6.29389 2.94164 4.61777 4.61777C2.94164 6.29389 2 8.56721 2 10.9376C2 13.308 2.94164 15.5813 4.61776 17.2575C6.29389 18.9336 8.56721 19.8752 10.9376 19.8752C13.308 19.8752 15.5813 18.9336 17.2575 17.2575C18.9336 15.5813 19.8752 13.308 19.8752 10.9376C19.8752 8.56721 18.9336 6.29389 17.2575 4.61776ZM16.2855 16.2855C15.2278 17.343 13.8803 18.0632 12.4134 18.3549C10.9464 18.6466 9.4259 18.4968 8.0441 17.9243C6.6623 17.3519 5.48126 16.3826 4.65033 15.139C3.8194 13.8954 3.3759 12.4333 3.3759 10.9376C3.3759 9.44194 3.8194 7.97985 4.65033 6.73623C5.48126 5.4926 6.6623 4.5233 8.0441 3.95088C9.4259 3.37846 10.9464 3.22863 12.4134 3.52034C13.8803 3.81205 15.2278 4.5322 16.2855 5.58972C17.7017 7.00922 18.497 8.93248 18.497 10.9376C18.497 12.9427 17.7017 14.866 16.2855 16.2855ZM10.7365 10.4512C10.8004 10.5151 10.8511 10.5909 10.8857 10.6743C10.9203 10.7578 10.9381 10.8473 10.9381 10.9376C10.9381 11.028 10.9203 11.1174 10.8857 11.2009C10.8511 11.2843 10.8004 11.3602 10.7365 11.424L7.98652 14.174C7.92264 14.2379 7.84681 14.2886 7.76335 14.3231C7.67989 14.3577 7.59044 14.3755 7.50011 14.3755C7.40977 14.3755 7.32033 14.3577 7.23687 14.3231C7.15341 14.2886 7.07758 14.2379 7.0137 14.174C6.94983 14.1101 6.89916 14.0343 6.86459 13.9509C6.83002 13.8674 6.81223 13.7779 6.81223 13.6876C6.81223 13.5973 6.83002 13.5078 6.86459 13.4244C6.89916 13.3409 6.94983 13.2651 7.0137 13.2012L9.27816 10.9376L7.0137 8.67402C6.8847 8.54501 6.81223 8.37005 6.81223 8.18761C6.81223 8.00517 6.8847 7.83021 7.0137 7.7012C7.14271 7.5722 7.31767 7.49973 7.50011 7.49973C7.68255 7.49973 7.85751 7.5722 7.98652 7.7012L10.7365 10.4512ZM15.549 10.4512C15.6129 10.5151 15.6636 10.5909 15.6982 10.6743C15.7328 10.7578 15.7506 10.8473 15.7506 10.9376C15.7506 11.028 15.7328 11.1174 15.6982 11.2009C15.6636 11.2843 15.6129 11.3602 15.549 11.424L12.799 14.174C12.67 14.303 12.495 14.3755 12.3126 14.3755C12.1302 14.3755 11.9552 14.303 11.8262 14.174C11.6972 14.045 11.6247 13.87 11.6247 13.6876C11.6247 13.5052 11.6972 13.3302 11.8262 13.2012L14.0907 10.9376L11.8262 8.67402C11.6972 8.54501 11.6247 8.37005 11.6247 8.18761C11.6247 8.00517 11.6972 7.83021 11.8262 7.7012C11.9552 7.5722 12.1302 7.49973 12.3126 7.49973C12.495 7.49973 12.67 7.5722 12.799 7.7012L15.549 10.4512Z" fill="white"/>
</svg>
