<svg width="22" height="22" viewBox="0 0 22 22" fill="none" xmlns="http://www.w3.org/2000/svg">
<path d="M19.2052 6.49375L15.3647 2.65406C15.237 2.52635 15.0854 2.42504 14.9186 2.35592C14.7517 2.2868 14.5729 2.25122 14.3923 2.25122C14.2117 2.25122 14.0329 2.2868 13.866 2.35592C13.6992 2.42504 13.5476 2.52635 13.4199 2.65406L2.82298 13.251C2.69474 13.3782 2.59307 13.5297 2.52388 13.6965C2.45469 13.8634 2.41935 14.0423 2.41993 14.223V18.0635C2.41993 18.4282 2.56479 18.7779 2.82266 19.0358C3.08052 19.2936 3.43026 19.4385 3.79493 19.4385H18.2324C18.4148 19.4385 18.5896 19.3661 18.7186 19.2372C18.8475 19.1082 18.9199 18.9334 18.9199 18.751C18.9199 18.5687 18.8475 18.3938 18.7186 18.2649C18.5896 18.1359 18.4148 18.0635 18.2324 18.0635H9.58024L19.2052 8.43851C19.333 8.31083 19.4343 8.15924 19.5034 7.99239C19.5725 7.82555 19.6081 7.64672 19.6081 7.46613C19.6081 7.28554 19.5725 7.10671 19.5034 6.93987C19.4343 6.77303 19.333 6.62143 19.2052 6.49375ZM7.63548 18.0635H3.79493V14.223L11.3574 6.66047L15.198 10.501L7.63548 18.0635ZM16.1699 9.52906L12.3302 5.68851L14.3927 3.62601L18.2324 7.46656L16.1699 9.52906Z" fill="white"/>
</svg>
