<svg width="22" height="22" viewBox="0 0 22 22" fill="none" xmlns="http://www.w3.org/2000/svg">
<path d="M11.125 3C9.51803 3 7.94714 3.47652 6.611 4.36931C5.27485 5.2621 4.23344 6.53105 3.61848 8.0157C3.00352 9.50035 2.84262 11.134 3.15612 12.7101C3.46963 14.2862 4.24346 15.7339 5.37976 16.8702C6.51606 18.0065 7.9638 18.7804 9.5399 19.0939C11.116 19.4074 12.7497 19.2465 14.2343 18.6315C15.719 18.0166 16.9879 16.9752 17.8807 15.639C18.7735 14.3029 19.25 12.732 19.25 11.125C19.2477 8.97081 18.391 6.90551 16.8677 5.38227C15.3445 3.85903 13.2792 3.00227 11.125 3ZM6.9125 16.5547C7.36464 15.8476 7.98751 15.2656 8.72369 14.8625C9.45988 14.4595 10.2857 14.2482 11.125 14.2482C11.9643 14.2482 12.7901 14.4595 13.5263 14.8625C14.2625 15.2656 14.8854 15.8476 15.3375 16.5547C14.1331 17.4914 12.6508 17.9999 11.125 17.9999C9.5992 17.9999 8.11693 17.4914 6.9125 16.5547ZM8.625 10.5C8.625 10.0055 8.77163 9.5222 9.04633 9.11107C9.32103 8.69995 9.71148 8.37952 10.1683 8.1903C10.6251 8.00108 11.1278 7.95157 11.6127 8.04804C12.0977 8.1445 12.5431 8.3826 12.8928 8.73223C13.2424 9.08186 13.4805 9.52732 13.577 10.0123C13.6734 10.4972 13.6239 10.9999 13.4347 11.4567C13.2455 11.9135 12.9251 12.304 12.5139 12.5787C12.1028 12.8534 11.6195 13 11.125 13C10.462 13 9.82608 12.7366 9.35724 12.2678C8.8884 11.7989 8.625 11.163 8.625 10.5ZM16.2625 15.6883C15.5654 14.6782 14.5853 13.8967 13.4453 13.4422C14.0577 12.9599 14.5045 12.2987 14.7237 11.5507C14.9429 10.8027 14.9235 10.0049 14.6683 9.2684C14.4131 8.53187 13.9347 7.89319 13.2996 7.44116C12.6646 6.98914 11.9045 6.74623 11.125 6.74623C10.3455 6.74623 9.5854 6.98914 8.95036 7.44116C8.31533 7.89319 7.83693 8.53187 7.58171 9.2684C7.32649 10.0049 7.30712 10.8027 7.52631 11.5507C7.74549 12.2987 8.19234 12.9599 8.80469 13.4422C7.6647 13.8967 6.68456 14.6782 5.9875 15.6883C5.1067 14.6978 4.531 13.4738 4.32973 12.1637C4.12846 10.8536 4.3102 9.5132 4.85306 8.30398C5.39593 7.09477 6.27678 6.06826 7.38954 5.34808C8.5023 4.62789 9.79952 4.24472 11.125 4.24472C12.4505 4.24472 13.7477 4.62789 14.8605 5.34808C15.9732 6.06826 16.8541 7.09477 17.3969 8.30398C17.9398 9.5132 18.1216 10.8536 17.9203 12.1637C17.719 13.4738 17.1433 14.6978 16.2625 15.6883Z" fill="white"/>
</svg>
