<svg width="22" height="22" viewBox="0 0 22 22" fill="none" xmlns="http://www.w3.org/2000/svg">
<path d="M19.9263 9.79675L5.48879 1.55621C5.24526 1.41912 4.96574 1.35948 4.68747 1.38525C4.4092 1.41103 4.14539 1.52098 3.93118 1.70047C3.71697 1.87995 3.56254 2.12045 3.48846 2.38992C3.41438 2.65938 3.42417 2.94502 3.51652 3.20879L6.14879 10.9999L3.51652 18.7918C3.44327 18.9992 3.42081 19.2211 3.45104 19.4389C3.48127 19.6567 3.56329 19.8641 3.69024 20.0436C3.81719 20.2232 3.98535 20.3697 4.18062 20.4708C4.37588 20.572 4.59256 20.6248 4.81246 20.6249C5.05137 20.6244 5.2861 20.5622 5.49395 20.4444L19.9246 12.1901C20.1374 12.0709 20.3147 11.8972 20.4383 11.6868C20.5618 11.4764 20.6271 11.2369 20.6276 10.993C20.628 10.749 20.5635 10.5093 20.4407 10.2985C20.318 10.0877 20.1413 9.91331 19.9289 9.79332L19.9263 9.79675ZM4.81246 19.2499C4.81283 19.2465 4.81283 19.243 4.81246 19.2396L7.36824 11.6874H12.375C12.5573 11.6874 12.7322 11.6149 12.8611 11.486C12.99 11.3571 13.0625 11.1822 13.0625 10.9999C13.0625 10.8175 12.99 10.6427 12.8611 10.5137C12.7322 10.3848 12.5573 10.3124 12.375 10.3124H7.36824L4.81762 2.76363C4.81677 2.75876 4.81502 2.7541 4.81246 2.74988L19.25 10.9853L4.81246 19.2499Z" fill="white"/>
</svg>
