<svg width="22" height="22" viewBox="0 0 22 22" fill="none" xmlns="http://www.w3.org/2000/svg">
<path d="M16.625 3.6875H7.0625C6.46576 3.6875 5.89347 3.92455 5.47151 4.34651C5.04955 4.76847 4.8125 5.34076 4.8125 5.9375V17.75C4.8125 17.8992 4.87176 18.0423 4.97725 18.1477C5.08274 18.2532 5.22582 18.3125 5.375 18.3125H15.5C15.6492 18.3125 15.7923 18.2532 15.8977 18.1477C16.0032 18.0423 16.0625 17.8992 16.0625 17.75C16.0625 17.6008 16.0032 17.4577 15.8977 17.3523C15.7923 17.2468 15.6492 17.1875 15.5 17.1875H5.9375C5.9375 16.8891 6.05603 16.603 6.267 16.392C6.47798 16.181 6.76413 16.0625 7.0625 16.0625H16.625C16.7742 16.0625 16.9173 16.0032 17.0227 15.8977C17.1282 15.7923 17.1875 15.6492 17.1875 15.5V4.25C17.1875 4.10082 17.1282 3.95774 17.0227 3.85225C16.9173 3.74676 16.7742 3.6875 16.625 3.6875ZM16.0625 14.9375H7.0625C6.66745 14.937 6.27929 15.041 5.9375 15.2391V5.9375C5.9375 5.63913 6.05603 5.35298 6.267 5.142C6.47798 4.93103 6.76413 4.8125 7.0625 4.8125H16.0625V14.9375Z" fill="white"/>
<path d="M10.8836 11.7024C10.6041 11.7024 10.4449 11.5171 10.4059 11.1466L10.3474 10.2691C10.3344 10.0871 10.3701 9.94736 10.4546 9.84986C10.5456 9.74586 10.6789 9.67111 10.8544 9.62561C11.1404 9.55411 11.3614 9.44036 11.5174 9.28436C11.6734 9.12186 11.7514 8.91061 11.7514 8.65061C11.7514 8.36461 11.6734 8.14036 11.5174 7.97786C11.3679 7.80886 11.1534 7.72436 10.8739 7.72436C10.5229 7.72436 10.2661 7.85761 10.1036 8.12411C9.98011 8.30611 9.86961 8.42311 9.77211 8.47511C9.67461 8.52711 9.54461 8.54011 9.38211 8.51411C9.20011 8.48161 9.06036 8.40686 8.96286 8.28986C8.87186 8.16636 8.86861 8.01686 8.95311 7.84136C9.12211 7.49686 9.37236 7.22386 9.70386 7.02236C10.0419 6.82086 10.4319 6.72011 10.8739 6.72011C11.2769 6.72011 11.6311 6.79811 11.9366 6.95411C12.2486 7.10361 12.4924 7.32461 12.6679 7.61711C12.8434 7.90311 12.9311 8.24761 12.9311 8.65061C12.9311 9.11211 12.7881 9.48586 12.5021 9.77186C12.2226 10.0579 11.8489 10.2594 11.3809 10.3764L11.3419 11.1466C11.3094 11.5171 11.1566 11.7024 10.8836 11.7024ZM10.8739 13.7986C10.6724 13.7986 10.4969 13.7271 10.3474 13.5841C10.2044 13.4411 10.1329 13.2689 10.1329 13.0674C10.1329 12.8594 10.2044 12.6839 10.3474 12.5409C10.4969 12.3979 10.6724 12.3264 10.8739 12.3264C11.0819 12.3264 11.2574 12.3979 11.4004 12.5409C11.5499 12.6839 11.6246 12.8594 11.6246 13.0674C11.6246 13.2689 11.5499 13.4411 11.4004 13.5841C11.2574 13.7271 11.0819 13.7986 10.8739 13.7986Z" fill="#999"/>
</svg>
