<svg width="22" height="22" viewBox="0 0 22 22" fill="none" xmlns="http://www.w3.org/2000/svg">
<path d="M14.8614 8.38859C14.9253 8.45244 14.976 8.52827 15.0106 8.61173C15.0452 8.69519 15.063 8.78465 15.063 8.875C15.063 8.96535 15.0452 9.05481 15.0106 9.13827C14.976 9.22173 14.9253 9.29756 14.8614 9.36141L10.0489 14.1739C9.98506 14.2378 9.90924 14.2885 9.82578 14.3231C9.74231 14.3577 9.65285 14.3755 9.5625 14.3755C9.47216 14.3755 9.38269 14.3577 9.29923 14.3231C9.21577 14.2885 9.13995 14.2378 9.0761 14.1739L7.0136 12.1114C6.88459 11.9824 6.81212 11.8074 6.81212 11.625C6.81212 11.4426 6.88459 11.2676 7.0136 11.1386C7.1426 11.0096 7.31757 10.9371 7.5 10.9371C7.68244 10.9371 7.85741 11.0096 7.98641 11.1386L9.5625 12.7155L13.8886 8.38859C13.9524 8.32467 14.0283 8.27396 14.1117 8.23937C14.1952 8.20477 14.2847 8.18696 14.375 8.18696C14.4654 8.18696 14.5548 8.20477 14.6383 8.23937C14.7217 8.27396 14.7976 8.32467 14.8614 8.38859ZM19.875 10.9375C19.875 12.7052 19.3508 14.4331 18.3688 15.9029C17.3867 17.3727 15.9909 18.5182 14.3577 19.1947C12.7246 19.8711 10.9276 20.0481 9.19388 19.7033C7.46018 19.3584 5.86767 18.5072 4.61774 17.2573C3.36781 16.0073 2.51659 14.4148 2.17174 12.6811C1.82688 10.9474 2.00387 9.15038 2.68033 7.51727C3.35679 5.88415 4.50233 4.48831 5.9721 3.50624C7.44186 2.52418 9.16983 2 10.9375 2C13.3071 2.0025 15.5789 2.94493 17.2545 4.6205C18.9301 6.29606 19.8725 8.5679 19.875 10.9375ZM18.5 10.9375C18.5 9.44178 18.0565 7.97965 17.2255 6.736C16.3945 5.49235 15.2134 4.52305 13.8315 3.95066C12.4497 3.37827 10.9291 3.22851 9.46213 3.52031C7.99515 3.81211 6.64764 4.53237 5.59001 5.59001C4.53237 6.64764 3.81212 7.99515 3.52032 9.46213C3.22851 10.9291 3.37828 12.4497 3.95066 13.8315C4.52305 15.2134 5.49236 16.3945 6.736 17.2255C7.97965 18.0565 9.44178 18.5 10.9375 18.5C12.9425 18.4977 14.8647 17.7002 16.2825 16.2825C17.7002 14.8647 18.4977 12.9425 18.5 10.9375Z" fill="#999"/>
</svg>
