<svg width="22" height="22" viewBox="0 0 22 22" fill="none" xmlns="http://www.w3.org/2000/svg">
<path d="M21.0547 9.50812C20.9271 9.33121 20.7592 9.1872 20.565 9.08798C20.3707 8.98876 20.1556 8.93718 19.9375 8.9375H18.5625V7.5625C18.5625 7.19783 18.4176 6.84809 18.1598 6.59023C17.9019 6.33237 17.5522 6.1875 17.1875 6.1875H11.2295L8.84641 4.4C8.608 4.22227 8.31877 4.12586 8.02141 4.125H3.4375C3.07283 4.125 2.72309 4.26987 2.46523 4.52773C2.20737 4.78559 2.0625 5.13533 2.0625 5.5V17.875C2.0625 18.0573 2.13493 18.2322 2.26386 18.3611C2.3928 18.4901 2.56766 18.5625 2.75 18.5625H18.1414C18.2857 18.5625 18.4264 18.5171 18.5434 18.4327C18.6605 18.3484 18.748 18.2293 18.7937 18.0924L21.242 10.7473C21.3109 10.5407 21.3298 10.3206 21.2972 10.1052C21.2647 9.88983 21.1816 9.68521 21.0547 9.50812ZM8.02141 5.5L10.5875 7.425C10.7065 7.51425 10.8512 7.5625 11 7.5625H17.1875V8.9375H5.99586C5.70726 8.93748 5.42597 9.02827 5.19184 9.197C4.9577 9.36574 4.7826 9.60387 4.69133 9.87766L3.4375 13.6383V5.5H8.02141ZM17.6464 17.1875H3.70391L5.99586 10.3125H19.9375L17.6464 17.1875Z" fill="#999"/>
</svg>
