<svg width="19" height="17" viewBox="0 0 19 17" fill="none" xmlns="http://www.w3.org/2000/svg">
<path d="M17.9945 10.4783C17.762 10.2992 17.4913 10.1762 17.2035 10.1189C16.9157 10.0616 16.6185 10.0715 16.3352 10.1479L13.0664 10.8994C13.1425 10.5782 13.1448 10.2439 13.0733 9.92156C13.0017 9.59927 12.8582 9.29735 12.6534 9.03842C12.4486 8.7795 12.1878 8.57029 11.8907 8.42647C11.5935 8.28266 11.2676 8.20797 10.9375 8.20801H7.02656C6.69812 8.20718 6.37278 8.27145 6.06932 8.3971C5.76587 8.52275 5.49032 8.70728 5.25859 8.94004L3.49141 10.708H1.25C0.918479 10.708 0.600537 10.8397 0.366117 11.0741C0.131696 11.3085 0 11.6265 0 11.958L0 15.083C0 15.4145 0.131696 15.7325 0.366117 15.9669C0.600537 16.2013 0.918479 16.333 1.25 16.333H9.375C9.4261 16.333 9.47701 16.3267 9.52656 16.3143L14.5266 15.0643C14.5584 15.0567 14.5896 15.0462 14.6195 15.033L17.6562 13.7408L17.6906 13.7252C17.9825 13.5794 18.2324 13.3616 18.4168 13.0925C18.6013 12.8234 18.7142 12.5117 18.7449 12.1869C18.7756 11.8621 18.7231 11.5348 18.5924 11.2359C18.4617 10.937 18.257 10.6763 17.9977 10.4783H17.9945ZM1.25 11.958H3.125V15.083H1.25V11.958ZM17.143 12.5994L14.1742 13.8635L9.29688 15.083H4.375V11.5916L6.14297 9.82441C6.25862 9.70784 6.39629 9.61541 6.54798 9.55251C6.69967 9.48961 6.86235 9.45748 7.02656 9.45801H10.9375C11.1861 9.45801 11.4246 9.55678 11.6004 9.7326C11.7762 9.90841 11.875 10.1469 11.875 10.3955C11.875 10.6441 11.7762 10.8826 11.6004 11.0584C11.4246 11.2342 11.1861 11.333 10.9375 11.333H8.75C8.58424 11.333 8.42527 11.3989 8.30806 11.5161C8.19085 11.6333 8.125 11.7922 8.125 11.958C8.125 12.1238 8.19085 12.2827 8.30806 12.4C8.42527 12.5172 8.58424 12.583 8.75 12.583H11.25C11.297 12.5829 11.3439 12.5776 11.3898 12.5674L16.6242 11.3635L16.6484 11.3572C16.8082 11.3129 16.9788 11.3292 17.1273 11.403C17.2758 11.4768 17.3917 11.603 17.4528 11.7571C17.5139 11.9113 17.5158 12.0826 17.4582 12.2381C17.4005 12.3936 17.2874 12.5223 17.1406 12.5994H17.143ZM12.0578 5.5252C11.9405 5.40792 11.8747 5.24886 11.8747 5.08301C11.8747 4.91716 11.9405 4.7581 12.0578 4.64082C12.1751 4.52354 12.3341 4.45766 12.5 4.45766C12.6659 4.45766 12.8249 4.52354 12.9422 4.64082L14.375 6.07441V1.33301C14.375 1.16725 14.4408 1.00828 14.5581 0.891066C14.6753 0.773856 14.8342 0.708008 15 0.708008C15.1658 0.708008 15.3247 0.773856 15.4419 0.891066C15.5592 1.00828 15.625 1.16725 15.625 1.33301V6.07441L17.0578 4.64082C17.1751 4.52354 17.3341 4.45766 17.5 4.45766C17.6659 4.45766 17.8249 4.52354 17.9422 4.64082C18.0595 4.7581 18.1253 4.91716 18.1253 5.08301C18.1253 5.24886 18.0595 5.40792 17.9422 5.5252L15.4422 8.0252C15.3841 8.08331 15.3152 8.12941 15.2393 8.16086C15.1635 8.19231 15.0821 8.2085 15 8.2085C14.9179 8.2085 14.8365 8.19231 14.7607 8.16086C14.6848 8.12941 14.6159 8.08331 14.5578 8.0252L12.0578 5.5252Z" fill="#999999"/>
</svg>
