<svg width="22" height="22" viewBox="0 0 22 22" fill="none" xmlns="http://www.w3.org/2000/svg">
<path d="M20.1595 10.9375L11.625 2.40305C11.4978 2.27482 11.3463 2.17315 11.1795 2.10396C11.0126 2.03476 10.8337 1.99943 10.6531 2.00001H2.68751C2.50517 2.00001 2.3303 2.07244 2.20137 2.20137C2.07244 2.3303 2.00001 2.50517 2.00001 2.68751V10.6531C1.99943 10.8337 2.03476 11.0126 2.10396 11.1795C2.17315 11.3463 2.27482 11.4978 2.40305 11.625L10.9375 20.1595C11.0652 20.2872 11.2168 20.3885 11.3836 20.4576C11.5505 20.5267 11.7293 20.5623 11.9099 20.5623C12.0905 20.5623 12.2693 20.5267 12.4362 20.4576C12.603 20.3885 12.7546 20.2872 12.8823 20.1595L20.1595 12.8823C20.2872 12.7546 20.3885 12.603 20.4576 12.4362C20.5267 12.2693 20.5623 12.0905 20.5623 11.9099C20.5623 11.7293 20.5267 11.5505 20.4576 11.3836C20.3885 11.2168 20.2872 11.0652 20.1595 10.9375ZM11.9095 19.1875L3.37501 10.6531V3.37501H10.6531L19.1875 11.9095L11.9095 19.1875ZM7.50001 6.46876C7.50001 6.67272 7.43953 6.8721 7.32621 7.04169C7.21289 7.21128 7.05184 7.34345 6.8634 7.42151C6.67496 7.49956 6.46761 7.51998 6.26757 7.48019C6.06753 7.4404 5.88378 7.34218 5.73955 7.19796C5.59533 7.05374 5.49711 6.86999 5.45732 6.66994C5.41753 6.4699 5.43795 6.26255 5.51601 6.07411C5.59406 5.88568 5.72624 5.72462 5.89583 5.6113C6.06541 5.49799 6.26479 5.43751 6.46876 5.43751C6.74226 5.43751 7.00456 5.54616 7.19796 5.73955C7.39136 5.93295 7.50001 6.19525 7.50001 6.46876Z" fill="#999"/>
</svg>
