<svg width="19" height="17" viewBox="0 0 19 17" fill="none" xmlns="http://www.w3.org/2000/svg">
<path d="M17.9945 10.4783C17.762 10.2994 17.4913 10.1765 17.2035 10.1192C16.9157 10.0619 16.6185 10.0717 16.3352 10.1479L13.0664 10.8994C13.1425 10.5782 13.1448 10.2439 13.0733 9.92157C13.0017 9.59927 12.8582 9.29735 12.6534 9.03843C12.4486 8.7795 12.1878 8.57029 11.8907 8.42648C11.5935 8.28266 11.2676 8.20798 10.9375 8.20801H7.02656C6.69812 8.20719 6.37278 8.27146 6.06932 8.3971C5.76587 8.52275 5.49032 8.70728 5.25859 8.94004L3.49141 10.708H1.25C0.918479 10.708 0.600537 10.8397 0.366117 11.0741C0.131696 11.3085 0 11.6265 0 11.958L0 15.083C0 15.4145 0.131696 15.7325 0.366117 15.9669C0.600537 16.2013 0.918479 16.333 1.25 16.333H9.375C9.4261 16.333 9.47701 16.3267 9.52656 16.3143L14.5266 15.0643C14.5587 15.0566 14.59 15.0461 14.6203 15.033L17.6562 13.7408L17.6906 13.7252C17.9825 13.5794 18.2324 13.3616 18.4168 13.0925C18.6013 12.8234 18.7142 12.5117 18.7449 12.1869C18.7756 11.8621 18.7231 11.5348 18.5924 11.2359C18.4617 10.937 18.257 10.6763 17.9977 10.4783H17.9945ZM3.125 15.083H1.25V11.958H3.125V15.083ZM17.143 12.5994L14.1742 13.8635L9.29688 15.083H4.375V11.5916L6.14297 9.82442C6.25862 9.70784 6.39629 9.61541 6.54798 9.55251C6.69967 9.48961 6.86235 9.45749 7.02656 9.45801H10.9375C11.1861 9.45801 11.4246 9.55678 11.6004 9.7326C11.7762 9.90841 11.875 10.1469 11.875 10.3955C11.875 10.6442 11.7762 10.8826 11.6004 11.0584C11.4246 11.2342 11.1861 11.333 10.9375 11.333H8.75C8.58424 11.333 8.42527 11.3989 8.30806 11.5161C8.19085 11.6333 8.125 11.7923 8.125 11.958C8.125 12.1238 8.19085 12.2827 8.30806 12.4C8.42527 12.5172 8.58424 12.583 8.75 12.583H11.25C11.297 12.5829 11.3439 12.5776 11.3898 12.5674L16.6242 11.3635L16.6484 11.3572C16.8082 11.3129 16.9788 11.3292 17.1273 11.403C17.2758 11.4768 17.3917 11.603 17.4528 11.7571C17.5139 11.9113 17.5158 12.0826 17.4582 12.2381C17.4005 12.3936 17.2874 12.5223 17.1406 12.5994H17.143ZM12.0578 4.2752C11.9997 4.21715 11.9536 4.14822 11.9221 4.07235C11.8907 3.99648 11.8745 3.91515 11.8745 3.83301C11.8745 3.75088 11.8907 3.66955 11.9221 3.59367C11.9536 3.5178 11.9997 3.44887 12.0578 3.39082L14.5578 0.890824C14.6159 0.832713 14.6848 0.786614 14.7607 0.755161C14.8365 0.723709 14.9179 0.70752 15 0.70752C15.0821 0.70752 15.1635 0.723709 15.2393 0.755161C15.3152 0.786614 15.3841 0.832713 15.4422 0.890824L17.9422 3.39082C18.0003 3.44889 18.0463 3.51783 18.0777 3.5937C18.1092 3.66957 18.1253 3.75089 18.1253 3.83301C18.1253 3.91513 18.1092 3.99645 18.0777 4.07232C18.0463 4.14819 18.0003 4.21713 17.9422 4.2752C17.8841 4.33327 17.8152 4.37933 17.7393 4.41076C17.6634 4.44218 17.5821 4.45836 17.5 4.45836C17.4179 4.45836 17.3366 4.44218 17.2607 4.41076C17.1848 4.37933 17.1159 4.33327 17.0578 4.2752L15.625 2.84161V7.58301C15.625 7.74877 15.5592 7.90774 15.4419 8.02495C15.3247 8.14216 15.1658 8.20801 15 8.20801C14.8342 8.20801 14.6753 8.14216 14.5581 8.02495C14.4408 7.90774 14.375 7.74877 14.375 7.58301V2.84161L12.9422 4.2752C12.8841 4.33331 12.8152 4.37941 12.7393 4.41086C12.6635 4.44231 12.5821 4.4585 12.5 4.4585C12.4179 4.4585 12.3365 4.44231 12.2607 4.41086C12.1848 4.37941 12.1159 4.33331 12.0578 4.2752Z" fill="#999999"/>
</svg>
