<svg width="254" height="219" viewBox="0 0 254 219" fill="none" xmlns="http://www.w3.org/2000/svg">
<path d="M61.4155 59.2305L68.9108 63.5581L59.8295 68.8017L64.2094 71.3304L73.2921 66.0868L80.7874 70.4158L55.0044 85.3014L47.5077 80.9731L56.6247 75.7096L52.2448 73.1809L43.1278 78.4444L35.6311 74.1161L61.4155 59.2305Z" fill="#3842FF"/>
<path d="M75.8386 93.5052L69.576 89.8895L65.4614 91.3387L57.6252 86.8145L91.3062 76.4888L98.9885 80.9236L81.1338 100.387L73.3292 95.8807L75.8386 93.5052ZM80.2913 89.3322L85.8682 84.081L76.7731 87.301L80.2913 89.3322Z" fill="#3842FF"/>
<path d="M109.538 87.0131L116.662 91.1277L110.471 101.329L122.401 94.4411L129.869 98.7509L104.084 113.637L96.9573 109.523L103.144 99.3604L91.2499 106.228L83.7531 101.899L109.538 87.0131Z" fill="#3842FF"/>
<path d="M134.956 101.689L142.298 105.927C151.275 111.111 149.667 115.816 141.619 120.463C133.784 124.986 125.492 125.997 116.513 120.814L109.172 116.575L134.956 101.689ZM124.403 116.651C128.259 118.877 130.784 117.99 134.132 116.057C137.444 114.146 139.013 112.668 135.097 110.406L134.943 110.317L124.189 116.526L124.403 116.651Z" fill="#3842FF"/>
<path d="M159.944 116.115L169.135 121.423L155.571 132.96L175.553 125.128L184.747 130.436L161.741 146.925L154.213 142.579L167.579 133.437L150.047 140.174L143.076 136.149L154.746 126.026L138.91 133.744L131.383 129.398L159.944 116.115Z" fill="#3842FF"/>
<path d="M181.339 154.415L175.075 150.799L170.961 152.248L163.125 147.724L196.808 137.399L204.487 141.833L186.634 161.297L178.828 156.791L181.339 154.415ZM185.791 150.242L191.368 144.991L182.273 148.211L185.791 150.242Z" fill="#3842FF"/>
<path d="M215.036 147.923L222.378 152.163C231.357 157.345 229.748 162.051 221.7 166.697C213.865 171.221 205.573 172.231 196.595 167.048L189.253 162.809L215.036 147.923ZM204.484 162.885C208.341 165.111 210.864 164.225 214.212 162.292C217.524 160.379 219.096 158.902 215.176 156.64L215.022 156.551L204.269 162.761L204.484 162.885Z" fill="#3842FF"/>
<path d="M238.789 161.637L254 170.419L246.414 174.798L238.671 170.327L236.391 171.643L243.579 175.793L237.525 179.288L230.337 175.139L228.023 176.475L235.766 180.946L228.216 185.304L213.006 176.523L238.789 161.637Z" fill="#3842FF"/>
<path d="M26.0715 79.6359L34.6787 84.6053C42.5465 89.1474 40.3298 92.3501 36.982 94.2831C33.8129 96.1129 30.0995 96.1892 28.2745 95.711C29.0661 96.7856 29.5608 99.2085 26.2845 101.1C22.9368 103.033 17.6251 104.532 9.35741 99.7582L0.287109 94.5215L26.0715 79.6359ZM16.1354 96.0229C17.6471 96.8956 18.9073 96.5946 19.9408 95.9989C20.9729 95.4024 21.5295 94.6541 20.0178 93.7815L18.1048 92.6772L14.2224 94.918L16.1354 96.0229ZM24.3001 90.703C25.7499 91.54 27.0156 91.2019 28.0477 90.6055C29.0812 90.009 29.433 89.3075 28.0752 88.5234L26.6872 87.7222L22.912 89.9018L24.3001 90.703Z" fill="#3842FF"/>
<path d="M48.6222 92.6545L56.119 96.9835L37.8849 107.511L43.8081 110.93L36.2577 115.289L22.8392 107.541L48.6222 92.6545Z" fill="#3842FF"/>
<path d="M51.1179 109.023C60.3064 103.718 69.4207 104.334 75.0965 107.612C80.6802 110.835 81.7783 116.115 72.5898 121.42C63.224 126.828 54.2527 126.129 48.5741 122.852C42.8983 119.575 41.7521 114.431 51.1179 109.023ZM65.159 117.089C68.7913 114.992 69.3314 113.042 67.4486 111.955C65.4751 110.816 62.159 111.162 58.5267 113.259C54.6814 115.48 54.1867 117.333 56.1602 118.473C58.043 119.56 61.3138 119.31 65.159 117.089Z" fill="#3842FF"/>
<path d="M75.7905 123.309C84.9433 118.025 94.4726 118.757 100.058 121.981C104.501 124.546 106.871 128.877 100.54 133.815L91.7776 130.36C93.9847 128.55 93.4254 127.199 92.1913 126.487C90.3717 125.436 87.0253 125.765 83.536 127.78C80.1168 129.753 79.5093 131.707 81.3289 132.758C82.563 133.47 84.9034 133.793 88.0739 132.498L94.0232 137.578C85.438 141.216 77.9701 139.864 73.5257 137.299C67.9406 134.075 66.389 128.738 75.7905 123.309Z" fill="#3842FF"/>
<path d="M114.141 130.483L121.608 134.793L111.101 140.859L125.772 137.198L134.596 142.292L116.307 145.797L109.059 157.32L100.267 152.244L107.718 142.812L95.8249 149.679L88.357 145.369L114.141 130.483Z" fill="#3842FF"/>
<path d="M122.277 150.149C131.43 144.864 140.961 145.596 146.544 148.82C150.987 151.385 153.358 155.716 147.025 160.654L138.264 157.199C140.473 155.389 139.913 154.039 138.679 153.326C136.858 152.275 133.512 152.604 130.023 154.619C126.603 156.593 125.996 158.546 127.818 159.597C129.052 160.309 131.391 160.632 134.561 159.337L140.509 164.416C131.925 168.055 124.457 166.703 120.012 164.138C114.43 160.914 112.876 155.576 122.277 150.149Z" fill="#3842FF"/>
<path d="M160.631 157.323L168.128 161.651L159.046 166.894L163.426 169.423L172.507 164.179L180.004 168.508L154.221 183.394L146.723 179.066L155.84 173.802L151.46 171.273L142.345 176.537L134.846 172.209L160.631 157.323Z" fill="#3842FF"/>
<path d="M175.053 191.597L168.791 187.981L164.677 189.431L156.841 184.906L190.522 174.58L198.203 179.015L180.349 198.479L172.543 193.973L175.053 191.597ZM179.505 187.424L185.082 182.173L175.987 185.393L179.505 187.424Z" fill="#3842FF"/>
<path d="M208.753 185.106L216.25 189.435L190.467 204.32L182.969 199.992L208.753 185.106Z" fill="#3842FF"/>
<path d="M221.339 192.373L228.464 196.486L222.273 206.688L234.203 199.8L241.67 204.111L215.885 218.996L208.758 214.882L214.945 204.72L203.052 211.587L195.554 207.259L221.339 192.373Z" fill="#3842FF"/>
<g clip-path="url(#clip0_178_14504)" filter="url(#filter0_d_178_14504)">
<path d="M59.878 1.94775L35.8844 15.8005L59.878 29.6532L83.8717 15.8005L59.878 1.94775Z" fill="#E2E2E2"/>
<path d="M35.8844 15.8003V43.5058L59.878 57.3584V29.653L35.8844 15.8003Z" fill="#C1C1C1"/>
<path d="M59.8781 29.653V57.3584L83.8717 43.5058V15.8003L59.8781 29.653Z" fill="#A3A3A3"/>
<path d="M59.878 1.94775L35.8844 15.8005L59.878 29.6532L83.8717 15.8005L59.878 1.94775Z" stroke="#939393" stroke-width="0.590621" stroke-linejoin="round"/>
<path d="M35.8844 15.8003V43.5057L59.878 57.3584V29.653L35.8844 15.8003Z" stroke="#939393" stroke-width="0.590621" stroke-linejoin="round"/>
<path d="M59.8781 29.653V57.3584L83.8717 43.5057V15.8003L59.8781 29.653Z" stroke="#939393" stroke-width="0.590621" stroke-linejoin="round"/>
<g style="mix-blend-mode:overlay">
<path d="M84.0795 15.4406L60.0859 1.58783C59.9571 1.51369 59.7991 1.51369 59.6703 1.58783L35.6767 15.4406C35.5481 15.5147 35.4689 15.6519 35.4689 15.8004V43.5059C35.4689 43.6544 35.5481 43.7916 35.6767 43.8657L59.6703 57.7184C59.7347 57.7555 59.8064 57.7742 59.8781 57.7742C59.9498 57.7742 60.0215 57.7555 60.0859 57.7184L84.0795 43.8657C84.208 43.7916 84.2873 43.6544 84.2873 43.5059V15.8004C84.2873 15.6519 84.208 15.5147 84.0795 15.4406Z" fill="#4DC9FF"/>
</g>
</g>
<defs>
<filter id="filter0_d_178_14504" x="34.4689" y="0.532227" width="52.8185" height="60.2422" filterUnits="userSpaceOnUse" color-interpolation-filters="sRGB">
<feFlood flood-opacity="0" result="BackgroundImageFix"/>
<feColorMatrix in="SourceAlpha" type="matrix" values="0 0 0 0 0 0 0 0 0 0 0 0 0 0 0 0 0 0 127 0" result="hardAlpha"/>
<feOffset dx="1" dy="1"/>
<feGaussianBlur stdDeviation="1"/>
<feColorMatrix type="matrix" values="0 0 0 0 0 0 0 0 0 0 0 0 0 0 0 0 0 0 0.12 0"/>
<feBlend mode="normal" in2="BackgroundImageFix" result="effect1_dropShadow_178_14504"/>
<feBlend mode="normal" in="SourceGraphic" in2="effect1_dropShadow_178_14504" result="shape"/>
</filter>
<clipPath id="clip0_178_14504">
<rect width="48.8184" height="56.242" fill="white" transform="translate(35.4689 1.53223)"/>
</clipPath>
</defs>
</svg>
