<svg width="39" height="45" viewBox="0 0 39 45" fill="none" xmlns="http://www.w3.org/2000/svg">
<g filter="url(#filter0_d_175_3990)">
<path d="M18.4756 41.3408C17.7607 41.3408 17.1006 40.96 16.7432 40.3408L13.7451 35.1465H10.9512C5.68555 35.1465 1.40234 30.8633 1.40234 25.5977V10.5488C1.40234 5.2832 5.68555 1 10.9512 1H26C31.2656 1 35.5488 5.2832 35.5488 10.5488V25.5977C35.5488 30.8633 31.2656 35.1465 26 35.1465H23.2061L20.208 40.3408C19.8506 40.96 19.1904 41.3408 18.4756 41.3408Z" fill="white"/>
<path d="M26.0002 2.99951H10.9514C6.78223 2.99951 3.40234 6.37927 3.40234 10.5485V25.5973C3.40234 29.7665 6.78223 33.1462 10.9514 33.1462H14.8997L18.4758 39.3403L22.0518 33.1462H26.0002C30.1694 33.1462 33.5491 29.7665 33.5491 25.5973V10.5485C33.5491 6.37927 30.1694 2.99951 26.0002 2.99951Z" stroke="#0068FF" stroke-width="1.5" stroke-linejoin="round"/>
<path d="M17.6163 22.2031C17.8442 21.9752 18.1533 21.8471 18.4757 21.8471C18.7161 21.8471 18.9511 21.9184 19.151 22.052C19.3508 22.1855 19.5066 22.3754 19.5986 22.5975C19.6906 22.8195 19.7147 23.0639 19.6678 23.2997C19.6209 23.5355 19.5051 23.752 19.3352 23.922C19.1652 24.092 18.9486 24.2078 18.7128 24.2547C18.4771 24.3016 18.2327 24.2775 18.0106 24.1855C17.7885 24.0935 17.5987 23.9377 17.4651 23.7378C17.3315 23.538 17.2603 23.303 17.2603 23.0626C17.2603 22.7402 17.3883 22.4311 17.6163 22.2031ZM19.4757 19.4004V12.8008C19.4757 12.248 19.0284 11.8008 18.4757 11.8008C17.923 11.8008 17.4757 12.248 17.4757 12.8008V19.4004C17.4757 19.9531 17.923 20.4004 18.4757 20.4004C19.0284 20.4004 19.4757 19.9531 19.4757 19.4004Z" fill="#0068FF"/>
</g>
<defs>
<filter id="filter0_d_175_3990" x="0" y="-0.318359" width="38.5488" height="44.6592" filterUnits="userSpaceOnUse" color-interpolation-filters="sRGB">
<feFlood flood-opacity="0" result="BackgroundImageFix"/>
<feColorMatrix in="SourceAlpha" type="matrix" values="0 0 0 0 0 0 0 0 0 0 0 0 0 0 0 0 0 0 127 0" result="hardAlpha"/>
<feOffset dx="1" dy="1"/>
<feGaussianBlur stdDeviation="1"/>
<feColorMatrix type="matrix" values="0 0 0 0 0 0 0 0 0 0 0 0 0 0 0 0 0 0 0.12 0"/>
<feBlend mode="normal" in2="BackgroundImageFix" result="effect1_dropShadow_175_3990"/>
<feBlend mode="normal" in="SourceGraphic" in2="effect1_dropShadow_175_3990" result="shape"/>
</filter>
</defs>
</svg>
