<svg width="32" height="32" viewBox="0 0 32 32" fill="none" xmlns="http://www.w3.org/2000/svg">
<g clip-path="url(#clip0_244_7478)">
<rect width="32" height="32" rx="16" fill="#8F7EFF"/>
<path d="M25.2915 27.0129C24.9769 26.5392 24.5749 26.1762 24.1431 25.8958C23.4939 25.475 22.777 25.2342 22.135 25.0583C21.495 24.8849 20.9176 24.7708 20.5926 24.6475C20.1982 24.5008 19.7812 24.3108 19.4902 24.1065C19.345 24.0052 19.233 23.9007 19.168 23.8118C19.1024 23.7207 19.0846 23.6579 19.0839 23.6029V23.0248C19.8492 22.527 20.461 21.8194 20.9248 20.9421C21.4318 19.9844 21.7757 18.8267 21.9968 17.4919H22.6399V16.0903H22.1676C22.1837 15.8444 22.1923 15.5978 22.1923 15.3511C22.1913 13.6377 21.7952 11.9146 20.8096 10.5829C20.3174 9.9182 19.675 9.35621 18.8743 8.9598C18.2148 8.63312 17.4439 8.42737 16.5721 8.35181V8H15.0717V8.35864C14.3476 8.44246 13.697 8.64167 13.1236 8.93644C11.9567 9.53485 11.1206 10.518 10.5848 11.6612C10.0478 12.8058 9.80188 14.1138 9.80154 15.4089C9.80154 15.6369 9.81048 15.864 9.82562 16.0904H9.3598V17.4919H10.0097C10.3179 19.1971 10.8578 20.6927 11.7311 21.8209C12.0722 22.2605 12.4693 22.6388 12.9165 22.9492V23.6029C12.9165 23.6497 12.898 23.717 12.8251 23.8132C12.7193 23.956 12.4991 24.1292 12.2377 24.2759C11.977 24.4243 11.6771 24.5524 11.4146 24.6451C11.1206 24.7499 10.6283 24.8499 10.0739 24.9907C9.24023 25.2054 8.24612 25.5176 7.43401 26.1975C7.02905 26.5368 6.67348 26.9717 6.42443 27.5189C6.1747 28.0665 6.03282 28.7219 6.0332 29.4982C6.0332 29.6865 6.04142 29.8816 6.05863 30.0843C6.06997 30.2141 6.11943 30.3199 6.17749 30.4072C6.28808 30.5693 6.43476 30.6902 6.61855 30.8142C6.94042 31.0272 7.38629 31.2354 7.95717 31.4398C9.66581 32.0491 12.4946 32.607 16.0001 32.6077C18.8482 32.6077 21.252 32.2381 22.9679 31.7736C23.8263 31.5407 24.5116 31.2861 25.007 31.0316C25.255 30.9031 25.4556 30.7767 25.6147 30.6379C25.6943 30.5679 25.7641 30.4944 25.8228 30.4071C25.8805 30.3199 25.9303 30.2141 25.9417 30.0842C25.9585 29.8815 25.9668 29.6871 25.9668 29.4996C25.9682 28.4649 25.7123 27.6443 25.2915 27.0129ZM11.7562 20.4261C11.3234 19.6021 11.0087 18.6048 10.7971 17.4919H11.0362V16.0903H10.6006C10.5841 15.8643 10.5755 15.6369 10.5755 15.4088C10.5742 13.8118 10.987 12.2101 11.8469 11.0363C12.2765 10.4482 12.8152 9.96486 13.4771 9.62478C13.9419 9.38639 14.4733 9.22289 15.0717 9.1432V9.40153H16.5722V9.12604C17.3293 9.19958 17.9802 9.38091 18.5309 9.65333C19.5607 10.1648 20.2721 10.9779 20.7403 11.9765C21.2071 12.9733 21.4188 14.1547 21.4184 15.3511C21.4184 15.5974 21.4081 15.8444 21.3909 16.0903H20.9635V17.4919H21.2129C20.9161 19.2036 20.4057 20.5484 19.6582 21.4728C19.2312 22.0022 18.73 22.3996 18.1303 22.6714C17.5308 22.942 16.8287 23.0873 15.9984 23.0877C15.1747 23.0869 14.4777 22.9231 13.878 22.6274C12.9804 22.1835 12.2866 21.4347 11.7562 20.4261ZM9.23479 31.0269C8.41515 30.8053 7.7704 30.5617 7.34755 30.3436C7.13666 30.2354 6.9817 30.1323 6.89587 30.0561C6.8591 30.0245 6.83848 30.0002 6.8282 29.986C6.81512 29.8164 6.80724 29.6532 6.80724 29.4982C6.8083 28.5866 7.024 27.9342 7.35241 27.4354C7.59973 27.0614 7.91646 26.7704 8.27712 26.5344C8.81714 26.1806 9.45708 25.9573 10.0647 25.7935C10.0757 25.7904 10.0861 25.7883 10.0967 25.7852L11.9771 31.5662C10.929 31.4225 10.0022 31.2347 9.23479 31.0269ZM12.5555 31.638L10.6092 25.6558C11.0067 25.5609 11.3722 25.4792 11.6717 25.3747C11.9221 25.2861 12.1972 25.1693 12.4648 25.0299L14.3047 31.785C13.6921 31.7516 13.1089 31.7015 12.5555 31.638ZM13.3064 26.1126L12.9351 24.7495C13.1265 24.6149 13.302 24.4637 13.4418 24.281C13.5823 24.0969 13.6902 23.866 13.6902 23.6029V23.3861C14.3682 23.6929 15.1364 23.8619 15.9986 23.8612C16.8608 23.8616 17.6296 23.7131 18.3104 23.4294V23.5194C18.3104 23.5658 18.3104 23.5751 18.3104 23.5686V23.6029C18.3097 23.8578 18.409 24.0873 18.5447 24.2704C18.656 24.4195 18.7916 24.5465 18.9411 24.6613L18.6628 25.89C18.1122 25.9642 16.9061 26.1126 16.0556 26.1126C15.1679 26.1126 13.8427 26.1126 13.3064 26.1126ZM17.871 31.7764L19.4137 24.9625C19.7078 25.1232 20.0228 25.2603 20.3216 25.3723C20.7084 25.5155 21.1962 25.6127 21.73 25.7515C21.7365 25.7532 21.7434 25.7553 21.7503 25.757L19.6542 31.6156C19.0925 31.6847 18.4958 31.7386 17.871 31.7764ZM25.172 29.985L25.1386 30.0245C25.0816 30.0821 24.9665 30.1687 24.8047 30.2611C24.2342 30.5906 23.1081 30.9949 21.5967 31.3023C21.1759 31.3886 20.7218 31.4665 20.2429 31.5366L22.2593 25.9003C22.9017 26.0968 23.5537 26.3682 24.0669 26.7989C24.396 27.0737 24.6718 27.41 24.871 27.8442C25.07 28.2788 25.193 28.8163 25.193 29.4996C25.1929 29.6535 25.1854 29.8159 25.172 29.985Z" fill="#FF00FB"/>
<path d="M15.1274 15.874C15.1274 15.11 14.7207 14.9595 14.0604 14.8575C13.1055 14.7108 12.1588 15.066 12.0777 15.6713C11.976 16.4332 12.2515 17.1875 12.8403 17.3487C13.9581 17.653 15.1274 16.8399 15.1274 15.874Z" fill="#FF00FB"/>
<path d="M18.004 14.8575C17.343 14.9595 16.937 15.1099 16.937 15.8739C16.937 16.8399 18.1063 17.6529 19.2241 17.3486C19.8128 17.1875 20.0883 16.4331 19.9867 15.6712C19.9063 15.066 18.9596 14.7108 18.004 14.8575Z" fill="#FF00FB"/>
<path d="M17.6185 13.8919H14.3648L15.9917 14.7555L17.6185 13.8919Z" fill="#FF00FB"/>
<path d="M16.1187 17.7804C15.9078 17.7804 15.7374 17.9511 15.7374 18.1617C15.7374 18.3719 15.9078 18.5427 16.1187 18.5427C16.329 18.5427 16.5001 18.3719 16.5001 18.1617C16.5001 17.9511 16.329 17.7804 16.1187 17.7804Z" fill="#FF00FB"/>
<path d="M15.0765 19.1019C14.8807 19.1019 14.7207 19.2613 14.7207 19.4577C14.7207 19.6546 14.8808 19.8133 15.0765 19.8133C15.273 19.8133 15.4324 19.6546 15.4324 19.4577C15.4324 19.2613 15.273 19.1019 15.0765 19.1019Z" fill="#FF00FB"/>
<path d="M15.0765 20.7284C14.8807 20.7284 14.7207 20.8874 14.7207 21.0843C14.7207 21.2811 14.8808 21.4401 15.0765 21.4401C15.273 21.4401 15.4324 21.281 15.4324 21.0843C15.4324 20.8874 15.273 20.7284 15.0765 20.7284Z" fill="#FF00FB"/>
<path d="M17.2626 19.1019C17.0661 19.1019 16.9068 19.2613 16.9068 19.4577C16.9068 19.6546 17.0661 19.8133 17.2626 19.8133C17.4591 19.8133 17.6185 19.6546 17.6185 19.4577C17.6185 19.2613 17.4591 19.1019 17.2626 19.1019Z" fill="#FF00FB"/>
<path d="M17.2626 20.7284C17.0661 20.7284 16.9068 20.8874 16.9068 21.0843C16.9068 21.2811 17.0661 21.4401 17.2626 21.4401C17.4591 21.4401 17.6185 21.281 17.6185 21.0843C17.6185 20.8874 17.4591 20.7284 17.2626 20.7284Z" fill="#FF00FB"/>
<path d="M14.8732 13.1035C15.0841 13.1035 15.2552 12.9335 15.2552 12.7233C15.2552 12.512 15.0841 12.3413 14.8732 12.3413C14.6629 12.3413 14.4925 12.512 14.4925 12.7233C14.4926 12.9335 14.6629 13.1035 14.8732 13.1035Z" fill="#FF00FB"/>
<path d="M13.3301 11.9112C13.3301 12.1214 13.5005 12.2914 13.7107 12.2914C13.9216 12.2914 14.0927 12.1214 14.0927 11.9112C14.0927 11.6999 13.9217 11.5292 13.7107 11.5292C13.5005 11.5292 13.3301 11.6999 13.3301 11.9112Z" fill="#FF00FB"/>
<path d="M16.9068 13.1035C17.1177 13.1035 17.2881 12.9335 17.2881 12.7233C17.2881 12.512 17.1177 12.3413 16.9068 12.3413C16.6959 12.3413 16.5254 12.512 16.5254 12.7233C16.5254 12.9335 16.6958 13.1035 16.9068 13.1035Z" fill="#FF00FB"/>
<path d="M17.9324 12.3355C18.1433 12.3355 18.3138 12.1654 18.3138 11.9552C18.3138 11.744 18.1434 11.5732 17.9324 11.5732C17.7215 11.5732 17.5512 11.7439 17.5512 11.9552C17.5512 12.1654 17.7216 12.3355 17.9324 12.3355Z" fill="#FF00FB"/>
<path d="M13.4469 11.0164C13.6578 11.0164 13.8289 10.8463 13.8289 10.6361C13.8289 10.4249 13.6578 10.2541 13.4469 10.2541C13.2367 10.2541 13.0663 10.4249 13.0663 10.6361C13.0663 10.8463 13.2367 11.0164 13.4469 11.0164Z" fill="#FF00FB"/>
<path d="M18.1084 10.8405C18.3193 10.8405 18.4897 10.6705 18.4897 10.4602C18.4897 10.249 18.3193 10.0782 18.1084 10.0782C17.8974 10.0782 17.7271 10.249 17.7271 10.4602C17.7271 10.6705 17.8974 10.8405 18.1084 10.8405Z" fill="#FF00FB"/>
<path d="M12.6369 19.9912L13.3487 20.8043L14.3648 18.1617L12.6369 19.9912Z" fill="#FF00FB"/>
<path d="M18.9905 20.8043L19.7022 19.9912L17.9737 18.1617L18.9905 20.8043Z" fill="#FF00FB"/>
<path d="M24.0288 28.7507C24.3221 28.6923 24.263 28.3402 24.0288 28.2523C23.7945 28.1643 23.677 28.4869 23.4716 28.4282C23.2662 28.3694 23.5595 27.7246 23.3252 27.6954C23.091 27.6662 22.9055 27.9943 22.9735 28.399C23.003 28.5748 22.7976 28.692 22.563 28.7507C22.3283 28.8095 22.2404 29.1317 22.5337 29.2784C22.7385 29.3807 22.8267 29.2488 22.7976 29.6593C22.7683 30.0698 22.9147 30.3628 23.1785 30.3041C23.4423 30.2453 23.2372 29.5714 23.3252 29.4542C23.4131 29.3371 23.5303 29.6593 23.7353 29.6885C23.9404 29.7177 23.882 29.3663 23.7062 29.2196C23.5303 29.0729 23.7354 28.8091 24.0288 28.7507Z" fill="#FF00FB"/>
<path d="M21.9182 29.3516C21.7966 29.3516 21.6984 29.4498 21.6984 29.5714C21.6984 29.693 21.7966 29.7912 21.9182 29.7912C22.0398 29.7912 22.1381 29.693 22.1381 29.5714C22.1381 29.4498 22.0398 29.3516 21.9182 29.3516Z" fill="#FF00FB"/>
<path d="M22.7313 27.4021C22.8165 27.4021 22.8856 27.3334 22.8856 27.2482C22.8856 27.1634 22.8165 27.0943 22.7313 27.0943C22.6464 27.0943 22.5774 27.1634 22.5774 27.2482C22.5774 27.3334 22.6464 27.4021 22.7313 27.4021Z" fill="#FF00FB"/>
<path d="M19.5875 28.7212C19.4985 28.7212 19.4264 28.7933 19.4264 28.8826C19.4264 28.9716 19.4985 29.0437 19.5875 29.0437C19.6768 29.0437 19.7489 28.9716 19.7489 28.8826C19.7489 28.7933 19.6768 28.7212 19.5875 28.7212Z" fill="#FF00FB"/>
<path d="M20.3941 27.2867C20.2495 27.2867 20.132 27.4039 20.132 27.5488C20.132 27.6938 20.2495 27.8109 20.3941 27.8109C20.5387 27.8109 20.6562 27.6938 20.6562 27.5488C20.6562 27.4039 20.5387 27.2867 20.3941 27.2867Z" fill="#FF00FB"/>
<path d="M24.2486 30.0111C24.3215 30.0111 24.3805 29.9521 24.3805 29.8792C24.3805 29.8063 24.3215 29.7473 24.2486 29.7473C24.1757 29.7473 24.1167 29.8063 24.1167 29.8792C24.1167 29.9521 24.1757 30.0111 24.2486 30.0111Z" fill="#FF00FB"/>
</g>
<defs>
<clipPath id="clip0_244_7478">
<rect width="32" height="32" rx="16" fill="white"/>
</clipPath>
</defs>
</svg>
