<svg width="67" height="48" viewBox="0 0 67 48" fill="none" xmlns="http://www.w3.org/2000/svg">
<g clip-path="url(#clip0_144_647)">
<path d="M33.2306 0.29541L0.295303 19.3106L33.2306 38.3258L66.1659 19.3106L33.2306 0.29541Z" fill="#E2E2E2"/>
<path d="M39.3436 3.88574L6.40825 22.901" stroke="#D3D3D3" stroke-width="0.590621" stroke-linejoin="round"/>
<path d="M45.7188 7.4939L12.7835 26.5091" stroke="#D3D3D3" stroke-width="0.590621" stroke-linejoin="round"/>
<path d="M52.3934 11.4141L19.4581 30.4293" stroke="#D3D3D3" stroke-width="0.590621" stroke-linejoin="round"/>
<path d="M59.2224 15.3496L26.287 34.3648" stroke="#D3D3D3" stroke-width="0.590621" stroke-linejoin="round"/>
<path d="M0.295303 19.3105V28.6756L33.2306 47.6907V38.3258L0.295303 19.3105Z" fill="#C1C1C1"/>
<path d="M33.2306 38.3258V47.6907L66.1659 28.6756V19.3105L33.2306 38.3258Z" fill="#A3A3A3"/>
<path d="M33.2306 0.29541L0.295303 19.3106L33.2306 38.3258L66.1659 19.3106L33.2306 0.29541Z" stroke="#999999" stroke-width="0.590621" stroke-linejoin="round"/>
<path d="M33.2306 38.3258V47.6907L66.1659 28.6756V19.3105L33.2306 38.3258Z" stroke="#999999" stroke-width="0.590621" stroke-linejoin="round"/>
<path d="M30.4101 40.3257C30.7286 41.5147 30.023 42.4786 28.8341 42.4786C27.6451 42.4786 26.4229 41.5147 26.1043 40.3257C25.7858 39.1367 26.4914 38.1729 27.6803 38.1729C28.8693 38.1729 30.0915 39.1367 30.4101 40.3257Z" fill="#EAE0C7" stroke="#DDC89F" stroke-width="0.735936" stroke-linejoin="round"/>
<path d="M6.9627 26.6756C7.28128 27.8645 6.57569 28.8284 5.3867 28.8284C4.19771 28.8284 2.97558 27.8645 2.65699 26.6756C2.3384 25.4866 3.044 24.5227 4.23299 24.5227C5.42197 24.5227 6.64411 25.4866 6.9627 26.6756Z" fill="#EAE0C7" stroke="#DDC89F" stroke-width="0.735936" stroke-linejoin="round"/>
<path d="M10.0455 29.9556L22.5766 37.1879" stroke="#D3D3D3" stroke-width="0.590621" stroke-linecap="round" stroke-linejoin="round"/>
<path d="M21.7644 34.4473L23.1247 37.4627L20.5265 38.1729" stroke="#D3D3D3" stroke-width="0.590621" stroke-linecap="round" stroke-linejoin="round"/>
<path d="M66.1659 19.3105L33.2306 38.3258" stroke="#B2B2B2" stroke-width="0.590621" stroke-linecap="round" stroke-linejoin="round"/>
<path d="M33.2306 0.29541L0.295303 19.3106" stroke="#B2B2B2" stroke-width="0.590621" stroke-linecap="round" stroke-linejoin="round"/>
<path d="M33.2306 47.6907L66.1659 28.6755" stroke="#B2B2B2" stroke-width="0.590621" stroke-linecap="round" stroke-linejoin="round"/>
<path d="M0.295303 19.3105V28.6756L33.2306 47.6907V38.3258L0.295303 19.3105Z" stroke="#999999" stroke-width="0.590621" stroke-linejoin="round"/>
</g>
<defs>
<clipPath id="clip0_144_647">
<rect width="66.4613" height="47.986" fill="white"/>
</clipPath>
</defs>
</svg>
