<svg width="67" height="48" viewBox="0 0 67 48" fill="none" xmlns="http://www.w3.org/2000/svg">
<g clip-path="url(#clip0_441_16755)">
<path d="M33.2306 0.29541L66.166 19.3106L33.2306 38.3258L0.295319 19.3106L33.2306 0.29541Z" fill="#E2E2E2"/>
<path d="M27.1177 3.88574L60.053 22.901" stroke="#D3D3D3" stroke-width="0.590621" stroke-linejoin="round"/>
<path d="M20.7425 7.4939L53.6778 26.5091" stroke="#D3D3D3" stroke-width="0.590621" stroke-linejoin="round"/>
<path d="M14.0679 11.4141L47.0032 30.4293" stroke="#D3D3D3" stroke-width="0.590621" stroke-linejoin="round"/>
<path d="M7.23889 15.3496L40.1742 34.3648" stroke="#D3D3D3" stroke-width="0.590621" stroke-linejoin="round"/>
<path d="M66.1659 19.3105V28.6756L33.2306 47.6907V38.3258L66.1659 19.3105Z" fill="#A3A3A3"/>
<path d="M33.2306 38.3258V47.6907L0.295319 28.6756V19.3105L33.2306 38.3258Z" fill="#C1C1C1"/>
<path d="M33.2306 0.29541L66.166 19.3106L33.2306 38.3258L0.295319 19.3106L33.2306 0.29541Z" stroke="#999999" stroke-width="0.590621" stroke-linejoin="round"/>
<path d="M33.2306 38.3258V47.6907L0.295319 28.6756V19.3105L33.2306 38.3258Z" stroke="#999999" stroke-width="0.590621" stroke-linejoin="round"/>
<path d="M66.1659 19.3105V28.6756L33.2306 47.6907V38.3258L66.1659 19.3105Z" stroke="#999999" stroke-width="0.590621" stroke-linejoin="round"/>
<path d="M33.2306 0.29541L66.1659 19.3106" stroke="#B2B2B2" stroke-width="0.590621" stroke-linecap="round" stroke-linejoin="round"/>
<path d="M33.2306 47.6907L0.295319 28.6755" stroke="#B2B2B2" stroke-width="0.590621" stroke-linecap="round" stroke-linejoin="round"/>
<path d="M66.1659 19.3106L33.2306 38.3258L0.295319 19.3106C20.6757 7.54395 45.7855 7.54393 66.1659 19.3106Z" fill="#E2E2E2"/>
<path d="M33.2311 38.3234L18.1611 12.2334" stroke="#D3D3D3" stroke-width="0.590621" stroke-linejoin="round"/>
<path d="M33.2311 38.3234V10.4834" stroke="#D3D3D3" stroke-width="0.590621" stroke-linejoin="round"/>
<path d="M48.2911 12.2334L33.2311 38.3234" stroke="#D3D3D3" stroke-width="0.590621" stroke-linejoin="round"/>
<path d="M66.1659 19.3106L33.2306 38.3258L0.295319 19.3106C20.6757 7.54395 45.7855 7.54393 66.1659 19.3106Z" stroke="#999999" stroke-width="0.590621" stroke-linejoin="round"/>
<path d="M66.1659 19.3105L33.2306 38.3258" stroke="#B2B2B2" stroke-width="0.590621" stroke-linecap="round" stroke-linejoin="round"/>
<path d="M0.295319 19.3105L33.2306 38.3258" stroke="#B2B2B2" stroke-width="0.590621" stroke-linecap="round" stroke-linejoin="round"/>
</g>
<defs>
<clipPath id="clip0_441_16755">
<rect width="66.4613" height="47.986" fill="white"/>
</clipPath>
</defs>
</svg>
