<svg width="79" height="87" viewBox="0 0 79 87" fill="none" xmlns="http://www.w3.org/2000/svg">
<g clip-path="url(#clip0_144_712)">
<path d="M12.103 66.7059L10.8591 65.9877C4.02754 62.0435 0.509439 55.2298 0.30477 48.3302L0.295288 48.0498V37.8015L12.103 57.341V66.7059Z" fill="#C1C1C1"/>
<path d="M77.9737 19.3105V28.6755L57.7948 40.3258C56.4813 41.1035 55.086 42.05 53.6741 43.2042C49.309 46.7728 46.639 50.8111 45.0384 53.8489V38.3258L77.9737 19.3105Z" fill="#C1C1C1"/>
<path d="M77.9737 19.3105V28.6755L57.7948 40.3258C56.4813 41.1035 55.086 42.05 53.6741 43.2042C49.309 46.7728 46.639 50.8111 45.0384 53.8489V38.3258L77.9737 19.3105Z" stroke="#999999" stroke-width="0.590621" stroke-linejoin="round"/>
<path d="M48.1836 41.0834C48.0155 41.7179 48.0989 42.2979 48.3733 42.7187C48.6476 43.1395 49.1171 43.3967 49.7192 43.388C50.3213 43.3794 50.9398 43.1194 51.4475 42.7128C51.9552 42.3062 52.3476 41.758 52.5084 41.1705C52.8256 39.9902 52.118 39.0049 50.9255 38.9474C50.3292 38.9186 49.7251 39.1352 49.2319 39.5154C48.7381 39.8958 48.3518 40.4489 48.1836 41.0834Z" fill="#EAE0C7" stroke="#DDC89F" stroke-width="0.735936" stroke-linejoin="round"/>
<path d="M71.3064 26.6756C70.9878 27.8645 71.6934 28.8284 72.8824 28.8284C74.0713 28.8284 75.2935 27.8645 75.6121 26.6756C75.9307 25.4866 75.2251 24.5227 74.0361 24.5227C72.8471 24.5227 71.6249 25.4866 71.3064 26.6756Z" fill="#EAE0C7" stroke="#DDC89F" stroke-width="0.735936" stroke-linejoin="round"/>
<path d="M68.2235 29.9556L65.6473 31.4424C64.8922 31.8782 64.0261 32.3781 63.1266 32.8976C62.6767 33.1575 62.2171 33.4237 61.7552 33.6994C61.2934 33.9751 60.8294 34.2604 60.3735 34.5422C59.8472 34.866 59.3337 35.1776 58.8532 35.4873C57.8923 36.1067 57.0671 36.6662 56.4927 37.0552C55.9183 37.4441 55.5798 37.6678 55.5798 37.6678" stroke="#D3D3D3" stroke-width="0.590621" stroke-linecap="round" stroke-linejoin="round"/>
<path d="M56.3791 34.8108C56.3791 34.8108 56.0392 35.6106 55.7074 36.4004C55.3756 37.1902 55.0505 37.9649 55.0505 37.9649L57.5988 38.4105" stroke="#D3D3D3" stroke-width="0.590621" stroke-linecap="round" stroke-linejoin="round"/>
<path d="M77.9737 19.3106L45.0384 0.29541L12.103 19.3106L10.8591 20.0288C-3.22597 28.1608 -3.22597 48.4909 10.8591 56.6229L12.103 57.3411L45.0384 76.3563L77.9737 57.3411L50.9615 41.7456C48.329 40.2257 48.329 36.426 50.9615 34.9061L77.9737 19.3106Z" fill="#E2E2E2"/>
<path d="M38.9255 3.88574L71.8608 22.901" stroke="#D3D3D3" stroke-width="0.590621" stroke-linejoin="round"/>
<path d="M32.5502 7.4939L65.4855 26.5091" stroke="#D3D3D3" stroke-width="0.590621" stroke-linejoin="round"/>
<path d="M25.8756 11.4141L58.8109 30.4293" stroke="#D3D3D3" stroke-width="0.590621" stroke-linejoin="round"/>
<path d="M19.0466 15.3496L51.982 34.3648" stroke="#D3D3D3" stroke-width="0.590621" stroke-linejoin="round"/>
<path d="M6.74274 55.2644L7.2803 58.5285L4.58685 58.5454" stroke="#D3D3D3" stroke-width="0.590621" stroke-linecap="round" stroke-linejoin="round"/>
<path d="M51.1513 41.9163L18.216 60.9315" stroke="#D3D3D3" stroke-width="0.590621" stroke-linejoin="round"/>
<path d="M57.5266 45.5242L24.5912 64.5394" stroke="#D3D3D3" stroke-width="0.590621" stroke-linejoin="round"/>
<path d="M64.2011 49.4446L31.2658 68.4598" stroke="#D3D3D3" stroke-width="0.590621" stroke-linejoin="round"/>
<path d="M71.0301 53.3799L38.0948 72.3951" stroke="#D3D3D3" stroke-width="0.590621" stroke-linejoin="round"/>
<path d="M12.1031 57.3411V66.7061L45.0384 85.7212V76.3563L12.1031 57.3411Z" fill="#C1C1C1"/>
<path d="M45.0384 76.3563V85.7212L77.9737 66.7061V57.3411L45.0384 76.3563Z" fill="#A3A3A3"/>
<path d="M45.0384 76.3563V85.7212L77.9737 66.7061V57.3411L45.0384 76.3563Z" stroke="#999999" stroke-width="0.590621" stroke-linejoin="round"/>
<path d="M42.2178 78.3562C42.5364 79.5452 41.8308 80.5091 40.6418 80.5091C39.4529 80.5091 38.2307 79.5452 37.9121 78.3562C37.5935 77.1672 38.2991 76.2034 39.4881 76.2034C40.6771 76.2034 41.8993 77.1672 42.2178 78.3562Z" fill="#EAE0C7" stroke="#DDC89F" stroke-width="0.735936" stroke-linejoin="round"/>
<path d="M18.7704 64.7058C19.089 65.8948 18.3834 66.8587 17.1945 66.8587C16.0055 66.8587 14.7833 65.8948 14.4647 64.7058C14.1462 63.5168 14.8518 62.553 16.0407 62.553C17.2297 62.553 18.4519 63.5168 18.7704 64.7058Z" fill="#EAE0C7" stroke="#DDC89F" stroke-width="0.735936" stroke-linejoin="round"/>
<path d="M21.8533 67.9861L34.3843 75.2184" stroke="#D3D3D3" stroke-width="0.590621" stroke-linecap="round" stroke-linejoin="round"/>
<path d="M33.5722 72.4778L34.9324 75.4932L32.3342 76.2034" stroke="#D3D3D3" stroke-width="0.590621" stroke-linecap="round" stroke-linejoin="round"/>
<path d="M77.9737 57.3411L45.0384 76.3563" stroke="#B2B2B2" stroke-width="0.590621" stroke-linecap="round" stroke-linejoin="round"/>
<path d="M45.0384 85.7212L77.9737 66.7061" stroke="#B2B2B2" stroke-width="0.590621" stroke-linecap="round" stroke-linejoin="round"/>
<path d="M12.1031 57.3411V66.7061L45.0384 85.7212V76.3563L12.1031 57.3411Z" stroke="#999999" stroke-width="0.590621" stroke-linejoin="round"/>
<path d="M6.76343 58.028C2.61646 54.0785 0.463586 48.7776 0.30481 43.425" stroke="#D3D3D3" stroke-width="0.590621" stroke-linecap="round" stroke-linejoin="round"/>
<path d="M12.103 66.7059L10.8591 65.9877C4.02754 62.0435 0.509439 55.2298 0.30477 48.3302L0.295288 48.0498V37.8015" stroke="#999999" stroke-width="0.590621" stroke-linejoin="round"/>
<path d="M77.9737 19.3106L45.0384 0.29541L12.103 19.3106L10.8591 20.0288C-3.22597 28.1608 -3.22597 48.4909 10.8591 56.6229L12.103 57.3411L45.0384 76.3563L77.9737 57.3411L50.9615 41.7456C48.329 40.2257 48.329 36.426 50.9615 34.9061L77.9737 19.3106Z" stroke="#999999" stroke-width="0.590621" stroke-linejoin="round"/>
</g>
<defs>
<clipPath id="clip0_144_712">
<rect width="78.269" height="86.0164" fill="white"/>
</clipPath>
</defs>
</svg>
