<svg width="68" height="49" viewBox="0 0 68 49" fill="none" xmlns="http://www.w3.org/2000/svg">
<path d="M33.9353 1L1 20.0152L33.9353 39.0304L66.8706 20.0152L33.9353 1Z" fill="#E2E2E2"/>
<path d="M27.5836 4.70459L60.5189 23.7198" stroke="#D3D3D3" stroke-width="0.590621" stroke-linejoin="round"/>
<path d="M21.2083 8.31274L54.1436 27.328" stroke="#D3D3D3" stroke-width="0.590621" stroke-linejoin="round"/>
<path d="M14.5337 12.2329L47.469 31.2481" stroke="#D3D3D3" stroke-width="0.590621" stroke-linejoin="round"/>
<path d="M7.70471 16.1685L40.64 35.1837" stroke="#D3D3D3" stroke-width="0.590621" stroke-linejoin="round"/>
<path d="M1 20.0151V29.3801L33.9353 48.3953V39.0304L1 20.0151Z" fill="#C1C1C1"/>
<path d="M33.9354 39.0304V48.3953L66.8707 29.3801V20.0151L33.9354 39.0304Z" fill="#A3A3A3"/>
<path d="M33.9353 1L1 20.0152L33.9353 39.0304L66.8706 20.0152L33.9353 1Z" stroke="#999999" stroke-width="0.590621" stroke-linejoin="round"/>
<path d="M33.9354 39.0304V48.3953L66.8707 29.3801V20.0151L33.9354 39.0304Z" stroke="#999999" stroke-width="0.590621" stroke-linejoin="round"/>
<path d="M36.7812 41.5076C36.4626 42.6966 37.1682 43.6604 38.3572 43.6604C39.5462 43.6604 40.7683 42.6966 41.0869 41.5076C41.4055 40.3186 40.6999 39.3547 39.5109 39.3547C38.3219 39.3547 37.0998 40.3186 36.7812 41.5076Z" fill="#EAE0C7" stroke="#DDC89F" stroke-width="0.735936" stroke-linejoin="round"/>
<path d="M60.2285 27.8574C59.9099 29.0464 60.6155 30.0103 61.8044 30.0103C62.9934 30.0103 64.2156 29.0464 64.5342 27.8574C64.8527 26.6685 64.1471 25.7046 62.9582 25.7046C61.7692 25.7046 60.547 26.6685 60.2285 27.8574Z" fill="#EAE0C7" stroke="#DDC89F" stroke-width="0.735936" stroke-linejoin="round"/>
<path d="M57.1457 31.1375L44.6146 38.3698" stroke="#D3D3D3" stroke-width="0.590621" stroke-linecap="round" stroke-linejoin="round"/>
<path d="M45.4267 35.6292L44.0665 38.6446L46.6647 39.3548" stroke="#D3D3D3" stroke-width="0.590621" stroke-linecap="round" stroke-linejoin="round"/>
<path d="M66.8707 20.0151L33.9354 39.0304" stroke="#B2B2B2" stroke-width="0.590621" stroke-linecap="round" stroke-linejoin="round"/>
<path d="M33.9353 1L1 20.0152" stroke="#B2B2B2" stroke-width="0.590621" stroke-linecap="round" stroke-linejoin="round"/>
<path d="M33.9354 48.3953L66.8707 29.3801" stroke="#B2B2B2" stroke-width="0.590621" stroke-linecap="round" stroke-linejoin="round"/>
<path d="M1 20.0151V29.3801L33.9353 48.3953V39.0304L1 20.0151Z" stroke="#999999" stroke-width="0.590621" stroke-linejoin="round"/>
</svg>
