<svg width="67" height="48" viewBox="0 0 67 48" fill="none" xmlns="http://www.w3.org/2000/svg">
<g clip-path="url(#clip0_456_12083)">
<path d="M33.2306 0.29541L0.295319 19.3106L33.2306 38.3258L66.166 19.3106L33.2306 0.29541Z" fill="#E2E2E2"/>
<path d="M39.3436 3.88574L6.40823 22.901" stroke="#D3D3D3" stroke-width="0.590621" stroke-linejoin="round"/>
<path d="M45.7188 7.49365L12.7835 26.5089" stroke="#D3D3D3" stroke-width="0.590621" stroke-linejoin="round"/>
<path d="M52.3934 11.4141L19.4581 30.4293" stroke="#D3D3D3" stroke-width="0.590621" stroke-linejoin="round"/>
<path d="M59.2224 15.3496L26.287 34.3648" stroke="#D3D3D3" stroke-width="0.590621" stroke-linejoin="round"/>
<path d="M66.1659 19.3106L33.2306 0.29541L0.295319 19.3106C20.6757 31.0773 45.7855 31.0773 66.1659 19.3106Z" fill="#E2E2E2"/>
<path d="M18.1611 26.3879L33.2311 0.297852" stroke="#D3D3D3" stroke-width="0.590621" stroke-linejoin="round"/>
<path d="M33.2311 28.1379V0.297852" stroke="#D3D3D3" stroke-width="0.590621" stroke-linejoin="round"/>
<path d="M33.2311 0.297852L48.2911 26.3879" stroke="#D3D3D3" stroke-width="0.590621" stroke-linejoin="round"/>
<path d="M0.301025 19.3105L33.2363 38.3258" stroke="#B2B2B2" stroke-width="0.590621" stroke-linecap="round" stroke-linejoin="round"/>
<path d="M66.1659 19.3106L33.2306 0.29541L0.295319 19.3106C20.6757 31.0773 45.7855 31.0773 66.1659 19.3106Z" stroke="#999999" stroke-width="0.590621" stroke-linejoin="round"/>
<path d="M0.295319 19.3105V28.6756L33.2306 47.6907V38.3258L0.295319 19.3105Z" fill="#C1C1C1"/>
<path d="M33.2306 38.3258V47.6907L66.1659 28.6756V19.3105L33.2306 38.3258Z" fill="#A3A3A3"/>
<path d="M33.2306 0.29541L0.295319 19.3106L33.2306 38.3258L66.166 19.3106L33.2306 0.29541Z" stroke="#999999" stroke-width="0.590621" stroke-linejoin="round"/>
<path d="M33.2306 38.3258V47.6907L66.1659 28.6756V19.3105L33.2306 38.3258Z" stroke="#999999" stroke-width="0.590621" stroke-linejoin="round"/>
<path d="M30.4101 40.3257C30.7287 41.5147 30.0231 42.4786 28.8341 42.4786C27.6451 42.4786 26.4229 41.5147 26.1044 40.3257C25.7858 39.1367 26.4914 38.1729 27.6804 38.1729C28.8693 38.1729 30.0915 39.1367 30.4101 40.3257Z" fill="#EAE0C7" stroke="#DDC89F" stroke-width="0.735936" stroke-linejoin="round"/>
<path d="M6.96268 26.6753C7.28127 27.8643 6.57567 28.8282 5.38668 28.8282C4.19769 28.8282 2.97556 27.8643 2.65697 26.6753C2.33838 25.4863 3.04398 24.5225 4.23297 24.5225C5.42196 24.5225 6.64409 25.4863 6.96268 26.6753Z" fill="#EAE0C7" stroke="#DDC89F" stroke-width="0.735936" stroke-linejoin="round"/>
<path d="M10.0455 29.9556L22.5766 37.1879" stroke="#D3D3D3" stroke-width="0.590621" stroke-linecap="round" stroke-linejoin="round"/>
<path d="M21.7644 34.4473L23.1247 37.4627L20.5265 38.1729" stroke="#D3D3D3" stroke-width="0.590621" stroke-linecap="round" stroke-linejoin="round"/>
<path d="M0.295319 19.3105V28.6756L33.2306 47.6907V38.3258L0.295319 19.3105Z" stroke="#999999" stroke-width="0.590621" stroke-linejoin="round"/>
<path d="M66.1659 19.3105L33.2306 38.3258" stroke="#B2B2B2" stroke-width="0.590621" stroke-linecap="round" stroke-linejoin="round"/>
<path d="M33.2306 0.29541L0.295319 19.3106" stroke="#B2B2B2" stroke-width="0.590621" stroke-linecap="round" stroke-linejoin="round"/>
<path d="M33.2306 47.6905L66.1659 28.6753" stroke="#B2B2B2" stroke-width="0.590621" stroke-linecap="round" stroke-linejoin="round"/>
</g>
<defs>
<clipPath id="clip0_456_12083">
<rect width="66.4613" height="47.986" fill="white"/>
</clipPath>
</defs>
</svg>
