<svg width="67" height="48" viewBox="0 0 67 48" fill="none" xmlns="http://www.w3.org/2000/svg">
<g clip-path="url(#clip0_441_16884)">
<path d="M33.2306 0.29541L66.1659 19.3106L33.2306 38.3258L0.295311 19.3106L33.2306 0.29541Z" fill="#E2E2E2"/>
<path d="M27.1177 3.88574L60.053 22.901" stroke="#D3D3D3" stroke-width="0.590621" stroke-linejoin="round"/>
<path d="M20.7424 7.49365L53.6778 26.5089" stroke="#D3D3D3" stroke-width="0.590621" stroke-linejoin="round"/>
<path d="M14.0679 11.4141L47.0032 30.4293" stroke="#D3D3D3" stroke-width="0.590621" stroke-linejoin="round"/>
<path d="M7.2389 15.3496L40.1742 34.3648" stroke="#D3D3D3" stroke-width="0.590621" stroke-linejoin="round"/>
<path d="M66.1659 19.3105V28.6756L33.2306 47.6907V38.3258L66.1659 19.3105Z" fill="#A3A3A3"/>
<path d="M33.2306 38.3258V47.6907L0.295311 28.6756V19.3105L33.2306 38.3258Z" fill="#C1C1C1"/>
<path d="M33.2306 0.29541L66.1659 19.3106L33.2306 38.3258L0.295311 19.3106L33.2306 0.29541Z" stroke="#999999" stroke-width="0.590621" stroke-linejoin="round"/>
<path d="M33.2306 38.3258V47.6907L0.295311 28.6756V19.3105L33.2306 38.3258Z" stroke="#999999" stroke-width="0.590621" stroke-linejoin="round"/>
<path d="M66.1659 19.3105V28.6756L33.2306 47.6907V38.3258L66.1659 19.3105Z" stroke="#999999" stroke-width="0.590621" stroke-linejoin="round"/>
<path d="M33.2306 47.6905L0.295311 28.6753" stroke="#B2B2B2" stroke-width="0.590621" stroke-linecap="round" stroke-linejoin="round"/>
<path d="M66.1658 19.3054L58.056 23.9954L33.2259 38.3254C27.4659 34.9954 23.9759 29.7053 22.7559 23.9954C22.4158 22.4553 22.2559 20.8853 22.2559 19.3154C22.2559 11.9155 25.9158 4.51538 33.2259 0.29541L66.1658 19.3054Z" fill="#E2E2E2"/>
<path d="M66.166 19.3057L25.166 30.2957" stroke="#D3D3D3" stroke-width="0.590621" stroke-linejoin="round"/>
<path d="M66.1659 19.3057H22.256" stroke="#D3D3D3" stroke-width="0.590621" stroke-linejoin="round"/>
<path d="M66.166 19.3057L25.166 8.32568" stroke="#D3D3D3" stroke-width="0.590621" stroke-linejoin="round"/>
<path d="M66.1658 19.3054L58.056 23.9954L33.2259 38.3254C27.4659 34.9954 23.9759 29.7053 22.7559 23.9954C22.4158 22.4553 22.2559 20.8853 22.2559 19.3154C22.2559 11.9155 25.9158 4.51538 33.2259 0.29541L66.1658 19.3054Z" stroke="#999999" stroke-width="0.590621" stroke-linejoin="round"/>
<path d="M0.295311 19.3105L33.2306 38.3258" stroke="#B2B2B2" stroke-width="0.590621" stroke-linecap="round" stroke-linejoin="round"/>
<path d="M66.1659 19.3105L33.2306 38.3258" stroke="#B2B2B2" stroke-width="0.590621" stroke-linecap="round" stroke-linejoin="round"/>
<path d="M33.2306 0.29541L66.1659 19.3106" stroke="#B2B2B2" stroke-width="0.590621" stroke-linecap="round" stroke-linejoin="round"/>
</g>
<defs>
<clipPath id="clip0_441_16884">
<rect width="66.4613" height="47.986" fill="white"/>
</clipPath>
</defs>
</svg>
