<svg width="67" height="48" viewBox="0 0 67 48" fill="none" xmlns="http://www.w3.org/2000/svg">
<g clip-path="url(#clip0_441_16814)">
<g clip-path="url(#clip1_441_16814)">
<path d="M66.1659 19.0152L33.2306 38.0304L0.295319 19.0152C20.6757 7.24854 45.7855 7.24852 66.1659 19.0152Z" fill="#E2E2E2"/>
<path d="M66.1659 19.0151V28.3801L33.2306 47.3953V38.0304L66.1659 19.0151Z" fill="#A3A3A3"/>
<path d="M33.2306 38.0304V47.3953L0.295319 28.3801V19.0151L33.2306 38.0304Z" fill="#C1C1C1"/>
<path d="M33.2306 38.0304V47.3953L0.295319 28.3801V19.0151L33.2306 38.0304Z" stroke="#999999" stroke-width="0.590621" stroke-linejoin="round"/>
<path d="M66.1659 19.0151V28.3801L33.2306 47.3953V38.0304L66.1659 19.0151Z" stroke="#999999" stroke-width="0.590621" stroke-linejoin="round"/>
<path d="M33.2311 38.028L18.1611 11.938" stroke="#D3D3D3" stroke-width="0.590621" stroke-linejoin="round"/>
<path d="M33.2311 38.028V10.188" stroke="#D3D3D3" stroke-width="0.590621" stroke-linejoin="round"/>
<path d="M48.2911 11.938L33.2311 38.028" stroke="#D3D3D3" stroke-width="0.590621" stroke-linejoin="round"/>
<path d="M66.1659 19.0152L33.2306 38.0304L0.295319 19.0152C20.6757 7.24854 45.7855 7.24852 66.1659 19.0152Z" stroke="#999999" stroke-width="0.590621" stroke-linejoin="round"/>
<path d="M0.295319 19.0151L33.2306 38.0304" stroke="#B2B2B2" stroke-width="0.590621" stroke-linecap="round" stroke-linejoin="round"/>
<path d="M33.2306 47.3953L0.295319 28.3801" stroke="#B2B2B2" stroke-width="0.590621" stroke-linecap="round" stroke-linejoin="round"/>
<path d="M0.295319 19.0151L33.2306 38.0304" stroke="#B2B2B2" stroke-width="0.590621" stroke-linecap="round" stroke-linejoin="round"/>
<path d="M66.1659 19.0151L33.2306 38.0303" stroke="#B2B2B2" stroke-width="0.590621" stroke-linecap="round" stroke-linejoin="round"/>
</g>
</g>
<defs>
<clipPath id="clip0_441_16814">
<rect width="66.4613" height="47.986" fill="white"/>
</clipPath>
<clipPath id="clip1_441_16814">
<rect width="66.4613" height="47.6907" fill="white"/>
</clipPath>
</defs>
</svg>
