<svg width="67" height="48" viewBox="0 0 67 48" fill="none" xmlns="http://www.w3.org/2000/svg">
<g clip-path="url(#clip0_441_16711)">
<path d="M33.2306 0.29541L66.166 19.3106L33.2306 38.3258L0.295319 19.3106L33.2306 0.29541Z" fill="#E2E2E2"/>
<path d="M27.1177 3.88574L60.053 22.901" stroke="#D3D3D3" stroke-width="0.590621" stroke-linejoin="round"/>
<path d="M20.7425 7.4939L53.6778 26.5091" stroke="#D3D3D3" stroke-width="0.590621" stroke-linejoin="round"/>
<path d="M14.0679 11.4141L47.0032 30.4293" stroke="#D3D3D3" stroke-width="0.590621" stroke-linejoin="round"/>
<path d="M7.23889 15.3496L40.1742 34.3648" stroke="#D3D3D3" stroke-width="0.590621" stroke-linejoin="round"/>
<path d="M66.1659 19.3105V28.6756L33.2306 47.6907V38.3258L66.1659 19.3105Z" fill="#A3A3A3"/>
<path d="M33.2306 38.3258V47.6907L0.295319 28.6756V19.3105L33.2306 38.3258Z" fill="#C1C1C1"/>
<path d="M33.2306 0.29541L66.166 19.3106L33.2306 38.3258L0.295319 19.3106L33.2306 0.29541Z" stroke="#999999" stroke-width="0.590621" stroke-linejoin="round"/>
<path d="M33.2306 38.3258V47.6907L0.295319 28.6756V19.3105L33.2306 38.3258Z" stroke="#999999" stroke-width="0.590621" stroke-linejoin="round"/>
<path d="M36.0512 40.3257C35.7326 41.5147 36.4382 42.4786 37.6272 42.4786C38.8162 42.4786 40.0383 41.5147 40.3569 40.3257C40.6755 39.1367 39.9699 38.1729 38.7809 38.1729C37.5919 38.1729 36.3698 39.1367 36.0512 40.3257Z" fill="#EAE0C7" stroke="#DDC89F" stroke-width="0.735936" stroke-linejoin="round"/>
<path d="M59.4986 26.6756C59.18 27.8645 59.8856 28.8284 61.0746 28.8284C62.2635 28.8284 63.4857 27.8645 63.8043 26.6756C64.1229 25.4866 63.4173 24.5227 62.2283 24.5227C61.0393 24.5227 59.8171 25.4866 59.4986 26.6756Z" fill="#EAE0C7" stroke="#DDC89F" stroke-width="0.735936" stroke-linejoin="round"/>
<path d="M43.8323 37.0455L56.3633 29.8132" stroke="#C4C4C4" stroke-width="0.590621" stroke-linecap="round" stroke-linejoin="round"/>
<path d="M55.5512 32.554L56.9114 29.5386L54.3132 28.8284" stroke="#C4C4C4" stroke-width="0.590621" stroke-linecap="round" stroke-linejoin="round"/>
<path d="M66.1659 19.3105V28.6756L33.2306 47.6907V38.3258L66.1659 19.3105Z" stroke="#999999" stroke-width="0.590621" stroke-linejoin="round"/>
<path d="M0.295319 19.3105L33.2306 38.3258" stroke="#B2B2B2" stroke-width="0.590621" stroke-linecap="round" stroke-linejoin="round"/>
<path d="M33.2306 0.29541L66.1659 19.3106" stroke="#B2B2B2" stroke-width="0.590621" stroke-linecap="round" stroke-linejoin="round"/>
<path d="M33.2306 47.6907L0.295319 28.6755" stroke="#B2B2B2" stroke-width="0.590621" stroke-linecap="round" stroke-linejoin="round"/>
</g>
<defs>
<clipPath id="clip0_441_16711">
<rect width="66.4613" height="47.986" fill="white"/>
</clipPath>
</defs>
</svg>
