<svg width="35" height="40" viewBox="0 0 35 40" fill="none" xmlns="http://www.w3.org/2000/svg">
<g clip-path="url(#clip0_144_592)">
<path d="M17.345 0.29541L0.295288 10.1391L17.345 19.9828L34.3948 10.1391L17.345 0.29541Z" fill="#E2E2E2"/>
<path d="M0.295288 10.1389V29.8263L17.345 39.6699V19.9826L0.295288 10.1389Z" fill="#C1C1C1"/>
<path d="M17.3451 19.9826V39.6699L34.3948 29.8263V10.1389L17.3451 19.9826Z" fill="#A3A3A3"/>
<path d="M17.345 0.29541L0.295288 10.1391L17.345 19.9828L34.3948 10.1391L17.345 0.29541Z" stroke="#939393" stroke-width="0.590621" stroke-linejoin="round"/>
<path d="M0.295288 10.1389V29.8263L17.345 39.6699V19.9826L0.295288 10.1389Z" stroke="#939393" stroke-width="0.590621" stroke-linejoin="round"/>
<path d="M17.3451 19.9826V39.6699L34.3948 29.8263V10.1389L17.3451 19.9826Z" stroke="#939393" stroke-width="0.590621" stroke-linejoin="round"/>
<g style="mix-blend-mode:overlay">
<path d="M34.5425 9.88319L17.4927 0.0395093C17.4012 -0.0131698 17.2889 -0.0131698 17.1974 0.0395093L0.147655 9.88319C0.056332 9.93587 0 10.0333 0 10.1389V29.8263C0 29.9318 0.056332 30.0293 0.147655 30.082L17.1974 39.9256C17.2432 39.952 17.2941 39.9652 17.3451 39.9652C17.396 39.9652 17.447 39.952 17.4927 39.9256L34.5425 30.082C34.6338 30.0293 34.6901 29.9318 34.6901 29.8263V10.1389C34.6901 10.0333 34.6338 9.93587 34.5425 9.88319Z" fill="#4DC9FF"/>
</g>
</g>
<defs>
<clipPath id="clip0_144_592">
<rect width="34.6901" height="39.9653" fill="white"/>
</clipPath>
</defs>
</svg>
