<svg width="35" height="41" viewBox="0 0 35 41" fill="none" xmlns="http://www.w3.org/2000/svg">
<g clip-path="url(#clip0_144_602)">
<path d="M17.345 1.22607L0.295288 11.0698L17.345 20.9134L34.3948 11.0698L17.345 1.22607Z" fill="#E2E2E2"/>
<path d="M0.295288 11.0696V30.7569L17.345 40.6006V20.9133L0.295288 11.0696Z" fill="#C1C1C1"/>
<path d="M17.3451 20.9133V40.6006L34.3948 30.7569V11.0696L17.3451 20.9133Z" fill="#A3A3A3"/>
<path d="M17.345 1.22607L0.295288 11.0698L17.345 20.9134L34.3948 11.0698L17.345 1.22607Z" stroke="#939393" stroke-width="0.590621" stroke-linejoin="round"/>
<path d="M0.295288 11.0696V30.7569L17.345 40.6006V20.9133L0.295288 11.0696Z" stroke="#939393" stroke-width="0.590621" stroke-linejoin="round"/>
<path d="M17.3451 20.9133V40.6006L34.3948 30.7569V11.0696L17.3451 20.9133Z" stroke="#939393" stroke-width="0.590621" stroke-linejoin="round"/>
<g style="mix-blend-mode:overlay">
<path d="M34.5425 10.8139L17.4927 0.970173C17.4012 0.917494 17.2889 0.917494 17.1974 0.970173L0.147655 10.8139C0.056332 10.8665 0 10.964 0 11.0696V30.7569C0 30.8625 0.056332 30.9599 0.147655 31.0126L17.1974 40.8563C17.2432 40.8826 17.2941 40.8959 17.3451 40.8959C17.396 40.8959 17.447 40.8826 17.4927 40.8563L34.5425 31.0126C34.6338 30.9599 34.6901 30.8625 34.6901 30.7569V11.0696C34.6901 10.964 34.6338 10.8665 34.5425 10.8139Z" fill="#FF8155"/>
</g>
</g>
<defs>
<clipPath id="clip0_144_602">
<rect width="34.6901" height="39.9653" fill="white" transform="translate(0 0.930664)"/>
</clipPath>
</defs>
</svg>
