<svg width="35" height="41" viewBox="0 0 35 41" fill="none" xmlns="http://www.w3.org/2000/svg">
<g clip-path="url(#clip0_144_594)">
<path d="M17.345 1.26074L0.295288 11.1044L17.345 20.9481L34.3948 11.1044L17.345 1.26074Z" fill="#E2E2E2"/>
<path d="M0.295288 11.1042V30.7916L17.345 40.6353V20.9479L0.295288 11.1042Z" fill="#C1C1C1"/>
<path d="M17.3451 20.9479V40.6353L34.3948 30.7916V11.1042L17.3451 20.9479Z" fill="#A3A3A3"/>
<path d="M17.345 1.26074L0.295288 11.1044L17.345 20.9481L34.3948 11.1044L17.345 1.26074Z" stroke="#939393" stroke-width="0.590621" stroke-linejoin="round"/>
<path d="M0.295288 11.1042V30.7916L17.345 40.6353V20.9479L0.295288 11.1042Z" stroke="#939393" stroke-width="0.590621" stroke-linejoin="round"/>
<path d="M17.3451 20.9479V40.6353L34.3948 30.7916V11.1042L17.3451 20.9479Z" stroke="#939393" stroke-width="0.590621" stroke-linejoin="round"/>
<g style="mix-blend-mode:overlay">
<path d="M34.5425 10.8485L17.4927 1.00484C17.4012 0.952162 17.2889 0.952162 17.1974 1.00484L0.147655 10.8485C0.056332 10.9012 0 10.9987 0 11.1042V30.7916C0 30.8971 0.056332 30.9946 0.147655 31.0473L17.1974 40.891C17.2432 40.9173 17.2941 40.9306 17.3451 40.9306C17.396 40.9306 17.447 40.9173 17.4927 40.891L34.5425 31.0473C34.6338 30.9946 34.6901 30.8971 34.6901 30.7916V11.1042C34.6901 10.9987 34.6338 10.9012 34.5425 10.8485Z" fill="#FFC32C"/>
</g>
</g>
<defs>
<clipPath id="clip0_144_594">
<rect width="34.6901" height="39.9653" fill="white" transform="translate(0 0.965332)"/>
</clipPath>
</defs>
</svg>
