<svg width="35" height="41" viewBox="0 0 35 41" fill="none" xmlns="http://www.w3.org/2000/svg">
<g clip-path="url(#clip0_144_610)">
<path d="M17.345 1.19141L0.295288 11.0351L17.345 20.8788L34.3948 11.0351L17.345 1.19141Z" fill="#E2E2E2"/>
<path d="M0.295288 11.0349V30.7223L17.345 40.5659V20.8786L0.295288 11.0349Z" fill="#C1C1C1"/>
<path d="M17.3451 20.8786V40.5659L34.3948 30.7223V11.0349L17.3451 20.8786Z" fill="#A3A3A3"/>
<path d="M17.345 1.19141L0.295288 11.0351L17.345 20.8788L34.3948 11.0351L17.345 1.19141Z" stroke="#939393" stroke-width="0.590621" stroke-linejoin="round"/>
<path d="M0.295288 11.0349V30.7223L17.345 40.5659V20.8786L0.295288 11.0349Z" stroke="#939393" stroke-width="0.590621" stroke-linejoin="round"/>
<path d="M17.3451 20.8786V40.5659L34.3948 30.7223V11.0349L17.3451 20.8786Z" stroke="#939393" stroke-width="0.590621" stroke-linejoin="round"/>
<g style="mix-blend-mode:overlay">
<path d="M34.5425 10.7792L17.4927 0.935505C17.4012 0.882826 17.2889 0.882826 17.1974 0.935505L0.147655 10.7792C0.056332 10.8319 0 10.9293 0 11.0349V30.7222C0 30.8278 0.056332 30.9253 0.147655 30.978L17.1974 40.8216C17.2432 40.848 17.2941 40.8612 17.3451 40.8612C17.396 40.8612 17.447 40.848 17.4927 40.8216L34.5425 30.978C34.6338 30.9253 34.6901 30.8278 34.6901 30.7222V11.0349C34.6901 10.9293 34.6338 10.8319 34.5425 10.7792Z" fill="#52FF52"/>
</g>
</g>
<defs>
<clipPath id="clip0_144_610">
<rect width="34.6901" height="39.9653" fill="white" transform="translate(0 0.895996)"/>
</clipPath>
</defs>
</svg>
