<svg width="20" height="20" viewBox="0 0 20 20" fill="none" xmlns="http://www.w3.org/2000/svg">
<path d="M16.25 1.875H5.625C4.96196 1.875 4.32607 2.13839 3.85723 2.60723C3.38839 3.07607 3.125 3.71196 3.125 4.375V17.5C3.125 17.6658 3.19085 17.8247 3.30806 17.9419C3.42527 18.0592 3.58424 18.125 3.75 18.125H15C15.1658 18.125 15.3247 18.0592 15.4419 17.9419C15.5592 17.8247 15.625 17.6658 15.625 17.5C15.625 17.3342 15.5592 17.1753 15.4419 17.0581C15.3247 16.9408 15.1658 16.875 15 16.875H4.375C4.375 16.5435 4.5067 16.2255 4.74112 15.9911C4.97554 15.7567 5.29348 15.625 5.625 15.625H16.25C16.4158 15.625 16.5747 15.5592 16.6919 15.4419C16.8092 15.3247 16.875 15.1658 16.875 15V2.5C16.875 2.33424 16.8092 2.17527 16.6919 2.05806C16.5747 1.94085 16.4158 1.875 16.25 1.875ZM15.625 14.375H5.625C5.18605 14.3744 4.75477 14.49 4.375 14.7102V4.375C4.375 4.04348 4.5067 3.72554 4.74112 3.49112C4.97554 3.2567 5.29348 3.125 5.625 3.125H15.625V14.375Z" fill="#999999"/>
<path d="M9.59985 10.2204C9.32035 10.2204 9.1611 10.0352 9.1221 9.66468L9.0636 8.78718C9.0506 8.60518 9.08635 8.46543 9.17085 8.36793C9.26185 8.26393 9.3951 8.18918 9.5706 8.14368C9.8566 8.07218 10.0776 7.95843 10.2336 7.80243C10.3896 7.63993 10.4676 7.42868 10.4676 7.16868C10.4676 6.88268 10.3896 6.65843 10.2336 6.49593C10.0841 6.32693 9.8696 6.24243 9.5901 6.24243C9.2391 6.24243 8.98235 6.37568 8.81985 6.64218C8.69635 6.82418 8.58585 6.94118 8.48835 6.99318C8.39085 7.04518 8.26085 7.05818 8.09835 7.03218C7.91635 6.99968 7.7766 6.92493 7.6791 6.80793C7.5881 6.68443 7.58485 6.53493 7.66935 6.35943C7.83835 6.01493 8.0886 5.74193 8.4201 5.54043C8.7581 5.33893 9.1481 5.23818 9.5901 5.23818C9.9931 5.23818 10.3474 5.31618 10.6529 5.47218C10.9649 5.62168 11.2086 5.84268 11.3841 6.13518C11.5596 6.42118 11.6474 6.76568 11.6474 7.16868C11.6474 7.63018 11.5044 8.00393 11.2184 8.28993C10.9389 8.57593 10.5651 8.77743 10.0971 8.89443L10.0581 9.66468C10.0256 10.0352 9.87285 10.2204 9.59985 10.2204ZM9.5901 12.3167C9.3886 12.3167 9.2131 12.2452 9.0636 12.1022C8.9206 11.9592 8.8491 11.7869 8.8491 11.5854C8.8491 11.3774 8.9206 11.2019 9.0636 11.0589C9.2131 10.9159 9.3886 10.8444 9.5901 10.8444C9.7981 10.8444 9.9736 10.9159 10.1166 11.0589C10.2661 11.2019 10.3409 11.3774 10.3409 11.5854C10.3409 11.7869 10.2661 11.9592 10.1166 12.1022C9.9736 12.2452 9.7981 12.3167 9.5901 12.3167Z" fill="#999999"/>
</svg>
