<svg xmlns="http://www.w3.org/2000/svg" width="50" height="47" fill="none"><g clip-path="url(#a)"><path fill="#C1C1C1" d="M6.72 13.787v19.687l17.05 9.844V23.631L6.72 13.787Z"/><path fill="#A3A3A3" d="M23.77 3.943 6.72 13.787l17.05 9.844v19.687l17.05-9.844V13.787L23.77 3.943Z"/><path fill="#D8D8D8" d="M1.295 14.492 23.77 27.468l11.238-13.197L12.533 1.295 1.295 14.492Z"/><path fill="#C1C1C1" d="m23.77 1.516-11.237-.22L35.008 14.27l11.237.221L23.77 1.516Z"/><path fill="#A3A3A3" d="M5.041 16.653c0 1.032-.836 1.395-1.877.794-1.032-.596-1.869-1.925-1.869-2.957l3.746 2.163Z"/><path fill="#E2E2E2" d="M8.787 18.816c0 1.033-.836 1.395-1.877.794-1.033-.596-1.869-1.924-1.869-2.957l3.746 2.163Z"/><path fill="#A3A3A3" d="M12.533 20.979c0 1.032-.837 1.394-1.878.793-1.032-.596-1.868-1.924-1.868-2.956l3.746 2.163Z"/><path fill="#E2E2E2" d="M16.279 23.142c0 1.032-.837 1.395-1.878.793-1.032-.596-1.868-1.924-1.868-2.956l3.746 2.163Z"/><path fill="#A3A3A3" d="M20.024 25.305c0 1.032-.836 1.395-1.877.794-1.032-.597-1.868-1.925-1.868-2.957l3.745 2.163Z"/><path fill="#E2E2E2" d="M23.77 27.468c0 1.032-.836 1.395-1.877.794-1.032-.596-1.869-1.925-1.869-2.957l3.746 2.163Z"/><path fill="#C1C1C1" d="M6.72 13.787v19.687l17.05 9.844V23.631L6.72 13.787Z"/><path fill="#A3A3A3" d="M23.77 3.943 6.72 13.787l17.05 9.844v19.687l17.05-9.844V13.787L23.77 3.943Z"/><path fill="#D8D8D8" d="M1.295 14.492 23.77 27.468l11.238-13.197L12.533 1.295 1.295 14.492Z"/><path fill="#C1C1C1" d="m23.77 1.516-11.237-.22L35.008 14.27l11.237.221L23.77 1.516Z"/><path fill="#A3A3A3" d="M5.041 16.653c0 1.032-.836 1.395-1.877.794-1.032-.596-1.869-1.925-1.869-2.957l3.746 2.163Z"/><path fill="#E2E2E2" d="M8.787 18.816c0 1.033-.836 1.395-1.877.794-1.033-.596-1.869-1.924-1.869-2.957l3.746 2.163Z"/><path fill="#A3A3A3" d="M12.533 20.979c0 1.032-.837 1.394-1.878.793-1.032-.596-1.868-1.924-1.868-2.956l3.746 2.163Z"/><path fill="#E2E2E2" d="M16.279 23.142c0 1.032-.837 1.395-1.878.793-1.032-.596-1.868-1.924-1.868-2.956l3.746 2.163Z"/><path fill="#A3A3A3" d="M20.024 25.305c0 1.032-.836 1.395-1.877.794-1.032-.597-1.868-1.925-1.868-2.957l3.745 2.163Z"/><path fill="#E2E2E2" d="M23.77 27.468c0 1.032-.836 1.395-1.877.794-1.032-.596-1.869-1.925-1.869-2.957l3.746 2.163Z"/><path stroke="#636363" stroke-linejoin="round" stroke-width=".591" d="M23.773 27.47v15.85l-17.05-9.85V19.48M6.723 17.63v-.01M40.823 14.38v19.09l-17.05 9.85V27.47M1.295 14.492 23.77 27.468l11.238-13.197L12.533 1.295 1.295 14.492Z"/><path stroke="#636363" stroke-linejoin="round" stroke-width=".591" d="m23.77 1.516-11.237-.22L35.008 14.27l11.237.221L23.77 1.516ZM5.041 16.653c0 1.032-.836 1.395-1.877.794-1.032-.596-1.869-1.925-1.869-2.957l3.746 2.163ZM8.787 18.816c0 1.033-.836 1.395-1.877.794-1.033-.596-1.869-1.924-1.869-2.957l3.746 2.163Z"/><path stroke="#636363" stroke-linejoin="round" stroke-width=".591" d="M12.533 20.979c0 1.032-.837 1.394-1.878.793-1.032-.596-1.868-1.924-1.868-2.956l3.746 2.163ZM16.279 23.142c0 1.032-.837 1.395-1.878.793-1.032-.596-1.868-1.924-1.868-2.956l3.746 2.163ZM20.024 25.305c0 1.032-.836 1.395-1.877.794-1.032-.597-1.868-1.925-1.868-2.957l3.745 2.163Z"/><path stroke="#636363" stroke-linejoin="round" stroke-width=".591" d="M23.77 27.468c0 1.032-.836 1.395-1.877.794-1.032-.596-1.869-1.925-1.869-2.957l3.746 2.163Z"/><path fill="#5086FF" d="M46.392 14.236 23.917 1.261a.3.3 0 0 0-.141-.04L12.539 1c-.011.001-.017.008-.027.01-.036.002-.064.018-.097.033-.029.013-.058.025-.08.045-.008.008-.02.007-.027.016L1.071 14.3c-.006.006-.007.015-.012.023a.283.283 0 0 0-.028.053.282.282 0 0 0-.022.083c-.002.01-.009.02-.009.03 0 .015.004.031.005.046V14.545c.027 1.138.898 2.515 2.011 3.157.378.219.752.33 1.088.33.23 0 .443-.052.627-.159.086-.05.16-.114.229-.183.28.74.814 1.464 1.468 1.95v13.83c0 .105.056.203.148.256l17.05 9.85a.295.295 0 0 0 .294 0l17.051-9.85a.294.294 0 0 0 .148-.256V14.687l5.12.1h.006a.295.295 0 0 0 .148-.55Z" style="mix-blend-mode:overlay"/></g><defs><clipPath id="a"><path fill="#fff" d="M1 1h45.54v42.615H1z"/></clipPath></defs></svg>
