<svg xmlns="http://www.w3.org/2000/svg" width="39" height="44" fill="none"><g clip-path="url(#a)" filter="url(#b)"><path fill="#E2E2E2" d="m18.345 6.105-17.05 9.844 17.05 9.843 17.05-9.843-17.05-9.844Z"/><path fill="#C1C1C1" d="M1.295 15.949v14.877l17.05 9.844V25.792L1.295 15.95Z"/><path fill="#A3A3A3" d="M18.345 25.792V40.67l17.05-9.844V15.95l-17.05 9.843Z"/><path stroke="#636363" stroke-linejoin="round" stroke-width=".591" d="m18.345 6.105-17.05 9.844 17.05 9.843 17.05-9.843-17.05-9.844Z"/><path stroke="#636363" stroke-linejoin="round" stroke-width=".591" d="M1.295 15.949v14.877l17.05 9.844V25.792L1.295 15.95Z"/><path stroke="#636363" stroke-linejoin="round" stroke-width=".591" d="M18.345 25.792V40.67l17.05-9.844V15.95l-17.05 9.843Z"/><path fill="#fff" d="m19.085 12.127-8.295 4.789 4.945 2.855h3.74l6.425-3.71-6.815-3.934Z"/><path stroke="#636363" stroke-linecap="round" stroke-miterlimit="10" stroke-width=".25" d="m22.1 15.967-3.545-2.047M20.924 16.605 17.38 14.56M18.99 16.858l-2.844-1.642"/><path stroke="#636363" stroke-linejoin="round" stroke-width=".591" d="m17.605 18.691 1.87 1.08h-3.74l1.87-1.08Z"/><path stroke="#636363" stroke-linejoin="round" stroke-width=".591" d="m19.085 12.127-8.295 4.789 4.945 2.855h3.74l6.425-3.71-6.815-3.934Z"/><path fill="#A3A3A3" d="m26.735 1.856-2.092-.56-2.316 8.644 2.092.56 2.316-8.644Z"/><path stroke="#636363" stroke-linejoin="round" stroke-width=".591" d="m26.735 1.856-2.092-.56-2.316 8.644 2.092.56 2.316-8.644Z"/><path fill="#C1C1C1" d="m22.704 12.715-.377-2.775 2.092.56-1.715 2.215Z"/><path stroke="#636363" stroke-linejoin="round" stroke-width=".591" d="m22.704 12.715-.377-2.775 2.092.56-1.715 2.215Z"/><path fill="#9850FF" d="M35.542 15.693 24.97 9.59l2.051-7.656a.295.295 0 0 0-.209-.362l-2.092-.56a.293.293 0 0 0-.361.209l-1.86 6.942-4.005-2.312a.295.295 0 0 0-.295 0l-17.05 9.843A.294.294 0 0 0 1 15.95v14.877c0 .106.056.203.148.256l17.05 9.844a.295.295 0 0 0 .295 0l17.05-9.844a.294.294 0 0 0 .147-.256V15.95a.294.294 0 0 0-.148-.256Z" style="mix-blend-mode:overlay"/></g><defs><clipPath id="a"><path fill="#fff" d="M1 1h34.69v39.965H1z"/></clipPath><filter id="b" width="38.69" height="43.965" x="0" y="0" color-interpolation-filters="sRGB" filterUnits="userSpaceOnUse"><feFlood flood-opacity="0" result="BackgroundImageFix"/><feColorMatrix in="SourceAlpha" result="hardAlpha" values="0 0 0 0 0 0 0 0 0 0 0 0 0 0 0 0 0 0 127 0"/><feOffset dx="1" dy="1"/><feGaussianBlur stdDeviation="1"/><feColorMatrix values="0 0 0 0 0 0 0 0 0 0 0 0 0 0 0 0 0 0 0.12 0"/><feBlend in2="BackgroundImageFix" result="effect1_dropShadow_150_4577"/><feBlend in="SourceGraphic" in2="effect1_dropShadow_150_4577" result="shape"/></filter></defs></svg>