<svg width="34" height="40" viewBox="0 0 34 40" fill="none" xmlns="http://www.w3.org/2000/svg">
<g clip-path="url(#clip0_457_12196)">
<path d="M0.295349 17.2329L17.3452 27.0766L23.9361 23.2712L6.88634 13.4275L0.295349 17.2329Z" fill="#848484"/>
<path d="M0.295349 17.2329L17.3452 27.0766L23.9361 23.2712L6.88634 13.4275L0.295349 17.2329Z" stroke="#636363" stroke-width="0.590621" stroke-linejoin="round"/>
<path d="M13.3389 14.0977L4.12506 19.4171L21.1749 29.2608L30.3884 23.9413L13.3389 14.0977Z" fill="white"/>
<path d="M13.3389 14.0977L4.12506 19.4171L21.1749 29.2608L30.3884 23.9413L13.3389 14.0977Z" stroke="#636363" stroke-width="0.590621" stroke-linejoin="round"/>
<path d="M17.3451 27.0768V38.9513L23.9361 35.1459V23.2715L17.3451 27.0768Z" fill="#A3A3A3"/>
<path d="M33.1497 10.1392L23.9362 15.4586V35.1459L33.1497 29.8265V10.1392Z" fill="#A3A3A3"/>
<path d="M16.1001 0.29541L6.88635 5.61488L23.9362 15.4586L33.1497 10.1391L16.1001 0.29541Z" fill="#E2E2E2"/>
<path d="M23.9362 15.4584L6.88635 5.61475V13.4276L23.9362 23.2712V15.4584Z" fill="#C1C1C1"/>
<path d="M0.295288 17.2329V29.1075L17.3451 38.9511V27.0766L0.295288 17.2329Z" fill="#C1C1C1"/>
<path d="M7.5896 24.3083V25.7957L10.0509 27.2167V25.7294L7.5896 24.3083Z" fill="#848484"/>
<path d="M14.1806 11.9734V13.4607L16.6419 14.8817V13.3944L14.1806 11.9734Z" fill="#848484"/>
<path d="M24.416 35.7459C24.2156 36.4937 24.6594 37.0999 25.4072 37.0999C26.155 37.0999 26.9237 36.4937 27.124 35.7459C27.3244 34.9981 26.8806 34.3918 26.1328 34.3918C25.385 34.3918 24.6163 34.9981 24.416 35.7459Z" fill="#848484"/>
<path d="M30.437 32.128C30.2367 32.8758 30.6804 33.482 31.4283 33.482C32.1761 33.482 32.9447 32.8758 33.1451 32.128C33.3455 31.3801 32.9017 30.7739 32.1539 30.7739C31.4061 30.7739 30.6374 31.3801 30.437 32.128Z" fill="#848484"/>
<path d="M17.3451 27.0768V38.9513L23.9361 35.1459V23.2715L17.3451 27.0768Z" stroke="#636363" stroke-width="0.590621" stroke-linejoin="round"/>
<path d="M33.1497 10.1392L23.9362 15.4586V35.1459L33.1497 29.8265V10.1392Z" stroke="#636363" stroke-width="0.590621" stroke-linejoin="round"/>
<path d="M16.1001 0.29541L6.88635 5.61488L23.9362 15.4586L33.1497 10.1391L16.1001 0.29541Z" stroke="#636363" stroke-width="0.590621" stroke-linejoin="round"/>
<path d="M23.9362 15.4584L6.88635 5.61475V13.4276L23.9362 23.2712V15.4584Z" stroke="#636363" stroke-width="0.590621" stroke-linejoin="round"/>
<path d="M0.295288 17.2329V29.1075L17.3451 38.9511V27.0766L0.295288 17.2329Z" stroke="#636363" stroke-width="0.590621" stroke-linejoin="round"/>
<path d="M7.5896 24.3083V25.7957L10.0509 27.2167V25.7294L7.5896 24.3083Z" stroke="#636363" stroke-width="0.590621" stroke-linejoin="round"/>
<path d="M14.1806 11.9734V13.4607L16.6419 14.8817V13.3944L14.1806 11.9734Z" stroke="#636363" stroke-width="0.590621" stroke-linejoin="round"/>
<path d="M24.416 35.7459C24.2156 36.4937 24.6594 37.0999 25.4072 37.0999C26.155 37.0999 26.9237 36.4937 27.124 35.7459C27.3244 34.9981 26.8806 34.3918 26.1328 34.3918C25.385 34.3918 24.6163 34.9981 24.416 35.7459Z" stroke="#636363" stroke-width="0.590621" stroke-linejoin="round"/>
<path d="M30.437 32.128C30.2367 32.8758 30.6804 33.482 31.4283 33.482C32.1761 33.482 32.9447 32.8758 33.1451 32.128C33.3455 31.3801 32.9017 30.7739 32.1539 30.7739C31.4061 30.7739 30.6374 31.3801 30.437 32.128Z" stroke="#636363" stroke-width="0.590621" stroke-linejoin="round"/>
<path d="M18.5784 26.2818L5.26312 18.5942" stroke="#636363" stroke-width="0.25" stroke-miterlimit="10" stroke-linecap="round"/>
<path d="M19.6866 25.6649L6.37128 17.9773" stroke="#636363" stroke-width="0.25" stroke-miterlimit="10" stroke-linecap="round"/>
<path d="M20.7947 25.0482L7.47943 17.3606" stroke="#636363" stroke-width="0.25" stroke-miterlimit="10" stroke-linecap="round"/>
<path d="M21.9029 24.4312L8.58759 16.7437" stroke="#636363" stroke-width="0.25" stroke-miterlimit="10" stroke-linecap="round"/>
<path d="M23.011 23.8145L9.69574 16.127" stroke="#636363" stroke-width="0.25" stroke-miterlimit="10" stroke-linecap="round"/>
<g style="mix-blend-mode:overlay">
<path d="M33.2266 30.9741C33.0532 30.7484 32.8098 30.5989 32.5254 30.528L33.2969 30.0825C33.3887 30.0298 33.4443 29.9321 33.4443 29.8267V10.1392C33.4443 10.0337 33.3887 9.93604 33.2969 9.8833L16.2471 0.0395508C16.1553 -0.0131836 16.0439 -0.0131836 15.9521 0.0395508L6.73926 5.35889C6.64746 5.41162 6.5918 5.50928 6.5918 5.61475V13.2574L0.147461 16.9771C0.055664 17.0298 0 17.1274 0 17.2329V29.1079C0 29.2134 0.0556641 29.311 0.147461 29.3638L17.1973 39.2075C17.2432 39.2339 17.2939 39.2466 17.3447 39.2466C17.3955 39.2466 17.4463 39.2339 17.4922 39.2075L24.084 35.4019L24.2847 35.2859C24.2214 35.4092 24.1667 35.5365 24.1309 35.6704C24.0088 36.1245 24.083 36.5728 24.334 36.8999C24.5791 37.2192 24.9609 37.395 25.4072 37.395C26.2939 37.395 27.1728 36.7046 27.4092 35.8228C27.5312 35.3677 27.457 34.9194 27.2061 34.5923C26.9944 34.3175 26.6792 34.157 26.3123 34.1153L30.2224 31.8576C30.1975 31.9218 30.1692 31.9847 30.1514 32.0513C30.0293 32.5054 30.1035 32.9546 30.3545 33.2817C30.6006 33.6011 30.9814 33.7769 31.4277 33.7769C32.3135 33.7769 33.1934 33.0864 33.4307 32.2046C33.5527 31.7505 33.4785 31.3013 33.2266 30.9741Z" fill="#2AE864"/>
</g>
</g>
<defs>
<clipPath id="clip0_457_12196">
<rect width="33.4885" height="39.2466" fill="white"/>
</clipPath>
</defs>
</svg>
