<svg width="32" height="34" viewBox="0 0 32 34" fill="none" xmlns="http://www.w3.org/2000/svg">
<path d="M31.875 5.99992C31.8745 4.97135 31.5856 3.96354 31.041 3.09093C30.4965 2.21833 29.7182 1.51591 28.7945 1.06344C27.8708 0.61097 26.8387 0.426585 25.8155 0.531224C24.7922 0.635863 23.8189 1.02533 23.0059 1.65541C22.1929 2.28548 21.5728 3.1309 21.2162 4.09566C20.8596 5.06042 20.7806 6.10585 20.9883 7.11323C21.196 8.12061 21.682 9.04957 22.3911 9.79461C23.1003 10.5396 24.0041 11.0709 25 11.328V14.2499C25 14.6146 24.8551 14.9643 24.5973 15.2222C24.3394 15.48 23.9897 15.6249 23.625 15.6249H8.50001C8.03149 15.6248 7.56642 15.705 7.12501 15.8621V11.328C8.42117 10.9934 9.55077 10.1975 10.3021 9.08953C11.0534 7.98158 11.3749 6.63766 11.2062 5.30966C11.0375 3.98167 10.3903 2.76078 9.38583 1.87585C8.38139 0.990913 7.08868 0.502688 5.75001 0.502688C4.41135 0.502688 3.11864 0.990913 2.11419 1.87585C1.10975 2.76078 0.462527 3.98167 0.29385 5.30966C0.125173 6.63766 0.446619 7.98158 1.19794 9.08953C1.94925 10.1975 3.07886 10.9934 4.37501 11.328V22.6718C3.07886 23.0065 1.94925 23.8024 1.19794 24.9103C0.446619 26.0182 0.125173 27.3622 0.29385 28.6902C0.462527 30.0182 1.10975 31.239 2.11419 32.124C3.11864 33.0089 4.41135 33.4971 5.75001 33.4971C7.08868 33.4971 8.38139 33.0089 9.38583 32.124C10.3903 31.239 11.0375 30.0182 11.2062 28.6902C11.3749 27.3622 11.0534 26.0182 10.3021 24.9103C9.55077 23.8024 8.42117 23.0065 7.12501 22.6718V19.7499C7.12501 19.3852 7.26988 19.0355 7.52774 18.7776C7.7856 18.5198 8.13534 18.3749 8.50001 18.3749H23.625C24.719 18.3749 25.7682 17.9403 26.5418 17.1667C27.3154 16.3931 27.75 15.3439 27.75 14.2499V11.328C28.9302 11.0215 29.9754 10.3321 30.7218 9.36797C31.4683 8.4038 31.8739 7.21927 31.875 5.99992ZM3.00001 5.99992C3.00001 5.45602 3.1613 4.92433 3.46347 4.4721C3.76565 4.01986 4.19514 3.66739 4.69763 3.45925C5.20013 3.25111 5.75306 3.19665 6.28651 3.30276C6.81996 3.40886 7.30996 3.67078 7.69456 4.05537C8.07915 4.43997 8.34106 4.92997 8.44717 5.46342C8.55328 5.99686 8.49882 6.5498 8.29068 7.05229C8.08254 7.55479 7.73007 7.98428 7.27783 8.28646C6.8256 8.58863 6.29391 8.74992 5.75001 8.74992C5.02067 8.74992 4.3212 8.46018 3.80547 7.94446C3.28974 7.42873 3.00001 6.72926 3.00001 5.99992ZM8.50001 27.9999C8.50001 28.5438 8.33873 29.0755 8.03655 29.5277C7.73438 29.98 7.30489 30.3324 6.80239 30.5406C6.2999 30.7487 5.74696 30.8032 5.21351 30.6971C4.68007 30.591 4.19006 30.3291 3.80547 29.9445C3.42088 29.5599 3.15896 29.0699 3.05285 28.5364C2.94674 28.003 3.0012 27.45 3.20934 26.9475C3.41749 26.445 3.76996 26.0155 4.2222 25.7134C4.67443 25.4112 5.20611 25.2499 5.75001 25.2499C6.47936 25.2499 7.17883 25.5396 7.69456 26.0554C8.21028 26.5711 8.50001 27.2706 8.50001 27.9999ZM26.375 8.74992C25.8311 8.74992 25.2994 8.58863 24.8472 8.28646C24.395 7.98428 24.0425 7.55479 23.8343 7.05229C23.6262 6.5498 23.5717 5.99686 23.6779 5.46342C23.784 4.92997 24.0459 4.43997 24.4305 4.05537C24.8151 3.67078 25.3051 3.40886 25.8385 3.30276C26.372 3.19665 26.9249 3.25111 27.4274 3.45925C27.9299 3.66739 28.3594 4.01986 28.6616 4.4721C28.9637 4.92433 29.125 5.45602 29.125 5.99992C29.125 6.72926 28.8353 7.42873 28.3196 7.94446C27.8038 8.46018 27.1044 8.74992 26.375 8.74992Z" fill="#999999"/>
</svg>
