<svg width="39" height="45" viewBox="0 0 39 45" fill="none" xmlns="http://www.w3.org/2000/svg">
<g clip-path="url(#clip0_244_9709)" filter="url(#filter0_d_244_9709)">
<path d="M18.0723 41.7266C17.3574 41.7266 16.6973 41.3457 16.3398 40.7266L13.3418 35.5322H10.5488C5.2832 35.5322 1 31.249 1 25.9834V10.9346C1 5.66895 5.2832 1.38574 10.5488 1.38574H25.5977C30.8633 1.38574 35.1465 5.66895 35.1465 10.9346V25.9834C35.1465 31.249 30.8633 35.5322 25.5977 35.5322H22.8027L19.8047 40.7266C19.4473 41.3457 18.7871 41.7266 18.0723 41.7266Z" fill="white"/>
<path d="M25.5972 3.38574H10.5483C6.37915 3.38574 2.99951 6.7655 2.99951 10.9347V25.9835C2.99951 30.1527 6.37915 33.5325 10.5483 33.5325H14.4966L18.0728 39.7265L21.6489 33.5325H25.5972C29.7664 33.5325 33.1462 30.1527 33.1462 25.9835V10.9347C33.1462 6.7655 29.7664 3.38574 25.5972 3.38574Z" stroke="#FFCE00" stroke-width="1.5" stroke-linejoin="round"/>
<path d="M25.9422 14.4081L15.9422 24.4081C15.8841 24.4662 15.8152 24.5123 15.7393 24.5438C15.6634 24.5752 15.5821 24.5914 15.5 24.5914C15.4178 24.5914 15.3365 24.5752 15.2606 24.5438C15.1848 24.5123 15.1158 24.4662 15.0578 24.4081L10.6828 20.0331C10.5655 19.9158 10.4996 19.7568 10.4996 19.5909C10.4996 19.4251 10.5655 19.266 10.6828 19.1487C10.8001 19.0315 10.9591 18.9656 11.125 18.9656C11.2908 18.9656 11.4499 19.0315 11.5672 19.1487L15.5 23.0823L25.0578 13.5237C25.1751 13.4065 25.3341 13.3406 25.5 13.3406C25.6658 13.3406 25.8249 13.4065 25.9422 13.5237C26.0594 13.641 26.1253 13.8001 26.1253 13.9659C26.1253 14.1318 26.0594 14.2908 25.9422 14.4081Z" fill="#FFCE00"/>
</g>
<defs>
<filter id="filter0_d_244_9709" x="0" y="0.385742" width="38.1465" height="44.3408" filterUnits="userSpaceOnUse" color-interpolation-filters="sRGB">
<feFlood flood-opacity="0" result="BackgroundImageFix"/>
<feColorMatrix in="SourceAlpha" type="matrix" values="0 0 0 0 0 0 0 0 0 0 0 0 0 0 0 0 0 0 127 0" result="hardAlpha"/>
<feOffset dx="1" dy="1"/>
<feGaussianBlur stdDeviation="1"/>
<feColorMatrix type="matrix" values="0 0 0 0 0 0 0 0 0 0 0 0 0 0 0 0 0 0 0.12 0"/>
<feBlend mode="normal" in2="BackgroundImageFix" result="effect1_dropShadow_244_9709"/>
<feBlend mode="normal" in="SourceGraphic" in2="effect1_dropShadow_244_9709" result="shape"/>
</filter>
<clipPath id="clip0_244_9709">
<rect width="34.1465" height="40.3408" fill="white" transform="translate(1 1.38574)"/>
</clipPath>
</defs>
</svg>
