<svg width="39" height="45" viewBox="0 0 39 45" fill="none" xmlns="http://www.w3.org/2000/svg">
    <g clip-path="url(#clip0_244_9583)">
        <path d="M18.0723 41.3857C17.3574 41.3857 16.6973 41.0049 16.3398 40.3857L13.3418 35.1914H10.5488C5.2832 35.1914 1 30.9082 1 25.6426V10.5938C1 5.32812 5.2832 1.04492 10.5488 1.04492H25.5977C30.8633 1.04492 35.1465 5.32812 35.1465 10.5938V25.6426C35.1465 30.9082 30.8633 35.1914 25.5977 35.1914H22.8027L19.8047 40.3857C19.4473 41.0049 18.7871 41.3857 18.0723 41.3857Z"
              fill="white"/>
        <path d="M25.5972 3.04492H10.5483C6.37915 3.04492 2.99951 6.42468 2.99951 10.5939V25.6427C2.99951 29.8119 6.37915 33.1917 10.5483 33.1917H14.4966L18.0728 39.3857L21.6489 33.1917H25.5972C29.7664 33.1917 33.1462 29.8119 33.1462 25.6427V10.5939C33.1462 6.42468 29.7664 3.04492 25.5972 3.04492Z"
              stroke="#763EC6" stroke-width="1.5" stroke-linejoin="round"/>
        <path d="M25.9422 14.0673L15.9422 24.0673C15.8841 24.1254 15.8152 24.1715 15.7393 24.203C15.6634 24.2344 15.5821 24.2506 15.5 24.2506C15.4178 24.2506 15.3365 24.2344 15.2606 24.203C15.1848 24.1715 15.1158 24.1254 15.0578 24.0673L10.6828 19.6923C10.5655 19.575 10.4996 19.416 10.4996 19.2501C10.4996 19.0843 10.5655 18.9252 10.6828 18.8079C10.8001 18.6906 10.9591 18.6248 11.125 18.6248C11.2908 18.6248 11.4499 18.6906 11.5672 18.8079L15.5 22.7415L25.0578 13.1829C25.1751 13.0656 25.3341 12.9998 25.5 12.9998C25.6658 12.9998 25.8249 13.0656 25.9422 13.1829C26.0594 13.3002 26.1253 13.4593 26.1253 13.6251C26.1253 13.791 26.0594 13.95 25.9422 14.0673Z"
              fill="#763EC6"/>
    </g>
    <defs>
        <clipPath id="clip0_244_9583">
            <rect width="34.1465" height="40.3408" fill="white" transform="translate(1 1.04492)"/>
        </clipPath>
    </defs>
</svg>
