<svg width="44" height="44" viewBox="0 0 44 44" fill="none" xmlns="http://www.w3.org/2000/svg">
<g>
<rect x="1" y="1" width="40" height="40" rx="20" fill="#F4C11C"/>
<rect x="5.5" y="5.5" width="31" height="31" rx="15.5" stroke="#FFECAC"/>
<path d="M31.5 14.2499V18.7499C31.5 18.9488 31.421 19.1396 31.2803 19.2802C31.1397 19.4209 30.9489 19.4999 30.75 19.4999H26.25C26.0511 19.4999 25.8603 19.4209 25.7197 19.2802C25.579 19.1396 25.5 18.9488 25.5 18.7499C25.5 18.551 25.579 18.3602 25.7197 18.2196C25.8603 18.0789 26.0511 17.9999 26.25 17.9999H28.8188L26.3259 15.7161L26.3025 15.6936C25.2601 14.6516 23.9337 13.9398 22.4891 13.6472C21.0445 13.3546 19.5457 13.4942 18.1799 14.0484C16.8141 14.6027 15.642 15.5471 14.8098 16.7637C13.9777 17.9802 13.5224 19.415 13.501 20.8888C13.4796 22.3626 13.8929 23.8101 14.6893 25.0503C15.4857 26.2906 16.6299 27.2687 17.9789 27.8625C19.328 28.4562 20.8221 28.6393 22.2746 28.3889C23.7271 28.1384 25.0736 27.4655 26.1459 26.4543C26.2905 26.3175 26.4835 26.2438 26.6825 26.2493C26.8814 26.2549 27.07 26.3392 27.2067 26.4838C27.3435 26.6284 27.4172 26.8214 27.4117 27.0203C27.4061 27.2192 27.3218 27.4078 27.1772 27.5446C25.5098 29.1259 23.298 30.0051 21 29.9999H20.8763C19.4023 29.9797 17.9558 29.5978 16.664 28.8876C15.3722 28.1775 14.2746 27.1609 13.4676 25.9273C12.6607 24.6936 12.1692 23.2806 12.0362 21.8125C11.9032 20.3443 12.1329 18.866 12.7051 17.5075C13.2773 16.1489 14.1744 14.9517 15.3176 14.021C16.4608 13.0904 17.8152 12.4548 19.2616 12.1701C20.7079 11.8855 22.2021 11.9604 23.6127 12.3885C25.0234 12.8165 26.3073 13.5845 27.3516 14.6249L30 17.0436V14.2499C30 14.051 30.079 13.8602 30.2197 13.7196C30.3603 13.5789 30.5511 13.4999 30.75 13.4999C30.9489 13.4999 31.1397 13.5789 31.2803 13.7196C31.421 13.8602 31.5 14.051 31.5 14.2499Z" fill="white"/>
</g>
</svg>
