<svg width="44" height="44" viewBox="0 0 44 44" fill="none" xmlns="http://www.w3.org/2000/svg">
<g>
<rect x="1" y="1" width="40" height="40" rx="20" fill="#F4C11C"/>
<rect x="5.5" y="5.5" width="31" height="31" rx="15.5" stroke="#FFECAC"/>
<path d="M28.2806 27.9693C28.3503 28.039 28.4056 28.1217 28.4433 28.2128C28.481 28.3038 28.5004 28.4014 28.5004 28.4999C28.5004 28.5985 28.481 28.6961 28.4433 28.7871C28.4056 28.8781 28.3503 28.9609 28.2806 29.0306C28.2109 29.1002 28.1282 29.1555 28.0372 29.1932C27.9461 29.2309 27.8485 29.2503 27.75 29.2503C27.6514 29.2503 27.5539 29.2309 27.4628 29.1932C27.3718 29.1555 27.289 29.1002 27.2194 29.0306L19.7194 21.5306C19.6496 21.4609 19.5943 21.3782 19.5566 21.2871C19.5188 21.1961 19.4994 21.0985 19.4994 20.9999C19.4994 20.9014 19.5188 20.8038 19.5566 20.7127C19.5943 20.6217 19.6496 20.539 19.7194 20.4693L27.2194 12.9693C27.3601 12.8286 27.551 12.7495 27.75 12.7495C27.949 12.7495 28.1399 12.8286 28.2806 12.9693C28.4213 13.11 28.5004 13.3009 28.5004 13.4999C28.5004 13.699 28.4213 13.8898 28.2806 14.0306L21.3103 20.9999L28.2806 27.9693ZM13.8103 20.9999L20.7806 14.0306C20.9213 13.8898 21.0004 13.699 21.0004 13.4999C21.0004 13.3009 20.9213 13.11 20.7806 12.9693C20.6399 12.8286 20.449 12.7495 20.25 12.7495C20.051 12.7495 19.8601 12.8286 19.7194 12.9693L12.2194 20.4693C12.1496 20.539 12.0943 20.6217 12.0566 20.7127C12.0188 20.8038 11.9994 20.9014 11.9994 20.9999C11.9994 21.0985 12.0188 21.1961 12.0566 21.2871C12.0943 21.3782 12.1496 21.4609 12.2194 21.5306L19.7194 29.0306C19.789 29.1002 19.8718 29.1555 19.9628 29.1932C20.0539 29.2309 20.1514 29.2503 20.25 29.2503C20.3485 29.2503 20.4461 29.2309 20.5372 29.1932C20.6282 29.1555 20.7109 29.1002 20.7806 29.0306C20.8503 28.9609 20.9056 28.8781 20.9433 28.7871C20.981 28.6961 21.0004 28.5985 21.0004 28.4999C21.0004 28.4014 20.981 28.3038 20.9433 28.2128C20.9056 28.1217 20.8503 28.039 20.7806 27.9693L13.8103 20.9999Z" fill="white"/>
</g>
</svg>
