<svg width="44" height="44" viewBox="0 0 44 44" fill="none" xmlns="http://www.w3.org/2000/svg">
<g>
<rect x="1" y="1" width="40" height="40" rx="20" fill="#FF6631"/>
<rect x="5.5" y="5.5" width="31" height="31" rx="15.5" stroke="#FFB095"/>
<path d="M29.5002 12.75H15.6749C15.416 12.7507 15.1617 12.8182 14.9364 12.9457C14.7111 13.0733 14.5225 13.2568 14.3887 13.4784L10.1071 20.6137C10.037 20.7304 10 20.8639 10 21C10 21.1361 10.037 21.2696 10.1071 21.3862L14.3887 28.5216C14.5225 28.7432 14.7111 28.9267 14.9364 29.0543C15.1617 29.1818 15.416 29.2493 15.6749 29.25H29.5002C29.8981 29.25 30.2796 29.092 30.5609 28.8107C30.8422 28.5294 31.0002 28.1478 31.0002 27.75V14.25C31.0002 13.8522 30.8422 13.4706 30.5609 13.1893C30.2796 12.908 29.8981 12.75 29.5002 12.75ZM29.5002 27.75H15.6749L11.6249 21L15.6749 14.25H29.5002V27.75ZM19.2196 22.7194L20.9399 21L19.2196 19.2806C19.0789 19.1399 18.9998 18.949 18.9998 18.75C18.9998 18.551 19.0789 18.3601 19.2196 18.2194C19.3603 18.0786 19.5512 17.9996 19.7502 17.9996C19.9493 17.9996 20.1401 18.0786 20.2809 18.2194L22.0002 19.9397L23.7196 18.2194C23.7893 18.1497 23.872 18.0944 23.9631 18.0567C24.0541 18.019 24.1517 17.9996 24.2502 17.9996C24.3488 17.9996 24.4464 18.019 24.5374 18.0567C24.6285 18.0944 24.7112 18.1497 24.7809 18.2194C24.8505 18.2891 24.9058 18.3718 24.9435 18.4628C24.9812 18.5539 25.0007 18.6515 25.0007 18.75C25.0007 18.8485 24.9812 18.9461 24.9435 19.0372C24.9058 19.1282 24.8505 19.2109 24.7809 19.2806L23.0605 21L24.7809 22.7194C24.8505 22.7891 24.9058 22.8718 24.9435 22.9628C24.9812 23.0539 25.0007 23.1515 25.0007 23.25C25.0007 23.3485 24.9812 23.4461 24.9435 23.5372C24.9058 23.6282 24.8505 23.7109 24.7809 23.7806C24.7112 23.8503 24.6285 23.9056 24.5374 23.9433C24.4464 23.981 24.3488 24.0004 24.2502 24.0004C24.1517 24.0004 24.0541 23.981 23.9631 23.9433C23.872 23.9056 23.7893 23.8503 23.7196 23.7806L22.0002 22.0603L20.2809 23.7806C20.2112 23.8503 20.1285 23.9056 20.0374 23.9433C19.9464 23.981 19.8488 24.0004 19.7502 24.0004C19.6517 24.0004 19.5541 23.981 19.4631 23.9433C19.372 23.9056 19.2893 23.8503 19.2196 23.7806C19.1499 23.7109 19.0947 23.6282 19.0569 23.5372C19.0192 23.4461 18.9998 23.3485 18.9998 23.25C18.9998 23.1515 19.0192 23.0539 19.0569 22.9628C19.0947 22.8718 19.1499 22.7891 19.2196 22.7194Z" fill="white"/>
</g>
</svg>
