<svg width="31" height="31" viewBox="0 0 31 31" fill="none" xmlns="http://www.w3.org/2000/svg">
<g filter="url(#filter0_d_178_9112)">
<path d="M14.4996 27C7.60709 27 2 21.4006 2 14.5183C2 7.59938 7.60709 2 14.4996 2C21.3922 2 27 7.59938 27 14.4817C27 21.4006 21.3922 27 14.4996 27Z" fill="white"/>
<path d="M20.8519 20.1367L18.8438 18.1293C19.7607 17.0285 20.2179 15.6167 20.1203 14.1874C20.0227 12.7582 19.3779 11.4216 18.3199 10.4557C17.262 9.48975 15.8723 8.96889 14.4401 9.00144C13.0079 9.03399 11.6434 9.61744 10.6304 10.6304C9.61744 11.6434 9.03399 13.0079 9.00144 14.4401C8.96889 15.8723 9.48975 17.262 10.4557 18.3199C11.4216 19.3779 12.7582 20.0227 14.1874 20.1203C15.6167 20.2179 17.0285 19.7607 18.1293 18.8438L20.1367 20.8519C20.1837 20.8988 20.2394 20.9361 20.3008 20.9615C20.3621 20.9869 20.4279 21 20.4943 21C20.5607 21 20.6265 20.9869 20.6878 20.9615C20.7492 20.9361 20.8049 20.8988 20.8519 20.8519C20.8988 20.8049 20.9361 20.7492 20.9615 20.6878C20.9869 20.6265 21 20.5607 21 20.4943C21 20.4279 20.9869 20.3621 20.9615 20.3008C20.9361 20.2394 20.8988 20.1837 20.8519 20.1367ZM10.0248 14.5736C10.0248 13.674 10.2916 12.7945 10.7914 12.0464C11.2913 11.2984 12.0017 10.7154 12.8329 10.3711C13.6641 10.0268 14.5787 9.9367 15.4611 10.1122C16.3434 10.2877 17.154 10.721 17.7901 11.3571C18.4263 11.9933 18.8595 12.8038 19.035 13.6862C19.2105 14.5686 19.1205 15.4832 18.7762 16.3144C18.4319 17.1456 17.8489 17.856 17.1008 18.3558C16.3528 18.8556 15.4733 19.1224 14.5736 19.1224C13.3676 19.1211 12.2114 18.6414 11.3586 17.7886C10.5058 16.9359 10.0261 15.7796 10.0248 14.5736Z" fill="#3D3D3D"/>
<path d="M14.5001 2C7.59652 2 2 7.58591 2 14.4763V14.5237C2 21.4141 7.59652 27 14.5001 27C21.4035 27 27 21.4141 27 14.5237V14.4763C27 7.58591 21.4035 2 14.5001 2Z" stroke="#E5E5E5" stroke-width="1.3" stroke-linejoin="round"/>
</g>
<defs>
<filter id="filter0_d_178_9112" x="0.349976" y="0.350098" width="30.3" height="30.2998" filterUnits="userSpaceOnUse" color-interpolation-filters="sRGB">
<feFlood flood-opacity="0" result="BackgroundImageFix"/>
<feColorMatrix in="SourceAlpha" type="matrix" values="0 0 0 0 0 0 0 0 0 0 0 0 0 0 0 0 0 0 127 0" result="hardAlpha"/>
<feOffset dx="1" dy="1"/>
<feGaussianBlur stdDeviation="1"/>
<feColorMatrix type="matrix" values="0 0 0 0 0 0 0 0 0 0 0 0 0 0 0 0 0 0 0.12 0"/>
<feBlend mode="normal" in2="BackgroundImageFix" result="effect1_dropShadow_178_9112"/>
<feBlend mode="normal" in="SourceGraphic" in2="effect1_dropShadow_178_9112" result="shape"/>
</filter>
</defs>
</svg>
