<svg width="44" height="44" viewBox="0 0 44 44" fill="none" xmlns="http://www.w3.org/2000/svg">
<g>
<rect x="1" y="1" width="40" height="40" rx="20" fill="#494848"/>
<rect x="5.5" y="5.5" width="31" height="31" rx="15.5" stroke="#8C8C8C"/>
<path d="M26.625 13.6875H17.0625C16.4658 13.6875 15.8935 13.9246 15.4715 14.3465C15.0496 14.7685 14.8125 15.3408 14.8125 15.9375V27.75C14.8125 27.8992 14.8718 28.0423 14.9773 28.1477C15.0827 28.2532 15.2258 28.3125 15.375 28.3125H25.5C25.6492 28.3125 25.7923 28.2532 25.8977 28.1477C26.0032 28.0423 26.0625 27.8992 26.0625 27.75C26.0625 27.6008 26.0032 27.4577 25.8977 27.3523C25.7923 27.2468 25.6492 27.1875 25.5 27.1875H15.9375C15.9375 26.8891 16.056 26.603 16.267 26.392C16.478 26.181 16.7641 26.0625 17.0625 26.0625H26.625C26.7742 26.0625 26.9173 26.0032 27.0227 25.8977C27.1282 25.7923 27.1875 25.6492 27.1875 25.5V14.25C27.1875 14.1008 27.1282 13.9577 27.0227 13.8523C26.9173 13.7468 26.7742 13.6875 26.625 13.6875ZM26.0625 24.9375H17.0625C16.6674 24.937 16.2793 25.041 15.9375 25.2391V15.9375C15.9375 15.6391 16.056 15.353 16.267 15.142C16.478 14.931 16.7641 14.8125 17.0625 14.8125H26.0625V24.9375Z" fill="white"/>
<path d="M20.8835 21.7024C20.604 21.7024 20.4448 21.5171 20.4058 21.1466L20.3473 20.2691C20.3343 20.0871 20.37 19.9474 20.4545 19.8499C20.5455 19.7459 20.6788 19.6711 20.8543 19.6256C21.1403 19.5541 21.3613 19.4404 21.5173 19.2844C21.6733 19.1219 21.7513 18.9106 21.7513 18.6506C21.7513 18.3646 21.6733 18.1404 21.5173 17.9779C21.3678 17.8089 21.1533 17.7244 20.8738 17.7244C20.5228 17.7244 20.266 17.8576 20.1035 18.1241C19.98 18.3061 19.8695 18.4231 19.772 18.4751C19.6745 18.5271 19.5445 18.5401 19.382 18.5141C19.2 18.4816 19.0603 18.4069 18.9628 18.2899C18.8718 18.1664 18.8685 18.0169 18.953 17.8414C19.122 17.4969 19.3723 17.2239 19.7038 17.0224C20.0418 16.8209 20.4318 16.7201 20.8738 16.7201C21.2768 16.7201 21.631 16.7981 21.9365 16.9541C22.2485 17.1036 22.4923 17.3246 22.6678 17.6171C22.8433 17.9031 22.931 18.2476 22.931 18.6506C22.931 19.1121 22.788 19.4859 22.502 19.7719C22.2225 20.0579 21.8488 20.2594 21.3808 20.3764L21.3418 21.1466C21.3093 21.5171 21.1565 21.7024 20.8835 21.7024ZM20.8738 23.7986C20.6723 23.7986 20.4968 23.7271 20.3473 23.5841C20.2043 23.4411 20.1328 23.2689 20.1328 23.0674C20.1328 22.8594 20.2043 22.6839 20.3473 22.5409C20.4968 22.3979 20.6723 22.3264 20.8738 22.3264C21.0818 22.3264 21.2573 22.3979 21.4003 22.5409C21.5498 22.6839 21.6245 22.8594 21.6245 23.0674C21.6245 23.2689 21.5498 23.4411 21.4003 23.5841C21.2573 23.7271 21.0818 23.7986 20.8738 23.7986Z" fill="white"/>
</g>
</svg>
