<svg width="44" height="44" viewBox="0 0 44 44" fill="none" xmlns="http://www.w3.org/2000/svg">
<g>
<rect x="1" y="1" width="40" height="40" rx="20" fill="#F4C11C"/>
<rect x="5.5" y="5.5" width="31" height="31" rx="15.5" stroke="#FFECAC"/>
<path d="M30 20.9999C30.0002 23.366 29.0686 25.6371 27.4069 27.3215C25.7451 29.0059 23.4869 29.9681 21.1209 29.9999H21C18.7015 30.0056 16.489 29.126 14.8219 27.5436C14.7503 27.4759 14.6927 27.3948 14.6525 27.3048C14.6123 27.2149 14.5902 27.1179 14.5874 27.0194C14.5847 26.9209 14.6014 26.8228 14.6365 26.7307C14.6717 26.6387 14.7246 26.5544 14.7923 26.4829C14.8601 26.4113 14.9412 26.3537 15.0312 26.3135C15.1211 26.2733 15.2181 26.2511 15.3166 26.2484C15.4151 26.2457 15.5132 26.2623 15.6053 26.2975C15.6973 26.3327 15.7815 26.3856 15.8531 26.4533C16.9254 27.4646 18.272 28.1375 19.7245 28.3879C21.177 28.6384 22.6711 28.4553 24.0202 27.8615C25.3692 27.2678 26.5134 26.2897 27.3098 25.0494C28.1062 23.8091 28.5195 22.3617 28.4981 20.8879C28.4766 19.4141 28.0214 17.9793 27.1892 16.7627C26.3571 15.5462 25.1849 14.6017 23.8192 14.0475C22.4534 13.4932 20.9546 13.3537 19.51 13.6463C18.0654 13.9389 16.739 14.6507 15.6966 15.6927C15.6889 15.701 15.6808 15.7088 15.6722 15.7161L13.1803 17.9999H15.75C15.9489 17.9999 16.1397 18.0789 16.2803 18.2196C16.421 18.3602 16.5 18.551 16.5 18.7499C16.5 18.9488 16.421 19.1396 16.2803 19.2802C16.1397 19.4209 15.9489 19.4999 15.75 19.4999H11.25C11.0511 19.4999 10.8603 19.4209 10.7197 19.2802C10.579 19.1396 10.5 18.9488 10.5 18.7499V14.2499C10.5 14.051 10.579 13.8602 10.7197 13.7196C10.8603 13.5789 11.0511 13.4999 11.25 13.4999C11.4489 13.4999 11.6397 13.5789 11.7803 13.7196C11.921 13.8602 12 14.051 12 14.2499V17.0436L14.6484 14.6249C15.9084 13.3698 17.512 12.5161 19.2567 12.1717C21.0015 11.8272 22.8092 12.0074 24.4516 12.6894C26.0941 13.3715 27.4976 14.5248 28.4851 16.0039C29.4726 17.483 29.9997 19.2215 30 20.9999Z" fill="white"/>
</g>
</svg>
