<svg width="44" height="44" viewBox="0 0 44 44" fill="none" xmlns="http://www.w3.org/2000/svg">
<g>
<rect x="1" y="1" width="40" height="40" rx="20" fill="#00CFFF"/>
<rect x="5.5" y="5.5" width="31" height="31" rx="15.5" stroke="#97EBFF"/>
<path d="M30.5307 16.2806L18.5307 28.2806C18.461 28.3503 18.3783 28.4056 18.2873 28.4433C18.1962 28.4811 18.0986 28.5005 18.0001 28.5005C17.9015 28.5005 17.8039 28.4811 17.7128 28.4433C17.6218 28.4056 17.5391 28.3503 17.4694 28.2806L12.2194 23.0306C12.0787 22.8898 11.9996 22.699 11.9996 22.4999C11.9996 22.3009 12.0787 22.11 12.2194 21.9693C12.3602 21.8286 12.551 21.7495 12.7501 21.7495C12.9491 21.7495 13.1399 21.8286 13.2807 21.9693L18.0001 26.6896L29.4694 15.2193C29.6102 15.0786 29.801 14.9995 30.0001 14.9995C30.1991 14.9995 30.3899 15.0786 30.5307 15.2193C30.6714 15.36 30.7505 15.5509 30.7505 15.7499C30.7505 15.949 30.6714 16.1398 30.5307 16.2806Z" fill="white"/>
</g>
</svg>
