<svg width="44" height="44" viewBox="0 0 44 44" fill="none" xmlns="http://www.w3.org/2000/svg">
<g>
<rect x="1" y="1" width="40" height="40" rx="20" fill="#00CFFF"/>
<rect x="5.5" y="5.5" width="31" height="31" rx="15.5" stroke="#97EBFF"/>
<path d="M30.3113 15.8785L26.1216 11.6897C25.9823 11.5504 25.8169 11.4399 25.6349 11.3645C25.4529 11.2891 25.2578 11.2502 25.0608 11.2502C24.8638 11.2502 24.6687 11.2891 24.4867 11.3645C24.3047 11.4399 24.1393 11.5504 24 11.6897L12.4397 23.25C12.2998 23.3888 12.1889 23.554 12.1134 23.736C12.0379 23.9181 11.9994 24.1133 12 24.3103V28.5C12 28.8978 12.158 29.2794 12.4393 29.5607C12.7207 29.842 13.1022 30 13.5 30H29.25C29.4489 30 29.6397 29.921 29.7803 29.7803C29.921 29.6397 30 29.4489 30 29.25C30 29.0511 29.921 28.8603 29.7803 28.7197C29.6397 28.579 29.4489 28.5 29.25 28.5H19.8113L30.3113 18C30.4506 17.8607 30.5611 17.6954 30.6365 17.5133C30.7119 17.3313 30.7507 17.1362 30.7507 16.9392C30.7507 16.7422 30.7119 16.5471 30.6365 16.3651C30.5611 16.1831 30.4506 16.0177 30.3113 15.8785ZM17.6897 28.5H13.5V24.3103L21.75 16.0603L25.9397 20.25L17.6897 28.5ZM27 19.1897L22.8113 15L25.0613 12.75L29.25 16.9397L27 19.1897Z" fill="white"/>
</g>
</svg>
