<svg width="44" height="44" viewBox="0 0 44 44" fill="none" xmlns="http://www.w3.org/2000/svg">
<g>
<rect x="1" y="1" width="40" height="40" rx="20" fill="#97EBFF"/>
<rect x="5.5" y="5.5" width="31" height="31" rx="15.5" stroke="#00CFFF"/>
<path d="M30.0938 16.5375L26.2125 12.6563C25.7906 12.2343 25.2183 11.9973 24.6216 11.9973C24.0249 11.9973 23.4526 12.2343 23.0306 12.6563L11.9063 23.7806C11.4843 24.2026 11.2473 24.7749 11.2473 25.3716C11.2473 25.9683 11.4843 26.5406 11.9063 26.9625L14.7244 29.7806C14.7943 29.8505 14.8774 29.9058 14.9688 29.9435C15.0601 29.9811 15.1581 30.0003 15.2569 30H29.25C29.4489 30 29.6397 29.921 29.7804 29.7804C29.921 29.6397 30 29.4489 30 29.25C30 29.0511 29.921 28.8603 29.7804 28.7197C29.6397 28.579 29.4489 28.5 29.25 28.5H21.3094L30.0938 19.7194C30.5157 19.2974 30.7527 18.7252 30.7527 18.1285C30.7527 17.5317 30.5157 16.9595 30.0938 16.5375ZM19.1888 28.5H15.5672L12.9685 25.9013C12.8279 25.7606 12.749 25.5699 12.749 25.3711C12.749 25.1723 12.8279 24.9816 12.9685 24.841L18 19.8103L22.9397 24.75L19.1888 28.5ZM29.0325 18.6563L24 23.6897L19.0603 18.75L24.0938 13.7194C24.1634 13.6497 24.2461 13.5943 24.3372 13.5566C24.4282 13.5189 24.5258 13.4994 24.6244 13.4994C24.723 13.4994 24.8206 13.5189 24.9116 13.5566C25.0027 13.5943 25.0854 13.6497 25.155 13.7194L29.0344 17.5988C29.1749 17.7394 29.2539 17.9301 29.2539 18.1289C29.2539 18.3278 29.1749 18.5184 29.0344 18.6591L29.0325 18.6563Z" fill="#00CFFF"/>
</g>
</svg>
