<svg width="36" height="36" viewBox="0 0 36 36" fill="none" xmlns="http://www.w3.org/2000/svg">
<path d="M24.4728 13.4728L19.9439 18L24.4728 22.5272C24.6006 22.6549 24.7019 22.8066 24.771 22.9735C24.8402 23.1404 24.8758 23.3193 24.8758 23.5C24.8758 23.6807 24.8402 23.8596 24.771 24.0265C24.7019 24.1934 24.6006 24.3451 24.4728 24.4728C24.3451 24.6006 24.1934 24.7019 24.0265 24.771C23.8596 24.8402 23.6807 24.8758 23.5 24.8758C23.3193 24.8758 23.1404 24.8402 22.9735 24.771C22.8066 24.7019 22.6549 24.6006 22.5272 24.4728L18 19.9439L13.4728 24.4728C13.3451 24.6006 13.1934 24.7019 13.0265 24.771C12.8596 24.8402 12.6807 24.8758 12.5 24.8758C12.3193 24.8758 12.1404 24.8402 11.9735 24.771C11.8066 24.7019 11.6549 24.6006 11.5272 24.4728C11.3994 24.3451 11.2981 24.1934 11.229 24.0265C11.1598 23.8596 11.1242 23.6807 11.1242 23.5C11.1242 23.3193 11.1598 23.1404 11.229 22.9735C11.2981 22.8066 11.3994 22.6549 11.5272 22.5272L16.0561 18L11.5272 13.4728C11.2692 13.2148 11.1242 12.8649 11.1242 12.5C11.1242 12.1351 11.2692 11.7852 11.5272 11.5272C11.7852 11.2692 12.1351 11.1242 12.5 11.1242C12.8649 11.1242 13.2148 11.2692 13.4728 11.5272L18 16.0561L22.5272 11.5272C22.6549 11.3994 22.8066 11.2981 22.9735 11.229C23.1404 11.1598 23.3193 11.1242 23.5 11.1242C23.6807 11.1242 23.8596 11.1598 24.0265 11.229C24.1934 11.2981 24.3451 11.3994 24.4728 11.5272C24.6006 11.6549 24.7019 11.8066 24.771 11.9735C24.8402 12.1404 24.8758 12.3193 24.8758 12.5C24.8758 12.6807 24.8402 12.8596 24.771 13.0265C24.7019 13.1934 24.6006 13.3451 24.4728 13.4728ZM35.875 18C35.875 21.5353 34.8266 24.9913 32.8625 27.9308C30.8984 30.8703 28.1067 33.1614 24.8405 34.5143C21.5742 35.8673 17.9802 36.2212 14.5128 35.5315C11.0454 34.8418 7.86033 33.1394 5.36047 30.6395C2.8606 28.1397 1.15817 24.9547 0.468464 21.4872C-0.221247 18.0198 0.132737 14.4258 1.48565 11.1595C2.83857 7.8933 5.12965 5.10161 8.06918 3.13748C11.0087 1.17335 14.4647 0.125 18 0.125C22.7392 0.130005 27.2829 2.01487 30.634 5.36599C33.9851 8.71712 35.87 13.2608 35.875 18ZM33.125 18C33.125 15.0086 32.2379 12.0843 30.576 9.597C28.914 7.10971 26.5518 5.1711 23.7881 4.02632C21.0244 2.88155 17.9832 2.58202 15.0493 3.16562C12.1153 3.74922 9.42028 5.18974 7.30501 7.30501C5.18974 9.42028 3.74922 12.1153 3.16562 15.0493C2.58202 17.9832 2.88155 21.0244 4.02632 23.7881C5.1711 26.5518 7.10971 28.914 9.597 30.576C12.0843 32.2379 15.0086 33.125 18 33.125C22.01 33.1204 25.8545 31.5255 28.69 28.69C31.5255 25.8545 33.1205 22.01 33.125 18Z" fill="#999999"/>
</svg>
