<svg width="29" height="40" viewBox="0 0 29 40" fill="none" xmlns="http://www.w3.org/2000/svg">
<g clip-path="url(#clip0_144_716)">
<path d="M14.7551 30.6145C14.0251 30.6145 13.3101 30.5399 12.6174 30.3984C12.7365 29.6088 12.7962 28.7598 12.7962 27.8585V21.0875L16.7217 23.9852L19.1052 25.7504C19.8874 25.1619 20.5503 24.4022 21.0345 23.5382V13.5047C21.0345 12.7971 21.0642 12.1415 21.1164 11.5309C22.6956 12.7151 23.932 14.3241 24.6471 16.1936H28.8036C27.8054 12.4916 25.377 9.3706 22.1444 7.47113C23.3957 4.93117 25.5633 4.26085 27.7533 4.26085H27.8725V0H27.4404C24.0215 0 20.0363 1.66124 18.0252 5.82498C16.9748 5.57912 15.8799 5.45255 14.7551 5.45255C6.71786 5.45255 0.200195 11.9702 0.200195 20.0075C0.200195 25.3482 3.08295 30.0185 7.37345 32.5512C6.11465 35.0837 3.94694 35.7541 1.75705 35.7541H1.63794V40H2.06984C5.48889 40 9.47405 38.3464 11.4852 34.1899C12.5354 34.4358 13.6303 34.5624 14.7551 34.5624C21.4739 34.5624 27.1276 30.0111 28.8036 23.8213H24.6471C23.1126 27.7914 19.2542 30.6145 14.7551 30.6145ZM4.14808 20.0075C4.14808 14.1601 8.90794 9.40043 14.7551 9.40043C15.4925 9.40043 16.2078 9.47499 16.9004 9.61647C16.7811 10.4061 16.7217 11.2477 16.7217 12.149V18.9274L12.7962 16.0298L10.3977 14.2645C9.62299 14.853 8.95995 15.6128 8.48331 16.4693V26.5028C8.48331 27.2178 8.45348 27.8808 8.40129 28.4915C5.81659 26.5549 4.14808 23.4711 4.14808 20.0075Z" fill="#73683A"/>
</g>
<defs>
<clipPath id="clip0_144_716">
<rect width="28.6034" height="40" fill="white" transform="translate(0.200195)"/>
</clipPath>
</defs>
</svg>
