<svg width="17" height="9" viewBox="0 0 17 9" fill="none" xmlns="http://www.w3.org/2000/svg">
<path d="M16.75 8.25293C16.75 8.05402 16.671 7.86325 16.5303 7.7226C16.3897 7.58195 16.1989 7.50293 16 7.50293H9.25V2.56324L10.9694 4.28356C11.1101 4.42429 11.301 4.50335 11.5 4.50335C11.699 4.50335 11.8899 4.42429 12.0306 4.28356C12.1714 4.14283 12.2504 3.95195 12.2504 3.75293C12.2504 3.55391 12.1714 3.36303 12.0306 3.2223L9.03063 0.222303C8.96097 0.152571 8.87825 0.0972528 8.7872 0.0595093C8.69616 0.0217657 8.59856 0.00234032 8.5 0.00234032C8.40144 0.00234032 8.30384 0.0217657 8.21279 0.0595093C8.12175 0.0972528 8.03903 0.152571 7.96937 0.222303L4.96937 3.2223C4.82864 3.36303 4.74958 3.55391 4.74958 3.75293C4.74958 3.95195 4.82864 4.14283 4.96937 4.28356C5.11011 4.42429 5.30098 4.50335 5.5 4.50335C5.69902 4.50335 5.88989 4.42429 6.03063 4.28356L7.75 2.56324V7.50293H1C0.801088 7.50293 0.610322 7.58195 0.46967 7.7226C0.329018 7.86325 0.25 8.05402 0.25 8.25293C0.25 8.45184 0.329018 8.64261 0.46967 8.78326C0.610322 8.92391 0.801088 9.00293 1 9.00293H16C16.1989 9.00293 16.3897 8.92391 16.5303 8.78326C16.671 8.64261 16.75 8.45184 16.75 8.25293Z" fill="#8C8C8C"/>
</svg>
