<svg width="17" height="9" viewBox="0 0 17 9" fill="none" xmlns="http://www.w3.org/2000/svg">
<path d="M16.75 0.751953C16.75 0.950866 16.671 1.14163 16.5303 1.28228C16.3897 1.42294 16.1989 1.50195 16 1.50195H9.25V6.44164L10.9694 4.72133C11.1101 4.5806 11.301 4.50154 11.5 4.50154C11.699 4.50154 11.8899 4.5806 12.0306 4.72133C12.1714 4.86206 12.2504 5.05293 12.2504 5.25195C12.2504 5.45098 12.1714 5.64185 12.0306 5.78258L9.03063 8.78258C8.96097 8.85231 8.87825 8.90763 8.7872 8.94537C8.69616 8.98312 8.59856 9.00254 8.5 9.00254C8.40144 9.00254 8.30384 8.98312 8.21279 8.94537C8.12175 8.90763 8.03903 8.85231 7.96937 8.78258L4.96937 5.78258C4.82864 5.64185 4.74958 5.45098 4.74958 5.25195C4.74958 5.05293 4.82864 4.86206 4.96937 4.72133C5.11011 4.5806 5.30098 4.50154 5.5 4.50154C5.69902 4.50154 5.88989 4.5806 6.03063 4.72133L7.75 6.44164V1.50195H1C0.801088 1.50195 0.610322 1.42294 0.46967 1.28228C0.329018 1.14163 0.25 0.950866 0.25 0.751953C0.25 0.553041 0.329018 0.362275 0.46967 0.221622C0.610322 0.0809702 0.801088 0.00195312 1 0.00195312H16C16.1989 0.00195312 16.3897 0.0809702 16.5303 0.221622C16.671 0.362275 16.75 0.553041 16.75 0.751953Z" fill="#8C8C8C"/>
</svg>
