<svg width="36" height="35" viewBox="0 0 36 35" fill="none" xmlns="http://www.w3.org/2000/svg">
<path d="M30.6397 5.14755C27.2874 1.87148 22.7408 0.0310058 18 0.0310059C13.2592 0.0310059 8.71257 1.87148 5.36031 5.14755C2.00806 8.42361 0.124783 12.8669 0.124783 17.5C0.124783 22.133 2.00806 26.5763 5.36031 29.8524C8.71257 33.1285 13.2592 34.9689 18 34.9689C22.7408 34.9689 27.2874 33.1285 30.6397 29.8524C33.9919 26.5763 35.8752 22.133 35.8752 17.5C35.8752 12.8669 33.9919 8.42361 30.6397 5.14755ZM28.6958 27.9527C26.5804 30.0196 23.8854 31.4272 20.9515 31.9974C18.0176 32.5675 14.9766 32.2747 12.213 31.1559C9.44938 30.037 7.08731 28.1425 5.42545 25.7118C3.76359 23.281 2.87658 20.4233 2.87658 17.5C2.87658 14.5766 3.76359 11.7189 5.42545 9.28817C7.08731 6.85746 9.44938 4.9629 12.213 3.84408C14.9766 2.72526 18.0176 2.43241 20.9515 3.00258C23.8854 3.57274 26.5804 4.9803 28.6958 7.04727C31.5281 9.82175 33.1188 13.5809 33.1188 17.5C33.1188 21.4191 31.5281 25.1782 28.6958 27.9527ZM25.8478 13.0757L21.3189 17.5L25.8478 21.9243C25.9756 22.0491 26.0769 22.1973 26.146 22.3604C26.2152 22.5236 26.2508 22.6984 26.2508 22.875C26.2508 23.0515 26.2152 23.2264 26.146 23.3895C26.0769 23.5526 25.9756 23.7008 25.8478 23.8257C25.7201 23.9505 25.5684 24.0496 25.4015 24.1171C25.2346 24.1847 25.0557 24.2195 24.875 24.2195C24.6943 24.2195 24.5154 24.1847 24.3485 24.1171C24.1816 24.0496 24.0299 23.9505 23.9022 23.8257L18.4022 18.4507C18.2743 18.3259 18.1729 18.1777 18.1037 18.0145C18.0345 17.8514 17.9989 17.6766 17.9989 17.5C17.9989 17.3234 18.0345 17.1485 18.1037 16.9854C18.1729 16.8223 18.2743 16.6741 18.4022 16.5493L23.9022 11.1743C24.0299 11.0494 24.1816 10.9504 24.3485 10.8828C24.5154 10.8152 24.6943 10.7805 24.875 10.7805C25.0557 10.7805 25.2346 10.8152 25.4015 10.8828C25.5684 10.9504 25.7201 11.0494 25.8478 11.1743C25.9756 11.2991 26.0769 11.4473 26.146 11.6105C26.2152 11.7736 26.2508 11.9484 26.2508 12.125C26.2508 12.3015 26.2152 12.4764 26.146 12.6395C26.0769 12.8026 25.9756 12.9508 25.8478 13.0757ZM16.2228 13.0757L11.6939 17.5L16.2228 21.9243C16.3506 22.0491 16.4519 22.1973 16.521 22.3604C16.5902 22.5236 16.6258 22.6984 16.6258 22.875C16.6258 23.0515 16.5902 23.2264 16.521 23.3895C16.4519 23.5526 16.3506 23.7008 16.2228 23.8257C16.0951 23.9505 15.9434 24.0496 15.7765 24.1171C15.6096 24.1847 15.4307 24.2195 15.25 24.2195C15.0693 24.2195 14.8904 24.1847 14.7235 24.1171C14.5566 24.0496 14.4049 23.9505 14.2772 23.8257L8.77719 18.4507C8.64934 18.3259 8.54793 18.1777 8.47873 18.0145C8.40953 17.8514 8.37392 17.6766 8.37392 17.5C8.37392 17.3234 8.40953 17.1485 8.47873 16.9854C8.54793 16.8223 8.64934 16.6741 8.77719 16.5493L14.2772 11.1743C14.5352 10.9221 14.8851 10.7805 15.25 10.7805C15.6149 10.7805 15.9648 10.9221 16.2228 11.1743C16.4808 11.4264 16.6258 11.7684 16.6258 12.125C16.6258 12.4816 16.4808 12.8235 16.2228 13.0757Z" fill="#999999"/>
</svg>
