<svg width="18" height="18" viewBox="0 0 18 18" fill="none" xmlns="http://www.w3.org/2000/svg">
<path d="M15.2575 2.61776C13.5813 0.941638 11.308 -1.76609e-08 8.93761 0C6.56721 1.76609e-08 4.29389 0.941638 2.61777 2.61777C0.941638 4.29389 1.76609e-08 6.56721 0 8.93761C-1.76609e-08 11.308 0.941638 13.5813 2.61776 15.2575C4.29389 16.9336 6.56721 17.8752 8.93761 17.8752C11.308 17.8752 13.5813 16.9336 15.2575 15.2575C16.9336 13.5813 17.8752 11.308 17.8752 8.93761C17.8752 6.56721 16.9336 4.29389 15.2575 2.61776ZM14.2855 14.2855C13.2278 15.343 11.8803 16.0632 10.4134 16.3549C8.94641 16.6466 7.4259 16.4968 6.0441 15.9243C4.6623 15.3519 3.48126 14.3826 2.65033 13.139C1.8194 11.8954 1.3759 10.4333 1.3759 8.93761C1.3759 7.44194 1.8194 5.97985 2.65033 4.73623C3.48126 3.4926 4.6623 2.5233 6.0441 1.95088C7.4259 1.37846 8.94641 1.22863 10.4134 1.52034C11.8803 1.81205 13.2278 2.5322 14.2855 3.58972C15.7017 5.00922 16.497 6.93248 16.497 8.93761C16.497 10.9427 15.7017 12.866 14.2855 14.2855ZM8.73652 8.4512C8.80044 8.51505 8.85115 8.59088 8.88574 8.67434C8.92034 8.7578 8.93815 8.84726 8.93815 8.93761C8.93815 9.02796 8.92034 9.11742 8.88574 9.20088C8.85115 9.28434 8.80044 9.36017 8.73652 9.42402L5.98652 12.174C5.92264 12.2379 5.84681 12.2886 5.76335 12.3231C5.67989 12.3577 5.59044 12.3755 5.50011 12.3755C5.40977 12.3755 5.32033 12.3577 5.23687 12.3231C5.15341 12.2886 5.07758 12.2379 5.0137 12.174C4.94983 12.1101 4.89916 12.0343 4.86459 11.9509C4.83002 11.8674 4.81223 11.7779 4.81223 11.6876C4.81223 11.5973 4.83002 11.5078 4.86459 11.4244C4.89916 11.3409 4.94983 11.2651 5.0137 11.2012L7.27816 8.93761L5.0137 6.67402C4.8847 6.54501 4.81223 6.37005 4.81223 6.18761C4.81223 6.00517 4.8847 5.83021 5.0137 5.7012C5.14271 5.5722 5.31767 5.49973 5.50011 5.49973C5.68255 5.49973 5.85751 5.5722 5.98652 5.7012L8.73652 8.4512ZM13.549 8.4512C13.6129 8.51505 13.6636 8.59088 13.6982 8.67434C13.7328 8.7578 13.7506 8.84726 13.7506 8.93761C13.7506 9.02796 13.7328 9.11742 13.6982 9.20088C13.6636 9.28434 13.6129 9.36017 13.549 9.42402L10.799 12.174C10.67 12.303 10.495 12.3755 10.3126 12.3755C10.1302 12.3755 9.9552 12.303 9.8262 12.174C9.6972 12.045 9.62473 11.87 9.62473 11.6876C9.62473 11.5052 9.6972 11.3302 9.8262 11.2012L12.0907 8.93761L9.8262 6.67402C9.6972 6.54501 9.62473 6.37005 9.62473 6.18761C9.62473 6.00517 9.6972 5.83021 9.8262 5.7012C9.9552 5.5722 10.1302 5.49973 10.3126 5.49973C10.495 5.49973 10.67 5.5722 10.799 5.7012L13.549 8.4512Z" fill="white"/>
</svg>
