<svg width="40" height="34" viewBox="0 0 40 34" fill="none" xmlns="http://www.w3.org/2000/svg">
<path d="M31.6264 13.2219C31.6264 8.73084 29.0594 4.82801 25.3152 2.90242V1.01517C25.3152 0.454504 24.8605 0 24.2997 0H15.7528C15.192 0 14.7373 0.454504 14.7373 1.01517V2.90243C10.9932 4.82803 8.42615 8.73084 8.42615 13.2219C8.42615 17.4879 10.7427 21.2226 14.1839 23.2367L12.6631 31.3817H12.1369C11.5761 31.3817 11.1214 31.8362 11.1214 32.3969V33.6123C11.1214 33.8264 11.2951 34 11.5093 34H28.5432C28.7574 34 28.9311 33.8264 28.9311 33.6123V32.3969C28.9311 31.8362 28.4764 31.3817 27.9156 31.3817H27.3894L25.8686 23.2367C29.3099 21.2227 31.6264 17.4879 31.6264 13.2219ZM18.6445 24.9501C19.0499 24.7118 19.5219 24.5746 20.0263 24.5746C20.5306 24.5746 21.0026 24.7118 21.408 24.9501C21.5512 25.0343 21.6859 25.1311 21.8109 25.2391L17.3438 27.8174C17.3122 27.6513 17.2951 27.4802 17.2951 27.305C17.2951 27.0142 17.341 26.7342 17.4252 26.4714C17.6317 25.8269 18.0711 25.2871 18.6445 24.9501ZM22.7574 27.305C22.7574 28.8129 21.5346 30.0353 20.0263 30.0353C19.3438 30.0353 18.7204 29.7845 18.2416 29.3708L22.7087 26.7925C22.7403 26.9586 22.7574 27.1297 22.7574 27.305ZM25.0538 22.161H14.9987C11.8776 20.3998 9.76546 17.053 9.76546 13.2219C9.76546 8.85684 12.5072 5.12053 16.3592 3.64194H23.6933C27.5454 5.12053 30.2871 8.85684 30.2871 13.2219C30.2871 17.053 28.1749 20.3998 25.0538 22.161ZM16.3533 11.8941C14.6067 11.1047 12.5429 11.8832 11.7533 13.6295C11.3707 14.4754 11.3406 15.4196 11.6684 16.2882C11.9963 17.1568 12.6429 17.8457 13.4891 18.2281C13.9465 18.4348 14.4324 18.5385 14.9197 18.5385C15.3341 18.5385 15.7494 18.4635 16.1487 18.3129C17.0175 17.9851 17.7067 17.3387 18.0892 16.4928C18.4717 15.6469 18.5018 14.7026 18.1739 13.834C17.8461 12.9655 17.1995 12.2765 16.3533 11.8941ZM17.2756 16.1251C16.9913 16.7538 16.4791 17.2342 15.8335 17.4778C15.1877 17.7213 14.4859 17.699 13.8569 17.4148C13.2281 17.1305 12.7475 16.6185 12.5038 15.9731C12.2602 15.3275 12.2826 14.6258 12.5669 13.9971C12.5765 13.9758 12.5878 13.9557 12.5979 13.9347C13.0548 14.7011 13.7421 15.3411 14.6163 15.7362C15.4909 16.1314 16.4256 16.2241 17.303 16.0603C17.2939 16.0819 17.2853 16.1037 17.2756 16.1251ZM27.7319 13.4895C27.1154 12.7953 26.2654 12.3826 25.3383 12.3275C24.4109 12.2715 23.5183 12.5815 22.8239 13.1979C22.1294 13.8142 21.7166 14.664 21.6615 15.5907C21.6064 16.5174 21.9155 17.4101 22.5321 18.1043C23.2181 18.8768 24.174 19.271 25.134 19.271C25.9551 19.271 26.7793 18.9826 27.4402 18.396C28.8738 17.1238 29.0046 14.9227 27.7319 13.4895ZM26.8474 17.7286C26.8298 17.7442 26.8116 17.7589 26.7937 17.774C26.6894 16.8876 26.3231 16.0225 25.6859 15.305C25.0487 14.5874 24.2331 14.1217 23.3652 13.9134C23.3823 13.8973 23.399 13.881 23.4166 13.8653C23.9079 13.4293 24.5202 13.2152 25.1305 13.2152C25.8439 13.2152 26.5545 13.5081 27.0643 14.0821C28.0101 15.1473 27.9128 16.783 26.8474 17.7286ZM23.9403 9.06579C23.6649 7.16922 21.8972 5.85023 20.0003 6.12553C18.1032 6.40083 16.7838 8.16778 17.0592 10.0643C17.3101 11.7925 18.7996 13.041 20.4976 13.041C20.663 13.041 20.8307 13.029 20.9992 13.0046C22.8963 12.7292 24.2157 10.9623 23.9403 9.06579ZM20.8709 12.1213C19.4609 12.3254 18.1474 11.3455 17.9428 9.93612C17.9394 9.9128 17.9372 9.88959 17.9344 9.86633C18.7324 10.2664 19.6567 10.4358 20.6065 10.298C21.5564 10.1602 22.3939 9.73497 23.045 9.12452C23.049 9.14765 23.0534 9.17064 23.0567 9.19402C23.2614 10.6035 22.2808 11.9166 20.8709 12.1213ZM39.9941 16.4712C39.9585 16.6901 39.769 16.8458 39.554 16.8458C39.5302 16.8458 39.506 16.8439 39.4817 16.8399L34.7836 16.0754C34.5403 16.0358 34.3751 15.8065 34.4147 15.5632C34.4544 15.3199 34.6834 15.1549 34.9271 15.1944L39.6252 15.9589C39.8686 15.9985 40.0337 16.2278 39.9941 16.4712ZM34.348 10.5023C34.3019 10.2602 34.4611 10.0266 34.7033 9.98063L39.3797 9.09269C39.6223 9.04618 39.8556 9.2057 39.9016 9.44787C39.9476 9.69003 39.7885 9.92358 39.5463 9.96956L34.8699 10.8575C34.8417 10.8629 34.8137 10.8654 34.7861 10.8654C34.5759 10.8654 34.3886 10.7163 34.348 10.5023ZM37.2565 3.49148L33.1658 5.92488C33.0942 5.96747 33.0155 5.98769 32.938 5.98769C32.7857 5.98769 32.6374 5.90981 32.5538 5.76959C32.4278 5.55772 32.4973 5.28388 32.7092 5.1578L36.7998 2.7244C37.0118 2.5984 37.2857 2.66789 37.4118 2.87969C37.5378 3.09156 37.4683 3.3654 37.2565 3.49148ZM7.63084 5.5518C7.54641 5.68825 7.4003 5.76329 7.2508 5.76329C7.17067 5.76329 7.08946 5.74168 7.01633 5.6964L2.96889 3.19197C2.75918 3.06227 2.69443 2.78721 2.82424 2.57764C2.95397 2.36799 3.22912 2.30334 3.43876 2.43303L7.48619 4.93747C7.6959 5.06716 7.76065 5.34223 7.63084 5.5518ZM5.75431 10.2526C5.7104 10.4633 5.52469 10.6081 5.31767 10.6081C5.28753 10.6081 5.25692 10.605 5.22624 10.5986L0.566051 9.62907C0.32466 9.57879 0.169705 9.34247 0.219921 9.10115C0.270214 8.85983 0.506222 8.70492 0.747998 8.75513L5.40818 9.7247C5.64957 9.77498 5.80453 10.0113 5.75431 10.2526ZM5.59913 15.3115C5.6345 15.5555 5.46532 15.7819 5.22131 15.8172L0.510452 16.4995C0.488766 16.5026 0.467233 16.5041 0.445932 16.5041C0.227688 16.5041 0.0368201 16.344 0.00467554 16.1218C-0.0306988 15.8778 0.138483 15.6514 0.382489 15.6161L5.09335 14.9338C5.33743 14.8987 5.56383 15.0677 5.59913 15.3115Z" fill="#FF6631"/>
</svg>
