<svg width="20" height="20" viewBox="0 0 20 20" fill="none" xmlns="http://www.w3.org/2000/svg">
<path d="M17.9945 11.0203C17.762 10.8412 17.4913 10.7182 17.2035 10.6609C16.9157 10.6036 16.6185 10.6135 16.3352 10.6898L13.0664 11.4414C13.1425 11.1201 13.1448 10.7858 13.0733 10.4636C13.0017 10.1413 12.8582 9.83934 12.6534 9.58041C12.4486 9.32149 12.1878 9.11228 11.8907 8.96847C11.5935 8.82465 11.2676 8.74996 10.9375 8.75H7.02656C6.69812 8.74918 6.37278 8.81345 6.06932 8.93909C5.76587 9.06474 5.49032 9.24927 5.25859 9.48203L3.49141 11.25H1.25C0.918479 11.25 0.600537 11.3817 0.366117 11.6161C0.131696 11.8505 0 12.1685 0 12.5L0 15.625C0 15.9565 0.131696 16.2745 0.366117 16.5089C0.600537 16.7433 0.918479 16.875 1.25 16.875H9.375C9.4261 16.875 9.47701 16.8687 9.52656 16.8562L14.5266 15.6062C14.5584 15.5987 14.5896 15.5882 14.6195 15.575L17.6562 14.2828L17.6906 14.2672C17.9825 14.1214 18.2324 13.9036 18.4168 13.6345C18.6013 13.3654 18.7142 13.0537 18.7449 12.7289C18.7756 12.4041 18.7231 12.0768 18.5924 11.7779C18.4617 11.479 18.257 11.2183 17.9977 11.0203H17.9945ZM1.25 12.5H3.125V15.625H1.25V12.5ZM17.143 13.1414L14.1742 14.4055L9.29688 15.625H4.375V12.1336L6.14297 10.3664C6.25862 10.2498 6.39629 10.1574 6.54798 10.0945C6.69967 10.0316 6.86235 9.99948 7.02656 10H10.9375C11.1861 10 11.4246 10.0988 11.6004 10.2746C11.7762 10.4504 11.875 10.6889 11.875 10.9375C11.875 11.1861 11.7762 11.4246 11.6004 11.6004C11.4246 11.7762 11.1861 11.875 10.9375 11.875H8.75C8.58424 11.875 8.42527 11.9408 8.30806 12.0581C8.19085 12.1753 8.125 12.3342 8.125 12.5C8.125 12.6658 8.19085 12.8247 8.30806 12.9419C8.42527 13.0592 8.58424 13.125 8.75 13.125H11.25C11.297 13.1249 11.3439 13.1196 11.3898 13.1094L16.6242 11.9055L16.6484 11.8992C16.8082 11.8549 16.9788 11.8712 17.1273 11.945C17.2758 12.0188 17.3917 12.1449 17.4528 12.2991C17.5139 12.4533 17.5158 12.6246 17.4582 12.7801C17.4005 12.9356 17.2874 13.0643 17.1406 13.1414H17.143ZM12.0578 6.06719C11.9405 5.94991 11.8747 5.79085 11.8747 5.625C11.8747 5.45915 11.9405 5.30009 12.0578 5.18281C12.1751 5.06554 12.3341 4.99965 12.5 4.99965C12.6659 4.99965 12.8249 5.06554 12.9422 5.18281L14.375 6.61641V1.875C14.375 1.70924 14.4408 1.55027 14.5581 1.43306C14.6753 1.31585 14.8342 1.25 15 1.25C15.1658 1.25 15.3247 1.31585 15.4419 1.43306C15.5592 1.55027 15.625 1.70924 15.625 1.875V6.61641L17.0578 5.18281C17.1751 5.06554 17.3341 4.99965 17.5 4.99965C17.6659 4.99965 17.8249 5.06554 17.9422 5.18281C18.0595 5.30009 18.1253 5.45915 18.1253 5.625C18.1253 5.79085 18.0595 5.94991 17.9422 6.06719L15.4422 8.56719C15.3841 8.6253 15.3152 8.6714 15.2393 8.70285C15.1635 8.7343 15.0821 8.75049 15 8.75049C14.9179 8.75049 14.8365 8.7343 14.7607 8.70285C14.6848 8.6714 14.6159 8.6253 14.5578 8.56719L12.0578 6.06719Z" fill="#494848"/>
</svg>
