<svg width="20" height="21" viewBox="0 0 20 21" fill="none" xmlns="http://www.w3.org/2000/svg">
<path d="M10 1.99658C8.39303 1.99658 6.82214 2.47311 5.486 3.36589C4.14985 4.25868 3.10844 5.52763 2.49348 7.01228C1.87852 8.49693 1.71762 10.1306 2.03112 11.7067C2.34463 13.2828 3.11846 14.7305 4.25476 15.8668C5.39106 17.0031 6.8388 17.777 8.4149 18.0905C9.99099 18.404 11.6247 18.2431 13.1093 17.6281C14.594 17.0131 15.8629 15.9717 16.7557 14.6356C17.6485 13.2994 18.125 11.7286 18.125 10.1216C18.1227 7.9674 17.266 5.90209 15.7427 4.37885C14.2195 2.85561 12.1542 1.99886 10 1.99658ZM10 16.9966C8.64026 16.9966 7.31105 16.5934 6.18046 15.8379C5.04987 15.0825 4.16868 14.0088 3.64833 12.7525C3.12798 11.4963 2.99183 10.114 3.2571 8.78034C3.52238 7.44672 4.17716 6.22171 5.13864 5.26022C6.10013 4.29874 7.32514 3.64396 8.65876 3.37868C9.99238 3.11341 11.3747 3.24956 12.631 3.76991C13.8872 4.29026 14.9609 5.17145 15.7164 6.30204C16.4718 7.43262 16.875 8.76184 16.875 10.1216C16.8729 11.9443 16.1479 13.6918 14.8591 14.9807C13.5702 16.2695 11.8227 16.9945 10 16.9966ZM11.25 13.8716C11.25 14.0373 11.1842 14.1963 11.0669 14.3135C10.9497 14.4307 10.7908 14.4966 10.625 14.4966C10.2935 14.4966 9.97554 14.3649 9.74112 14.1305C9.5067 13.896 9.375 13.5781 9.375 13.2466V10.1216C9.20924 10.1216 9.05027 10.0557 8.93306 9.93852C8.81585 9.82131 8.75 9.66234 8.75 9.49658C8.75 9.33082 8.81585 9.17185 8.93306 9.05464C9.05027 8.93743 9.20924 8.87158 9.375 8.87158C9.70652 8.87158 10.0245 9.00328 10.2589 9.2377C10.4933 9.47212 10.625 9.79006 10.625 10.1216V13.2466C10.7908 13.2466 10.9497 13.3124 11.0669 13.4296C11.1842 13.5469 11.25 13.7058 11.25 13.8716ZM8.75 6.68408C8.75 6.49866 8.80499 6.31741 8.908 6.16324C9.01101 6.00906 9.15743 5.8889 9.32874 5.81795C9.50004 5.74699 9.68854 5.72842 9.8704 5.7646C10.0523 5.80077 10.2193 5.89006 10.3504 6.02117C10.4815 6.15228 10.5708 6.31933 10.607 6.50118C10.6432 6.68304 10.6246 6.87154 10.5536 7.04285C10.4827 7.21415 10.3625 7.36057 10.2084 7.46358C10.0542 7.5666 9.87292 7.62158 9.6875 7.62158C9.43886 7.62158 9.20041 7.52281 9.02459 7.34699C8.84878 7.17118 8.75 6.93272 8.75 6.68408Z" fill="#999999"/>
</svg>
