<svg width="24" height="24" viewBox="0 0 24 24" fill="none" xmlns="http://www.w3.org/2000/svg">
<path d="M12.3104 23.3453C12.2108 23.3453 12.1112 23.3258 12.0164 23.2867H12.0145C11.9832 23.273 11.953 23.2584 11.9227 23.2408C11.9227 23.2408 11.9217 23.2408 11.9217 23.2398L4.30355 18.8414C4.06429 18.7027 3.91586 18.4478 3.91586 18.1705V9.54159L2.07015 5.49569C1.90414 5.13241 2.04183 4.70272 2.38754 4.5035L10.0077 0.104091C10.1961 -0.00528434 10.4227 -0.0296984 10.6317 0.0367079C10.8397 0.103114 11.0096 0.254481 11.1004 0.4537L12.911 4.42343L17.6131 7.13827L22.1053 4.54452C22.412 4.36581 22.8016 4.4205 23.0487 4.67538C23.2957 4.93026 23.3387 5.31991 23.1532 5.62167L20.7059 9.59237V18.1705C20.7059 18.4478 20.5575 18.7037 20.3182 18.8414L12.6981 23.2408C12.6746 23.2545 12.6502 23.2672 12.6258 23.2779C12.5262 23.3228 12.4178 23.3453 12.3104 23.3453ZM13.0858 14.2193V21.2271L19.1551 17.7232V10.7154L13.0858 14.2193ZM5.46664 17.7232L11.535 21.2271V14.2193L5.46664 10.7154V17.7232ZM6.24105 9.37265L11.535 12.4293V6.316L6.24105 9.37265ZM15.4305 10.1881L14.5819 11.566L19.3748 8.79745L20.2235 7.42147L15.4305 10.1881ZM13.0858 6.31405V11.0387L14.2147 9.20761C14.2821 9.09921 14.3748 9.00839 14.4862 8.94393L16.0633 8.03378L13.0858 6.31405ZM3.7723 5.49374L5.04183 8.27499L11.3133 4.6539L10.0438 1.87265L3.7723 5.49374Z" fill="#484848"/>
</svg>
