<svg width="57" height="61" viewBox="0 0 57 61" fill="none" xmlns="http://www.w3.org/2000/svg">
<path d="M27.528 60.5176C26.5796 60.5176 25.6433 60.2677 24.8221 59.7945L7.32863 49.6953C5.65219 48.7224 4.61368 46.9213 4.61368 44.9925V25.9032L1.1226 17.6372C0.0650564 15.1195 1.04648 12.1927 3.40392 10.8263L20.8954 0.727559C21.7276 0.250364 22.6649 0 23.6113 0C24.1822 0 24.8431 0.110661 25.3809 0.296431C26.823 0.78314 28.0047 1.88274 28.6086 3.30882L31.8213 10.9169L41.5124 16.512L48.6127 12.4131C49.4329 11.9379 50.3723 11.6855 51.3277 11.6855C52.922 11.6855 54.4292 12.3815 55.4617 13.5953C57.1702 15.5992 57.1952 18.5315 55.5208 20.5659L50.4434 26.7479V44.9925C50.4434 46.9218 49.4069 48.7214 47.7384 49.6893L30.243 59.79C29.4378 60.2632 28.4944 60.5176 27.528 60.5176Z" fill="white"/>
<path d="M40.9797 18.573L41.5125 18.8807L42.0453 18.573" stroke="#EFEFEF" stroke-width="0.5906" stroke-miterlimit="10" stroke-linecap="round"/>
<path d="M43.371 17.8071L49.6382 14.1889C50.1479 13.8935 50.7338 13.7363 51.3276 13.7363C52.3201 13.7363 53.2574 14.1694 53.9004 14.9245C54.9639 16.1723 54.9789 17.997 53.9374 19.2628L48.3923 26.0132V44.9923C48.3923 46.1925 47.7474 47.3127 46.7089 47.915L29.2174 58.0137C28.7197 58.3062 28.1289 58.4664 27.528 58.4664C26.9381 58.4664 26.3563 58.3112 25.8445 58.0167L8.35407 47.919C7.30955 47.3127 6.66461 46.1925 6.66461 44.9923V25.4879L3.0123 16.8393C2.35334 15.271 2.96523 13.4509 4.43237 12.6006L21.9208 2.50344C22.4406 2.20551 23.0224 2.05078 23.6113 2.05078C23.9538 2.05078 24.3884 2.12339 24.7119 2.23505C25.6032 2.53599 26.3443 3.22149 26.7208 4.10928L30.1999 12.3488L40.3166 18.1899" stroke="#EFEFEF" stroke-width="0.5906" stroke-miterlimit="10" stroke-linecap="round" stroke-dasharray="1.19 1.49"/>
<path d="M10.0439 24.803V44.9922L27.5283 55.0868V34.8976L10.0439 24.803Z" fill="#C1C1C1" stroke="#939393" stroke-width="0.590621" stroke-linecap="round" stroke-linejoin="round"/>
<path d="M27.5282 34.8976V55.0868L45.0126 44.9922V24.803L27.5282 34.8976Z" fill="#A3A3A3" stroke="#939393" stroke-width="0.590621" stroke-linecap="round" stroke-linejoin="round"/>
<path d="M10.0439 24.8029L27.5283 34.8975V14.7083L10.0439 24.8029Z" fill="#A3A3A3" stroke="#939393" stroke-width="0.590621" stroke-linecap="round" stroke-linejoin="round"/>
<path d="M27.5282 14.7083V34.8975L45.0126 24.8029L27.5282 14.7083Z" fill="#C1C1C1" stroke="#939393" stroke-width="0.590621" stroke-linecap="round" stroke-linejoin="round"/>
<path d="M10.044 24.8028L27.5284 14.7082L23.6106 5.42993L6.12622 15.5245L10.044 24.8028Z" fill="#E2E2E2" stroke="#939393" stroke-width="0.590621" stroke-linecap="round" stroke-linejoin="round"/>
<path d="M27.5282 34.8983L45.0126 24.8037L51.328 17.1162L33.8436 27.2108L27.5282 34.8983Z" fill="#8C8C8C" stroke="#939393" stroke-width="0.590621" stroke-linecap="round" stroke-linejoin="round"/>
<path d="M10.0439 24.803V44.9922L27.5283 55.0868V34.8976L10.0439 24.803Z" fill="#C1C1C1" stroke="#939393" stroke-width="0.590621" stroke-linecap="round" stroke-linejoin="round"/>
<path d="M27.5282 34.8976V55.0868L45.0126 44.9922V24.803L27.5282 34.8976Z" fill="#A3A3A3" stroke="#939393" stroke-width="0.590621" stroke-linecap="round" stroke-linejoin="round"/>
<path d="M10.0439 24.8029L27.5283 34.8975V14.7083L10.0439 24.8029Z" fill="#ADADAD" stroke="#939393" stroke-width="0.590621" stroke-linecap="round" stroke-linejoin="round"/>
<path d="M27.5282 14.7083V34.8975L45.0126 24.8029L27.5282 14.7083Z" fill="#C1C1C1" stroke="#939393" stroke-width="0.590621" stroke-linecap="round" stroke-linejoin="round"/>
<path d="M10.044 24.8028L27.5284 14.7082L23.6106 5.42993L6.12622 15.5245L10.044 24.8028Z" fill="#E2E2E2" stroke="#939393" stroke-width="0.590621" stroke-linecap="round" stroke-linejoin="round"/>
<path d="M27.5282 34.8983L45.0126 24.8037L51.328 17.1162L33.8436 27.2108L27.5282 34.8983Z" fill="#AFAFAF" stroke="#939393" stroke-width="0.590621" stroke-linecap="round" stroke-linejoin="round"/>
<g style="mix-blend-mode:overlay">
<path d="M51.5594 16.9195C51.464 16.8079 51.3031 16.7803 51.1769 16.8533L41.5128 22.4328L27.7678 14.497L23.8899 5.31247C23.856 5.23243 23.7893 5.17072 23.7069 5.14311C23.6253 5.11492 23.5346 5.12478 23.4593 5.16796L5.97471 15.2626C5.84222 15.3391 5.78781 15.5019 5.84695 15.6427L9.74127 24.8651V44.9924C9.74127 45.1005 9.79884 45.2006 9.89269 45.2546L27.3769 55.3493C27.4238 55.3765 27.4759 55.3899 27.5283 55.3899C27.5807 55.3899 27.6328 55.3765 27.6797 55.3493L45.1643 45.2546C45.2582 45.2006 45.3157 45.1005 45.3157 44.9924V24.9116L51.5622 17.3079C51.6552 17.1947 51.654 17.0311 51.5594 16.9195Z" fill="#4DC9FF"/>
</g>
</svg>
