<svg xmlns="http://www.w3.org/2000/svg" width="120" height="44" fill="none">
    <g>
        <path fill="#fff"
              d="M31 1v34h-8.3l-2.9 5.01c-.35.62-1.01 1-1.73 1-.71 0-1.37-.38-1.73-1L13.45 35h-3.44C5.04 35 1 30.96 1 25.99V10.01C1 5.04 5.04 1 10.01 1H31Z"/>
        <path fill="#F7BE00"
              d="M10.01 3.75H31v-1.5H10.01c-4.28 0-7.76 3.48-7.76 7.75v15.99c0 4.28 3.48 7.76 7.76 7.76h4.16l3.25 5.63c.14.24.38.39.65.39s.52-.15.65-.39l3.25-5.63H31v-1.5h-9.25c-.4 0-.76.22-.96.56l-.55.94-2.17 3.77-2.71-4.71c-.2-.34-.57-.56-.97-.56h-4.38a6.27 6.27 0 0 1-6.26-6.26V10c0-3.45 2.81-6.25 6.26-6.25Z"/>
        <path fill="#F7BE00"
              d="m25.35 13.96-6.985-3.821a1.26 1.26 0 0 0-1.22 0l-6.985 3.823a1.27 1.27 0 0 0-.66 1.111v7.592a1.27 1.27 0 0 0 .66 1.111l6.986 3.824a1.26 1.26 0 0 0 1.219 0l6.985-3.824a1.27 1.27 0 0 0 .66-1.111v-7.59a1.27 1.27 0 0 0-.66-1.114Zm-7.595-2.71 6.377 3.492-6.377 3.493-6.377-3.493 6.377-3.492Zm-6.985 4.604 6.35 3.475v6.81l-6.35-3.473v-6.812Zm7.62 10.285v-6.807l6.35-3.478v6.809l-6.35 3.476Zm9.477-17.04h-1.666V7.432a.667.667 0 1 0-1.334 0V9.1h-1.666a.667.667 0 0 0 0 1.333h1.666V12.1a.667.667 0 0 0 1.334 0v-1.667h1.666a.667.667 0 1 0 0-1.333Z"/>
    </g>
    <g>
        <path fill="#fff" d="M31 1h79a7 7 0 0 1 7 7v20a7 7 0 0 1-7 7H31V1Z"/>
        <path fill="#F7BE00"
              d="M31 2.25h79A5.75 5.75 0 0 1 115.75 8h-1.5A4.25 4.25 0 0 0 110 3.75H31v-1.5ZM115.75 28a5.75 5.75 0 0 1-5.75 5.75H31v-1.5h79a4.25 4.25 0 0 0 4.25-4.25h1.5ZM31 33V3v30Zm79-30.75A5.75 5.75 0 0 1 115.75 8v20a5.75 5.75 0 0 1-5.75 5.75v-1.5a4.25 4.25 0 0 0 4.25-4.25V8A4.25 4.25 0 0 0 110 3.75v-1.5Z"/>
        <path fill="#3D3D3D"
              d="M43.8 25.168V17.52c-.17.224-.347.432-.528.624-.17.192-.341.368-.512.528a6.435 6.435 0 0 0-.816-.768 8.968 8.968 0 0 0-.912-.656c.288-.224.597-.544.928-.96.33-.416.656-.875.976-1.376.33-.512.64-1.03.928-1.552a19.25 19.25 0 0 0 .736-1.504c.203-.47.341-.864.416-1.184l2.144.736c-.224.757-.56 1.573-1.008 2.448v2.432c.31-.384.613-.827.912-1.328.31-.512.592-1.035.848-1.568.267-.544.49-1.067.672-1.568.192-.501.325-.939.4-1.312l2.176.64a14.82 14.82 0 0 1-.656 1.936h5.728v2.176h-4.08v1.36h3.552v2.064h-3.552v1.344h3.552v2.176h-3.552v2.912H49.8v-9.856h-.336c-.33.587-.683 1.141-1.056 1.664-.363.512-.73.955-1.104 1.328a4.531 4.531 0 0 0-.512-.464 6.863 6.863 0 0 0-.64-.448v7.824H43.8Zm20.544.08a9.797 9.797 0 0 0-.608-.928 6.324 6.324 0 0 0-.72-.832 12.966 12.966 0 0 0 1.856-1.12c.555-.416 1.056-.87 1.504-1.36a14.92 14.92 0 0 1-.928-2.56 24.416 24.416 0 0 1-.576-3.28h-3.856v.432c0 .139-.005.283-.016.432v.432h3.76c0 .587-.016 1.184-.048 1.792a38.326 38.326 0 0 1-.096 1.712c-.043.523-.101.96-.176 1.312-.15.757-.453 1.29-.912 1.6-.448.31-1.056.464-1.824.464h-.736c-.021-.245-.07-.565-.144-.96a8.246 8.246 0 0 0-.224-1.04 10.5 10.5 0 0 1-.56 1.904 9.407 9.407 0 0 1-.848 1.664 6.386 6.386 0 0 0-1.04-.624c-.395-.181-.768-.33-1.12-.448a8.924 8.924 0 0 0 1.376-3.456c.117-.63.192-1.328.224-2.096.043-.779.064-1.664.064-2.656v-2.544h6a62.585 62.585 0 0 1-.048-2.528h2.336a46.03 46.03 0 0 0 .064 2.528h1.824a10.58 10.58 0 0 0-1.392-1.216l1.456-1.44a8.13 8.13 0 0 1 1.152.928c.416.373.768.725 1.056 1.056-.107.085-.23.187-.368.304l-.4.368h1.68v2.08h-4.848c.075.65.17 1.275.288 1.872.128.597.283 1.163.464 1.696.245-.48.459-.976.64-1.488.192-.523.357-1.061.496-1.616l2.16.656a17.796 17.796 0 0 1-.848 2.544c-.341.8-.747 1.547-1.216 2.24.373.47.795.87 1.264 1.2.075-.245.133-.496.176-.752.053-.256.096-.485.128-.688.16.107.368.224.624.352.256.117.517.224.784.32.277.085.512.155.704.208a10.231 10.231 0 0 1-.384 1.52c-.16.501-.33.917-.512 1.248-.203.363-.485.592-.848.688-.363.096-.747.021-1.152-.224a10.254 10.254 0 0 1-1.248-.896 8.17 8.17 0 0 1-1.104-1.088 12.293 12.293 0 0 1-3.28 2.288Zm-3.696-4.176h.608c.373 0 .624-.048.752-.144.128-.107.213-.277.256-.512.053-.245.09-.533.112-.864.032-.33.048-.677.048-1.04h-1.488c-.032.47-.07.917-.112 1.344-.043.427-.101.832-.176 1.216Zm18.016 4.224c-.16-.267-.373-.587-.64-.96a3.985 3.985 0 0 0-.896-.944c1.035-.288 1.845-.597 2.432-.928.587-.33 1.013-.71 1.28-1.136a3.496 3.496 0 0 1-.32.08 1.48 1.48 0 0 1-.32.032c-.875 0-1.595-.24-2.16-.72-.555-.49-.853-1.184-.896-2.08a2.902 2.902 0 0 1 .352-1.552c.256-.47.619-.837 1.088-1.104a3.085 3.085 0 0 1 1.6-.416h.08c.032 0 .059.005.08.016a7.685 7.685 0 0 1-.048-.88 60.29 60.29 0 0 0-2.512.144c-.81.064-1.552.139-2.224.224-.661.085-1.21.181-1.648.288l-.304-2.272c.341-.021.853-.048 1.536-.08l2.368-.112a880.53 880.53 0 0 1 2.784-.128v-2.08h2.288v1.984a258.89 258.89 0 0 1 2.416-.08 85.765 85.765 0 0 1 3.296-.08l-.16 2.288c-.587-.085-1.376-.139-2.368-.16a62.383 62.383 0 0 0-3.184-.016c0 .352.01.704.032 1.056.021.341.048.667.08.976.576.672.864 1.563.864 2.672 0 1.515-.427 2.768-1.28 3.76s-2.059 1.728-3.616 2.208Zm1.552-5.808c.277-.021.485-.117.624-.288.15-.181.224-.4.224-.656 0-.16-.037-.347-.112-.56a.895.895 0 0 0-.736-.368c-.267 0-.49.09-.672.272a.813.813 0 0 0-.256.656c.01.277.101.512.272.704a.77.77 0 0 0 .656.24Zm17.216 5.248c-.917 0-1.675-.123-2.272-.368-.597-.245-1.04-.576-1.328-.992a2.39 2.39 0 0 1-.432-1.392c0-.501.117-.928.352-1.28.245-.363.565-.64.96-.832a3.026 3.026 0 0 1 1.312-.288c.597 0 1.104.117 1.52.352.427.224.773.528 1.04.912s.459.805.576 1.264c.597-.416.896-1.045.896-1.888a2.07 2.07 0 0 0-.304-1.104 2.2 2.2 0 0 0-.864-.816c-.373-.203-.81-.304-1.312-.304-.715 0-1.312.08-1.792.24-.48.15-.907.39-1.28.72-.203.17-.459.39-.768.656-.31.256-.603.496-.88.72l-1.632-1.728c.448-.256.928-.576 1.44-.96.523-.395 1.05-.832 1.584-1.312.533-.48 1.045-.976 1.536-1.488.49-.523.939-1.04 1.344-1.552-.48.096-.97.192-1.472.288a27.773 27.773 0 0 1-2.496.32l-.432-2.24c.277.021.635.021 1.072 0 .437-.021.907-.053 1.408-.096a58.329 58.329 0 0 0 1.504-.176c.49-.075.928-.15 1.312-.224.384-.085.672-.17.864-.256l1.808 1.184a13.4 13.4 0 0 1-1.44 2.128 27.87 27.87 0 0 1-1.936 2.144c.117-.043.245-.07.384-.08.15-.021.299-.032.448-.032.907 0 1.685.165 2.336.496.661.33 1.168.795 1.52 1.392.363.597.544 1.29.544 2.08 0 .832-.208 1.59-.624 2.272-.416.683-1.008 1.227-1.776 1.632-.757.405-1.664.608-2.72.608Zm-.528-2.16h.192a1.848 1.848 0 0 0-.368-.784c-.17-.203-.405-.304-.704-.304a.54.54 0 0 0-.304.096c-.096.053-.144.155-.144.304 0 .17.096.32.288.448.203.117.55.197 1.04.24Z"/>
    </g>
</svg>
