<svg xmlns="http://www.w3.org/2000/svg" width="39" height="45" fill="none"><g clip-path="url(#a)"><path fill="#fff" d="M18.072 41.34a2 2 0 0 1-1.732-1l-2.998-5.194h-2.793C5.283 35.147 1 30.864 1 25.599v-15.05C1 5.284 5.283 1 10.549 1h15.049c5.265 0 9.549 4.283 9.549 9.549v15.049c0 5.265-4.284 9.549-9.55 9.549h-2.794l-2.998 5.194a2 2 0 0 1-1.733 1Z"/><path stroke="#763EC6" stroke-linejoin="round" stroke-width="1.5" d="M25.597 3H10.548A7.549 7.549 0 0 0 3 10.549v15.049c0 4.169 3.38 7.549 7.548 7.549h3.949l3.576 6.194 3.576-6.194h3.948c4.17 0 7.55-3.38 7.55-7.55V10.55c0-4.17-3.38-7.549-7.55-7.549Z"/><path fill="#763EC6" d="M21.633 16.724a.66.66 0 0 1-.662.663h-5.296a.662.662 0 0 1 0-1.325h5.296a.661.661 0 0 1 .662.662Zm4.634 7.282c0 .706-.283 1.377-.777 1.872a2.624 2.624 0 0 1-1.871.776H14.35a2.609 2.609 0 0 1-1.871-.776 2.608 2.608 0 0 1-.777-1.872V13.415c0-.345-.141-.689-.389-.936a1.322 1.322 0 0 0-1.871 0 1.301 1.301 0 0 0-.388.936c0 .476.397.803.397.803.115.08.194.203.23.335a.641.641 0 0 1 0 .406.668.668 0 0 1-.247.318.65.65 0 0 1-.777-.009c-.097-.07-.927-.724-.927-1.853 0-.698.274-1.377.777-1.872a2.646 2.646 0 0 1 1.871-.776h8.005a.662.662 0 0 1 0 1.324h-5.72c.24.406.363.865.363 1.324v10.591c0 .353.132.689.388.936.247.256.583.388.936.388.344 0 .688-.132.935-.388.248-.247.389-.583.389-.936 0-.468-.406-.794-.406-.794a.635.635 0 0 1-.239-.327.638.638 0 0 1 0-.406.673.673 0 0 1 .248-.335.705.705 0 0 1 .397-.124h7.282v-5.296a.662.662 0 0 1 1.324 0v5.296h.662c.14 0 .282.053.397.133.097.07.927.732.927 1.853Zm-1.325 0a1.057 1.057 0 0 0-.273-.662h-7.776c.07.221.097.442.097.662.009.468-.115.927-.353 1.324h6.982c.344 0 .688-.132.935-.388.247-.247.389-.583.389-.936Zm-3.971-5.296h-5.296a.662.662 0 0 0 0 1.324h5.296a.66.66 0 0 0 .467-1.13.661.661 0 0 0-.467-.194Zm4.981-7.956h-1.655V9.099a.662.662 0 1 0-1.324 0v1.655H21.32a.662.662 0 0 0 0 1.324h1.654v1.655a.662.662 0 0 0 1.324 0v-1.655h1.655a.662.662 0 1 0 0-1.324Z"/></g><defs><clipPath id="a"><path fill="#fff" d="M1 1h34.147v40.341H1z"/></clipPath></defs></svg>
