<svg width="40" height="45" viewBox="0 0 40 45" fill="none" xmlns="http://www.w3.org/2000/svg">
<g>
<path d="M18.9521 41.3408C18.2373 41.3408 17.5771 40.96 17.2197 40.3408L14.2217 35.1465H11.4277C6.16211 35.1465 1.87891 30.8633 1.87891 25.5977V10.5488C1.87891 5.2832 6.16211 1 11.4277 1H26.4766C31.7422 1 36.0254 5.2832 36.0254 10.5488V25.5977C36.0254 30.8633 31.7422 35.1465 26.4766 35.1465H23.6826L20.6846 40.3408C20.3271 40.96 19.667 41.3408 18.9521 41.3408Z" fill="white"/>
<path d="M26.4766 2.99951H11.4277C7.25854 2.99951 3.87866 6.37927 3.87866 10.5485V25.5973C3.87866 29.7665 7.25854 33.1462 11.4277 33.1462H15.376L18.9521 39.3403L22.5283 33.1462H26.4766C30.6455 33.1462 34.0254 29.7665 34.0254 25.5973V10.5485C34.0254 6.37927 30.6455 2.99951 26.4766 2.99951Z" stroke="#FFCE00" stroke-width="1.5" stroke-linejoin="round"/>
<path d="M26.3039 13.9953L19.3188 10.1733C19.1322 10.0702 18.9224 10.0161 18.7092 10.0161C18.4959 10.0161 18.2862 10.0702 18.0995 10.1733L11.1144 13.9969C10.9149 14.1061 10.7484 14.2668 10.6322 14.4623C10.516 14.6577 10.4545 14.8808 10.454 15.1082V22.6998C10.4545 22.9271 10.516 23.1502 10.6322 23.3457C10.7484 23.5412 10.9149 23.7019 11.1144 23.8111L18.0995 27.6346C18.2862 27.7377 18.4959 27.7919 18.7092 27.7919C18.9224 27.7919 19.1322 27.7377 19.3188 27.6346L26.3039 23.8111C26.5034 23.7019 26.67 23.5412 26.7861 23.3457C26.9023 23.1502 26.9638 22.9271 26.9643 22.6998V15.109C26.9643 14.8812 26.9029 14.6576 26.7867 14.4617C26.6705 14.2658 26.5037 14.1047 26.3039 13.9953ZM18.7092 11.2846L25.0863 14.7772L18.7092 18.2698L12.332 14.7772L18.7092 11.2846ZM11.724 15.8885L18.0741 19.3636V26.1733L11.724 22.7006V15.8885ZM19.3442 26.1733V19.3667L25.6943 15.8885V22.6974L19.3442 26.1733ZM28.8215 9.13372H27.1548V7.46699C27.1548 7.09875 26.8564 6.80029 26.4881 6.80029C26.12 6.80029 25.8214 7.09875 25.8214 7.46699V9.13372H24.1546C23.7866 9.13372 23.488 9.43219 23.488 9.80042C23.488 10.1686 23.7866 10.4671 24.1546 10.4671H25.8214V12.1339C25.8214 12.502 26.12 12.8005 26.4881 12.8005C26.8564 12.8005 27.1548 12.502 27.1548 12.1339V10.4671H28.8215C29.1898 10.4671 29.4882 10.1686 29.4882 9.80042C29.4882 9.43219 29.1898 9.13372 28.8215 9.13372Z" fill="#FFCE00"/>
</g>
</svg>
