<svg width="39" height="45" viewBox="0 0 39 45" fill="none" xmlns="http://www.w3.org/2000/svg">
<g clip-path="url(#clip0_458_12303)">
<path d="M18.0723 41.4082C17.3574 41.4082 16.6973 41.0273 16.3398 40.4082L13.3418 35.2139H10.5488C5.2832 35.2139 1 30.9307 1 25.665V10.6162C1 5.35059 5.2832 1.06738 10.5488 1.06738H25.5977C30.8633 1.06738 35.1465 5.35059 35.1465 10.6162V25.665C35.1465 30.9307 30.8633 35.2139 25.5977 35.2139H22.8027L19.8047 40.4082C19.4473 41.0273 18.7871 41.4082 18.0723 41.4082Z" fill="white"/>
<path d="M25.5972 3.06738H10.5483C6.37915 3.06738 2.99951 6.44714 2.99951 10.6163V25.6652C2.99951 29.8344 6.37915 33.2141 10.5483 33.2141H14.4966L18.0728 39.4081L21.6489 33.2141H25.5972C29.7664 33.2141 33.1462 29.8344 33.1462 25.6652V10.6163C33.1462 6.44714 29.7664 3.06738 25.5972 3.06738Z" stroke="#73683A" stroke-width="1.5" stroke-linejoin="round"/>
<path d="M25.935 13.4773H11.535C11.344 13.4773 11.1609 13.4054 11.0259 13.2776C10.8909 13.1497 10.815 12.9763 10.815 12.7955C10.815 12.6146 10.8909 12.4412 11.0259 12.3133C11.1609 12.1855 11.344 12.1136 11.535 12.1136H23.775C23.966 12.1136 24.1491 12.0418 24.2841 11.9139C24.4191 11.7861 24.495 11.6126 24.495 11.4318C24.495 11.251 24.4191 11.0776 24.2841 10.9497C24.1491 10.8218 23.966 10.75 23.775 10.75H11.535C10.9621 10.75 10.4127 10.9655 10.0076 11.3491C9.60257 11.7327 9.375 12.253 9.375 12.7955V23.7045C9.375 24.247 9.60257 24.7673 10.0076 25.1509C10.4127 25.5345 10.9621 25.75 11.535 25.75H25.935C26.3169 25.75 26.6832 25.6063 26.9532 25.3506C27.2233 25.0949 27.375 24.748 27.375 24.3864V14.8409C27.375 14.4793 27.2233 14.1324 26.9532 13.8767C26.6832 13.6209 26.3169 13.4773 25.935 13.4773ZM25.935 24.3864H11.535C11.344 24.3864 11.1609 24.3145 11.0259 24.1867C10.8909 24.0588 10.815 23.8854 10.815 23.7045V14.7241C11.0462 14.8018 11.2897 14.8412 11.535 14.8409H25.935V24.3864ZM21.615 19.2727C21.615 19.0705 21.6783 18.8727 21.797 18.7045C21.9157 18.5363 22.0844 18.4053 22.2817 18.3279C22.479 18.2504 22.6962 18.2302 22.9057 18.2697C23.1152 18.3091 23.3076 18.4065 23.4587 18.5495C23.6097 18.6926 23.7126 18.8748 23.7542 19.0732C23.7959 19.2716 23.7745 19.4772 23.6928 19.6641C23.611 19.851 23.4726 20.0107 23.295 20.1231C23.1174 20.2355 22.9086 20.2955 22.695 20.2955C22.4086 20.2955 22.1339 20.1877 21.9313 19.9959C21.7288 19.8041 21.615 19.544 21.615 19.2727Z" fill="#73683A"/>
</g>
<defs>
<clipPath id="clip0_458_12303">
<rect width="34.1465" height="40.3408" fill="white" transform="translate(1 1.06738)"/>
</clipPath>
</defs>
</svg>
