<svg xmlns="http://www.w3.org/2000/svg" width="40" height="45" fill="none"><path fill="#fff" d="M18.998 41.362a2 2 0 0 1-1.732-1l-2.998-5.194h-2.794c-5.266 0-9.55-4.283-9.55-9.549V10.57c0-5.265 4.284-9.549 9.55-9.549h15.049c5.265 0 9.548 4.284 9.548 9.55v15.048c0 5.266-4.283 9.549-9.548 9.549h-2.794l-2.998 5.194a2 2 0 0 1-1.733 1Z"/><path stroke="#3E68C6" stroke-linejoin="round" stroke-width="1.5" d="M26.523 3.021h-15.05a7.549 7.549 0 0 0-7.548 7.55v15.048c0 4.17 3.38 7.55 7.549 7.55h3.948l3.576 6.193 3.576-6.194h3.948c4.17 0 7.55-3.38 7.55-7.549V10.57c0-4.169-3.38-7.549-7.55-7.549Z"/><path fill="#3E68C6" d="M27.736 12.186a.699.699 0 0 0-.538-.252H13.063l-.533-2.93a.7.7 0 0 0-.69-.575H9.673a.7.7 0 1 0 0 1.402h1.578l2.24 12.293c.065.364.226.705.466.987a2.454 2.454 0 1 0 3.89.74h3.98a2.454 2.454 0 1 0 2.216-1.402H15.56a.7.7 0 0 1-.69-.576l-.277-1.527h10.164a2.103 2.103 0 0 0 2.069-1.727l1.065-5.859a.702.702 0 0 0-.154-.574ZM16.683 24.902a1.052 1.052 0 1 1-2.103 0 1.052 1.052 0 0 1 2.103 0Zm8.412 0a1.052 1.052 0 1 1-2.104 0 1.052 1.052 0 0 1 2.104 0Zm.35-6.534a.7.7 0 0 1-.692.576H14.337l-1.02-5.608h13.04l-.912 5.032Z"/></svg>
