<svg width="39" height="45" viewBox="0 0 39 45" fill="none" xmlns="http://www.w3.org/2000/svg">
<g clip-path="url(#clip0_458_12319)">
<path d="M18.0723 41.749C17.3574 41.749 16.6973 41.3682 16.3398 40.749L13.3418 35.5547H10.5488C5.2832 35.5547 1 31.2715 1 26.0059V10.957C1 5.69141 5.2832 1.4082 10.5488 1.4082H25.5977C30.8633 1.4082 35.1465 5.69141 35.1465 10.957V26.0059C35.1465 31.2715 30.8633 35.5547 25.5977 35.5547H22.8027L19.8047 40.749C19.4473 41.3682 18.7871 41.749 18.0723 41.749Z" fill="white"/>
<path d="M25.5972 3.4082H10.5483C6.37915 3.4082 2.99951 6.78796 2.99951 10.9572V26.006C2.99951 30.1752 6.37915 33.5549 10.5483 33.5549H14.4966L18.0728 39.749L21.6489 33.5549H25.5972C29.7664 33.5549 33.1462 30.1752 33.1462 26.006V10.9572C33.1462 6.78796 29.7664 3.4082 25.5972 3.4082Z" stroke="#494848" stroke-width="1.5" stroke-linejoin="round"/>
<path d="M24.8701 9.62524H13.5097C12.8008 9.62524 12.1209 9.90687 11.6196 10.4082C11.1183 10.9095 10.8367 11.5894 10.8367 12.2983V26.3318C10.8367 26.509 10.9071 26.679 11.0324 26.8043C11.1577 26.9296 11.3277 27 11.5049 27H23.5336C23.7109 27 23.8808 26.9296 24.0062 26.8043C24.1315 26.679 24.2019 26.509 24.2019 26.3318C24.2019 26.1545 24.1315 25.9846 24.0062 25.8592C23.8808 25.7339 23.7109 25.6635 23.5336 25.6635H12.1732C12.1732 25.309 12.314 24.9691 12.5646 24.7184C12.8153 24.4678 13.1552 24.327 13.5097 24.327H24.8701C25.0474 24.327 25.2174 24.2566 25.3427 24.1313C25.468 24.0059 25.5384 23.836 25.5384 23.6587V10.2935C25.5384 10.1163 25.468 9.9463 25.3427 9.82097C25.2174 9.69565 25.0474 9.62524 24.8701 9.62524ZM24.2019 22.9905H13.5097C13.0404 22.9898 12.5792 23.1135 12.1732 23.3488V12.2983C12.1732 11.9438 12.314 11.6039 12.5646 11.3532C12.8153 11.1026 13.1552 10.9618 13.5097 10.9618H24.2019V22.9905Z" fill="#494848"/>
<path d="M18.0492 18.8307C17.7172 18.8307 17.528 18.6106 17.4817 18.1705L17.4122 17.128C17.3967 16.9118 17.4392 16.7457 17.5396 16.6299C17.6477 16.5064 17.806 16.4176 18.0145 16.3635C18.3543 16.2786 18.6168 16.1434 18.8021 15.9581C18.9875 15.765 19.0801 15.5141 19.0801 15.2052C19.0801 14.8654 18.9875 14.599 18.8021 14.4059C18.6245 14.2052 18.3697 14.1048 18.0377 14.1048C17.6207 14.1048 17.3156 14.2631 17.1226 14.5797C16.9759 14.7959 16.8446 14.9349 16.7288 14.9967C16.6129 15.0585 16.4585 15.0739 16.2654 15.043C16.0492 15.0044 15.8832 14.9156 15.7674 14.7766C15.6592 14.6299 15.6554 14.4523 15.7558 14.2438C15.9565 13.8345 16.2538 13.5102 16.6477 13.2708C17.0492 13.0314 17.5126 12.9117 18.0377 12.9117C18.5164 12.9117 18.9373 13.0044 19.3002 13.1897C19.6709 13.3673 19.9605 13.6299 20.169 13.9774C20.3775 14.3171 20.4817 14.7264 20.4817 15.2052C20.4817 15.7534 20.3118 16.1975 19.972 16.5372C19.64 16.877 19.196 17.1164 18.64 17.2554L18.5936 18.1705C18.555 18.6106 18.3736 18.8307 18.0492 18.8307ZM18.0377 21.3211C17.7983 21.3211 17.5898 21.2362 17.4122 21.0663C17.2423 20.8964 17.1573 20.6917 17.1573 20.4524C17.1573 20.2053 17.2423 19.9968 17.4122 19.8269C17.5898 19.657 17.7983 19.572 18.0377 19.572C18.2848 19.572 18.4933 19.657 18.6631 19.8269C18.8408 19.9968 18.9296 20.2053 18.9296 20.4524C18.9296 20.6917 18.8408 20.8964 18.6631 21.0663C18.4933 21.2362 18.2848 21.3211 18.0377 21.3211Z" fill="#494848"/>
</g>
<defs>
<clipPath id="clip0_458_12319">
<rect width="34.1465" height="40.3408" fill="white" transform="translate(1 1.4082)"/>
</clipPath>
</defs>
</svg>
