<svg xmlns="http://www.w3.org/2000/svg" width="39" height="45" fill="none"><path fill="#fff" d="M18.074 41.34a2 2 0 0 1-1.732-1l-2.998-5.194h-2.795C5.283 35.147 1 30.864 1 25.599v-15.05C1 5.284 5.283 1 10.549 1h15.049c5.265 0 9.549 4.283 9.549 9.549v15.049c0 5.265-4.284 9.549-9.55 9.549h-2.792l-2.998 5.194a2 2 0 0 1-1.733 1Z"/><path stroke="#2AE864" stroke-linejoin="round" stroke-width="1.5" d="M25.598 3H10.55C6.38 3 3 6.38 3 10.549v15.049c0 4.169 3.38 7.549 7.55 7.549h3.948l3.576 6.194 3.576-6.194h3.948c4.17 0 7.549-3.38 7.549-7.55V10.55c0-4.17-3.38-7.549-7.549-7.549Z"/><path fill="#2AE864" d="M27.775 15.347a.647.647 0 0 0-.41-.281l-3.728-.79v-2.982a.652.652 0 0 0-.652-.652H14.74a.649.649 0 0 0-.461.192l-2.285 2.293a.652.652 0 0 0-.19.46v1.584L8.71 16.218a.652.652 0 0 0-.409.825l3.145 9.292a.652.652 0 0 0 .825.409l6.823-2.31 6.013 1.275a.65.65 0 0 0 .772-.501l1.987-9.37a.65.65 0 0 0-.091-.491Zm-14.669-1.492 1.904-1.91h7.324v9.035h-9.228v-7.125Zm-.636 11.447-2.727-8.06 2.06-.697v5.086c0 .36.293.652.652.652h2.739l-.134.63a.65.65 0 0 0 .501.772l1.036.22-4.127 1.397Zm12.27-1-8.272-1.755.056-.264h6.461c.36 0 .652-.292.652-.652v-6.025l2.82.598-1.717 8.097Zm-3.652-9.867c0 .36-.292.651-.652.651h-4.854a.652.652 0 0 1 0-1.302h4.854c.36 0 .652.292.652.651Zm0 2.338c0 .359-.292.65-.652.65h-4.854a.652.652 0 0 1 0-1.302h4.854c.36 0 .652.292.652.652Z"/></svg>
