<svg width="43" height="48" viewBox="0 0 43 48" fill="none" xmlns="http://www.w3.org/2000/svg">
    <g>
        <path d="M19.9644 2.23193C20.2488 2.11477 20.5745 2.13427 20.8452 2.29053L37.895 12.1343L38.0054 12.2085C38.249 12.3962 38.395 12.688 38.395 13.0005V32.688C38.3949 33.045 38.2041 33.3746 37.895 33.5532L20.8452 43.397L20.7261 43.4556C20.4822 43.5561 20.2082 43.5561 19.9644 43.4556L19.8452 43.397L2.79541 33.5532C2.48622 33.3746 2.29555 33.045 2.29541 32.688V13.0005C2.29541 12.6432 2.48601 12.3129 2.79541 12.1343L19.8452 2.29053L19.9644 2.23193Z"
              stroke="white" stroke-width="2" stroke-linejoin="round"/>
        <path d="M20.3452 3L3.0246 13.0001L20.3452 23.0001L37.6658 13.0001L20.3452 3Z" fill="#F7F7F7"/>
        <path d="M3.0246 12.9998V32.9999L20.3452 42.9999V22.9998L3.0246 12.9998Z" fill="#F7F7F7"/>
        <path d="M20.345 22.9998V42.9999L37.6656 32.9999V12.9998L20.345 22.9998Z" fill="#EAEAEA"/>
        <path d="M20.3452 3.15674L3.29541 13.0004L20.3452 22.8441L37.3949 13.0004L20.3452 3.15674Z" stroke="#939393"
              stroke-width="0.5906" stroke-linecap="round" stroke-linejoin="round" stroke-dasharray="1.25 1.57"/>
        <path d="M3.29541 13.0002V32.6876L20.3452 42.5313V22.8439L3.29541 13.0002Z" stroke="#939393"
              stroke-width="0.5906" stroke-linecap="round" stroke-linejoin="round" stroke-dasharray="1.25 1.57"/>
        <path d="M20.345 22.8439V42.5313L37.3947 32.6876V13.0002L20.345 22.8439Z" stroke="#939393" stroke-width="0.5906"
              stroke-linecap="round" stroke-linejoin="round" stroke-dasharray="1.25 1.57"/>
        <g style="mix-blend-mode:overlay">
            <path d="M20.043 2.55957C20.2689 2.46683 20.5271 2.48264 20.7422 2.60645H20.7432L37.792 12.4502L37.8799 12.5088C38.0738 12.658 38.1904 12.89 38.1904 13.1387V32.8262C38.1904 33.0749 38.0738 33.3068 37.8799 33.4561L37.792 33.5146L20.7432 43.3584L20.7422 43.3594C20.62 43.4297 20.4825 43.4648 20.3447 43.4648C20.2072 43.4648 20.0703 43.4295 19.9482 43.3594L19.9473 43.3584L2.89746 33.5146C2.65159 33.3726 2.5 33.1102 2.5 32.8262V13.1387C2.50008 12.8546 2.65158 12.5922 2.89746 12.4502L19.9473 2.60645H19.9482L20.043 2.55957Z"
                  fill="#FFC32C"/>
            <path d="M20.043 2.55957C20.2689 2.46683 20.5271 2.48264 20.7422 2.60645H20.7432L37.792 12.4502L37.8799 12.5088C38.0738 12.658 38.1904 12.89 38.1904 13.1387V32.8262C38.1904 33.0749 38.0738 33.3068 37.8799 33.4561L37.792 33.5146L20.7432 43.3584L20.7422 43.3594C20.62 43.4297 20.4825 43.4648 20.3447 43.4648C20.2072 43.4648 20.0703 43.4295 19.9482 43.3594L19.9473 43.3584L2.89746 33.5146C2.65159 33.3726 2.5 33.1102 2.5 32.8262V13.1387C2.50008 12.8546 2.65158 12.5922 2.89746 12.4502L19.9473 2.60645H19.9482L20.043 2.55957Z"
                  stroke="#FFC32C" style="mix-blend-mode:overlay"/>
        </g>
    </g>
</svg>
